{"glyphs":{"0":{"ha":317,"x_min":31,"x_max":286,"o":"m 286 728 l 286 122 q 258 25 286 58 q 164 -8 229 -8 l 164 -8 q 60 31 90 -8 q 31 122 31 69 l 31 122 l 31 728 q 65 828 31 797 q 156 860 100 860 l 156 860 q 255 820 224 860 q 286 728 286 781 l 286 728 z m 138 772 l 138 122 q 142 83 138 93 q 157 72 146 72 l 157 72 q 176 86 172 72 q 179 122 179 100 l 179 122 l 179 772 l 138 772 z "},"1":{"ha":213,"x_min":4,"x_max":178,"o":"m 178 0 l 76 0 l 76 682 l 4 682 l 4 772 l 76 772 l 76 851 l 178 851 l 178 0 z "},"2":{"ha":290,"x_min":21,"x_max":276,"o":"m 21 0 l 21 63 q 31 203 21 132 q 65 340 42 274 l 65 340 q 106 428 83 390 q 145 507 128 467 q 163 601 163 547 l 163 601 l 163 789 l 121 789 l 121 549 l 21 549 l 21 735 q 54 826 21 793 q 147 858 88 858 l 147 858 q 240 823 211 858 q 269 735 269 788 l 269 735 l 269 590 q 253 493 269 533 q 214 415 236 453 q 172 325 192 378 l 172 325 q 138 210 149 261 q 128 90 128 158 l 128 90 l 276 90 l 276 0 l 21 0 z "},"3":{"ha":304,"x_min":22,"x_max":278,"o":"m 129 301 l 129 124 q 134 91 129 101 q 153 81 139 81 l 153 81 q 170 91 167 81 q 174 124 174 101 l 174 124 l 174 333 q 162 383 174 371 q 118 394 150 394 l 118 394 l 118 482 q 162 494 150 482 q 174 544 174 507 l 174 544 l 174 778 l 129 778 l 129 550 l 22 550 l 22 738 q 57 831 22 803 q 147 860 92 860 l 147 860 q 247 824 215 860 q 278 738 278 788 l 278 738 l 278 551 q 260 476 278 508 q 192 444 243 444 l 192 444 l 192 433 q 260 405 242 433 q 278 332 278 376 l 278 332 l 278 114 q 244 24 278 57 q 150 -10 211 -10 l 150 -10 q 56 24 89 -10 q 22 114 22 57 l 22 114 l 22 301 l 129 301 z "},"4":{"ha":314,"x_min":7,"x_max":307,"o":"m 179 139 l 7 139 l 7 214 l 157 851 l 275 851 l 275 224 l 307 224 l 307 139 l 275 139 l 275 0 l 179 0 l 179 139 z m 97 224 l 179 224 l 179 599 l 97 224 z "},"5":{"ha":308,"x_min":28,"x_max":286,"o":"m 132 301 l 132 121 q 138 83 132 97 q 158 68 143 68 l 158 68 q 176 83 172 68 q 179 121 179 97 l 179 121 l 179 431 q 176 461 179 451 q 160 471 174 471 l 160 471 q 140 431 140 471 l 140 431 l 140 406 l 31 406 l 31 851 l 283 851 l 283 769 l 132 769 l 132 496 l 146 496 q 172 535 150 524 q 211 546 193 546 l 211 546 q 262 526 246 546 q 282 477 278 506 q 286 422 286 449 l 286 422 l 286 114 q 251 21 286 50 q 151 -8 217 -8 l 151 -8 q 61 24 94 -8 q 28 114 28 56 l 28 114 l 28 301 l 132 301 z "},"6":{"ha":311,"x_min":31,"x_max":286,"o":"m 286 422 l 286 114 q 251 21 286 50 q 161 -8 217 -8 l 161 -8 q 62 28 93 -8 q 31 114 31 64 l 31 114 l 31 735 q 65 827 31 796 q 154 858 99 858 l 154 858 q 251 822 219 858 q 282 735 282 785 l 282 735 l 282 626 l 179 626 l 179 771 l 131 771 l 131 496 l 144 496 q 167 534 149 524 q 207 544 185 544 l 207 544 q 260 524 243 544 q 281 476 276 504 q 286 422 286 447 l 286 422 z m 188 121 l 188 425 q 161 475 188 475 l 161 475 q 138 458 143 475 q 132 422 132 442 l 132 422 l 132 121 q 138 83 132 99 q 161 68 143 68 l 161 68 q 183 83 179 68 q 188 121 188 99 l 188 121 z "},"7":{"ha":239,"x_min":6,"x_max":232,"o":"m 232 796 l 118 0 l 17 0 l 131 774 l 6 774 l 6 851 l 232 851 l 232 796 z "},"8":{"ha":311,"x_min":28,"x_max":283,"o":"m 283 325 l 283 113 q 252 20 283 49 q 164 -8 221 -8 l 164 -8 q 61 28 94 -8 q 28 113 28 64 l 28 113 l 28 325 q 49 403 28 378 q 103 431 69 429 l 103 431 l 103 439 q 51 463 74 442 q 28 544 28 485 l 28 544 l 28 735 q 63 829 28 800 q 153 858 97 858 l 153 858 q 252 822 221 858 q 283 735 283 785 l 283 735 l 283 544 q 261 464 283 485 q 208 440 239 443 l 208 440 l 208 431 q 263 403 242 429 q 283 325 283 378 l 283 325 z m 135 775 l 135 492 l 176 492 l 176 775 l 135 775 z m 129 326 l 129 125 q 135 78 129 92 q 157 65 142 65 l 157 65 q 177 78 172 65 q 182 125 182 92 l 182 125 l 182 326 q 176 371 182 358 q 156 383 171 383 l 156 383 q 135 371 142 383 q 129 326 129 358 l 129 326 z "},"9":{"ha":311,"x_min":25,"x_max":281,"o":"m 132 224 l 132 111 q 137 78 132 88 q 154 68 142 68 l 154 68 q 169 78 165 68 q 174 111 174 88 l 174 111 l 174 354 l 160 354 q 136 316 154 328 q 100 304 118 304 l 100 304 q 42 333 58 304 q 25 400 25 361 l 25 400 l 25 736 q 60 830 25 801 q 150 858 94 858 l 150 858 q 249 822 218 858 q 281 736 281 786 l 281 736 l 281 115 q 246 24 281 56 q 147 -8 211 -8 l 147 -8 q 60 28 90 -8 q 29 115 29 64 l 29 115 l 29 224 l 132 224 z m 132 776 l 132 403 l 174 403 l 174 776 l 132 776 z "}," ":{"ha":196,"x_min":null,"x_max":null,"o":""}," ":{"ha":196,"x_min":null,"x_max":null,"o":""},"\r":{"ha":167,"x_min":null,"x_max":null,"o":""},"K":{"ha":353,"x_min":36,"x_max":347,"o":"m 136 0 l 36 0 l 36 851 l 136 851 l 136 557 l 142 557 l 224 851 l 333 851 l 242 568 q 210 499 229 529 q 144 471 190 468 l 144 471 l 144 456 q 207 442 189 457 q 235 394 225 428 l 235 394 l 347 0 l 240 0 l 142 358 l 136 358 l 136 0 z "},"L":{"ha":253,"x_min":36,"x_max":247,"o":"m 247 0 l 36 0 l 36 851 l 140 851 l 140 94 l 247 94 l 247 0 z "},"M":{"ha":465,"x_min":36,"x_max":429,"o":"m 126 0 l 36 0 l 36 851 l 154 851 l 231 256 l 235 256 l 311 851 l 429 851 l 429 0 l 339 0 l 339 500 l 335 500 l 267 0 l 200 0 l 131 500 l 126 500 l 126 0 z "},"N":{"ha":400,"x_min":36,"x_max":364,"o":"m 138 0 l 36 0 l 36 850 l 156 850 l 258 299 l 261 299 l 261 850 l 364 850 l 364 0 l 250 0 l 142 564 l 138 564 l 138 0 z "},"O":{"ha":326,"x_min":32,"x_max":294,"o":"m 294 728 l 294 122 q 257 22 294 53 q 178 -8 219 -8 l 178 -8 l 149 -8 q 69 22 107 -8 q 32 122 32 53 l 32 122 l 32 728 q 69 828 32 797 q 149 860 107 860 l 149 860 l 178 860 q 257 828 219 860 q 294 728 294 797 l 294 728 z m 136 772 l 136 79 l 190 79 l 190 772 l 136 772 z "},"P":{"ha":308,"x_min":36,"x_max":292,"o":"m 139 0 l 36 0 l 36 851 l 175 851 q 257 818 222 851 q 292 721 292 785 l 292 721 l 292 493 q 260 408 292 433 q 182 382 229 382 l 182 382 l 139 382 l 139 0 z m 139 461 l 161 461 q 178 470 172 461 q 185 503 185 479 l 185 503 l 185 771 l 139 771 l 139 461 z "},"Q":{"ha":336,"x_min":32,"x_max":325,"o":"m 325 -8 l 149 -8 q 69 22 107 -8 q 32 122 32 53 l 32 122 l 32 726 q 69 827 32 796 q 149 858 107 858 l 149 858 l 182 858 q 261 827 224 858 q 299 726 299 796 l 299 726 l 299 136 q 265 96 299 100 l 265 96 l 265 78 l 325 78 l 325 -8 z m 139 771 l 139 79 l 192 79 l 192 771 l 139 771 z "},"R":{"ha":322,"x_min":36,"x_max":292,"o":"m 36 851 l 175 851 q 260 821 229 851 q 292 733 292 790 l 292 733 l 292 564 q 215 469 292 469 l 215 469 l 215 456 l 218 456 q 292 376 292 456 l 292 376 l 292 0 l 185 0 l 185 357 q 147 418 185 418 l 147 418 l 139 418 l 139 0 l 36 0 l 36 851 z m 139 493 l 147 493 q 185 556 185 493 l 185 556 l 185 771 l 139 771 l 139 493 z "},"S":{"ha":303,"x_min":25,"x_max":281,"o":"m 131 324 l 131 107 q 135 81 131 93 q 153 68 139 68 l 153 68 q 170 81 167 68 q 174 107 174 93 l 174 107 l 174 247 q 158 328 174 294 q 122 390 143 363 q 78 444 100 417 q 40 507 56 472 q 25 590 25 542 l 25 590 l 25 735 q 58 826 25 794 q 147 858 92 858 l 147 858 q 243 821 213 858 q 274 735 274 783 l 274 735 l 274 525 l 171 525 l 171 776 l 132 776 l 132 601 q 147 520 132 554 q 185 458 163 486 q 228 403 207 431 q 265 341 250 375 q 281 260 281 307 l 281 260 l 281 114 q 249 21 281 50 q 156 -8 217 -8 l 156 -8 q 54 27 83 -8 q 25 114 25 63 l 25 114 l 25 324 l 131 324 z "},"T":{"ha":272,"x_min":6,"x_max":267,"o":"m 190 0 l 83 0 l 83 761 l 6 761 l 6 851 l 267 851 l 267 761 l 190 761 l 190 0 z "},"U":{"ha":322,"x_min":33,"x_max":289,"o":"m 140 851 l 140 128 q 144 89 140 101 q 163 76 149 76 l 163 76 q 180 89 176 76 q 183 128 183 101 l 183 128 l 183 851 l 289 851 l 289 135 q 260 29 289 67 q 161 -8 231 -8 l 161 -8 q 63 29 92 -8 q 33 135 33 67 l 33 135 l 33 851 l 140 851 z "},"V":{"ha":308,"x_min":8,"x_max":300,"o":"m 215 0 l 93 0 l 8 851 l 108 851 l 151 240 l 157 240 l 210 851 l 300 851 l 215 0 z "},"W":{"ha":474,"x_min":10,"x_max":464,"o":"m 236 543 l 175 0 l 78 0 l 10 850 l 113 850 l 150 368 l 154 368 l 203 850 l 268 850 l 325 368 l 329 368 l 367 850 l 464 850 l 396 0 l 306 0 l 240 543 l 236 543 z "},"X":{"ha":361,"x_min":4,"x_max":354,"o":"m 24 0 l 96 346 q 116 406 104 385 q 163 426 128 426 l 163 426 l 163 436 q 125 451 139 436 q 104 488 111 467 q 92 528 97 510 l 92 528 l 4 851 l 107 851 l 185 554 l 251 851 l 354 851 l 281 528 q 269 488 276 510 q 247 451 261 467 q 210 436 233 436 l 210 436 l 210 426 q 258 406 246 426 q 276 347 269 385 l 276 347 l 349 0 l 247 0 l 186 299 l 125 0 l 24 0 z "},"Y":{"ha":315,"x_min":6,"x_max":310,"o":"m 201 0 l 103 0 l 103 317 l 6 851 l 108 851 l 151 522 l 156 522 l 207 851 l 310 851 l 201 317 l 201 0 z "},"Z":{"ha":282,"x_min":10,"x_max":274,"o":"m 274 0 l 10 0 l 10 85 l 153 764 l 35 764 l 35 851 l 261 851 l 261 767 l 117 88 l 274 88 l 274 0 z "},"a":{"ha":300,"x_min":25,"x_max":271,"o":"m 106 -4 l 106 -4 q 55 15 72 -4 q 31 63 38 33 q 25 119 25 92 l 25 119 l 25 571 q 31 628 25 600 q 55 676 38 657 q 106 694 72 694 l 106 694 q 157 675 142 694 q 174 638 172 656 l 174 638 l 182 638 l 182 688 l 271 688 l 271 0 l 182 0 l 182 53 l 174 53 q 157 15 172 35 q 106 -4 142 -4 z m 153 86 l 153 86 q 167 97 164 86 q 171 124 171 107 l 171 124 l 171 567 q 151 604 171 604 l 151 604 q 136 594 139 604 q 133 569 133 585 l 133 569 l 133 121 q 153 86 133 86 z "},"b":{"ha":300,"x_min":29,"x_max":275,"o":"m 194 -4 l 194 -4 q 144 15 160 -4 q 126 53 128 35 l 126 53 l 118 53 l 118 0 l 29 0 l 29 851 l 126 851 l 126 638 l 135 638 q 151 675 136 656 q 200 694 167 694 l 200 694 q 248 676 232 694 q 269 628 264 657 q 275 571 275 600 l 275 571 l 275 119 q 269 63 275 92 q 246 15 263 33 q 194 -4 229 -4 z m 147 86 l 147 86 q 163 97 158 86 q 167 122 167 107 l 167 122 l 167 568 q 164 594 167 583 q 149 604 161 604 l 149 604 q 129 568 129 604 l 129 568 l 129 122 q 133 97 129 107 q 147 86 136 86 z "},"c":{"ha":275,"x_min":24,"x_max":257,"o":"m 125 575 l 125 108 q 143 76 125 76 l 143 76 q 160 108 160 76 l 160 108 l 160 285 l 257 285 l 257 107 q 238 40 257 65 q 193 3 219 15 q 140 -8 167 -8 l 140 -8 q 88 3 115 -8 q 42 40 61 14 q 24 106 24 65 l 24 106 l 24 569 q 42 638 24 611 q 88 679 61 665 q 140 693 115 693 l 140 693 q 193 679 167 693 q 238 638 219 665 q 257 568 257 610 l 257 568 l 257 418 l 160 418 l 160 575 q 156 605 160 597 q 143 613 153 613 l 143 613 q 129 605 133 613 q 125 575 125 597 l 125 575 z "},"d":{"ha":300,"x_min":25,"x_max":271,"o":"m 106 -4 l 106 -4 q 55 15 72 -4 q 31 63 38 33 q 25 119 25 92 l 25 119 l 25 571 q 31 628 25 600 q 53 676 36 657 q 100 694 69 694 l 100 694 q 149 675 133 694 q 165 638 164 656 l 165 638 l 174 638 l 174 851 l 271 851 l 271 0 l 182 0 l 182 53 l 174 53 q 157 15 172 35 q 106 -4 142 -4 z m 153 86 l 153 86 q 167 97 164 86 q 171 122 171 107 l 171 122 l 171 568 q 151 604 171 604 l 151 604 q 136 594 139 604 q 133 568 133 583 l 133 568 l 133 122 q 138 97 133 107 q 153 86 142 86 z "},"e":{"ha":281,"x_min":24,"x_max":260,"o":"m 158 115 l 158 285 l 260 285 l 260 121 q 222 27 260 58 q 140 -4 185 -4 l 140 -4 q 60 27 97 -4 q 24 119 24 58 l 24 119 l 24 569 q 60 662 24 631 q 140 693 97 693 l 140 693 q 222 662 185 693 q 260 568 260 631 l 260 568 l 260 349 l 125 349 l 125 115 q 131 95 125 100 q 142 90 136 90 l 142 90 q 153 95 147 90 q 158 115 158 100 l 158 115 z m 126 421 l 158 421 l 158 596 l 126 596 l 126 421 z "},"f":{"ha":176,"x_min":-1,"x_max":178,"o":"m 139 611 l 139 -3 l 38 -3 l 38 611 l -1 611 l -1 688 l 38 688 l 38 729 q 68 829 38 807 q 156 851 99 851 l 156 851 l 178 851 l 178 739 l 139 739 l 139 688 l 178 688 l 178 611 l 139 611 z "},"g":{"ha":281,"x_min":22,"x_max":257,"o":"m 22 197 l 22 568 q 26 626 22 597 q 44 673 29 654 q 90 692 58 692 l 90 692 q 142 672 124 692 q 161 635 160 653 l 161 635 l 169 635 l 169 688 l 257 688 l 257 197 q 236 108 257 136 q 171 72 215 79 l 171 72 l 171 39 q 233 12 213 35 q 254 -47 254 -11 l 254 -47 q 229 -111 254 -86 q 151 -136 204 -136 l 151 -136 l 133 -136 q 56 -111 82 -136 q 29 -46 29 -86 l 29 -46 q 111 39 29 28 l 111 39 l 111 71 q 44 108 67 78 q 22 197 22 138 l 22 197 z m 140 164 l 140 164 q 154 174 151 164 q 157 206 157 183 l 157 206 l 157 572 q 155 592 157 583 q 142 601 153 601 l 142 601 q 126 593 131 601 q 122 575 122 585 l 122 575 l 122 203 q 126 174 122 183 q 140 164 129 164 z m 143 -68 l 143 -68 q 162 -65 153 -68 q 171 -49 171 -61 l 171 -49 q 162 -32 171 -36 q 144 -28 153 -28 l 144 -28 l 142 -28 q 124 -32 133 -28 q 114 -49 114 -36 l 114 -49 q 124 -65 114 -61 q 143 -68 133 -68 z "},"h":{"ha":290,"x_min":29,"x_max":264,"o":"m 129 0 l 29 0 l 29 851 l 126 851 l 126 635 l 135 635 q 147 672 136 653 q 190 692 157 692 l 190 692 q 238 673 222 692 q 259 626 254 654 q 264 568 264 597 l 264 568 l 264 0 l 164 0 l 164 569 q 161 590 164 579 q 147 601 158 601 l 147 601 q 133 590 136 601 q 129 567 129 578 l 129 567 l 129 0 z "},"i":{"ha":157,"x_min":26,"x_max":128,"o":"m 125 739 l 26 739 l 26 851 l 125 851 l 125 739 z m 128 0 l 29 0 l 29 688 l 128 688 l 128 0 z "},"j":{"ha":157,"x_min":-18,"x_max":128,"o":"m 125 735 l 24 735 l 24 851 l 125 851 l 125 735 z m -18 -221 l -18 -119 l 29 -119 l 29 688 l 128 688 l 128 -99 q 97 -198 128 -175 q 10 -221 67 -221 l 10 -221 l -18 -221 z "},"k":{"ha":328,"x_min":29,"x_max":328,"o":"m 129 0 l 29 0 l 29 851 l 129 851 l 129 513 l 149 513 l 203 689 l 313 689 l 267 556 q 234 485 251 511 q 181 463 217 460 l 181 463 l 181 449 q 236 431 217 450 q 260 389 256 411 l 260 389 l 328 0 l 221 0 l 150 406 l 129 406 l 129 0 z "},"l":{"ha":158,"x_min":29,"x_max":129,"o":"m 129 0 l 29 0 l 29 851 l 129 851 l 129 0 z "},"m":{"ha":438,"x_min":29,"x_max":411,"o":"m 129 0 l 29 0 l 29 688 l 126 688 l 126 635 l 135 635 q 150 672 136 653 q 194 692 164 692 l 194 692 q 237 675 222 692 q 257 635 251 658 l 257 635 l 267 635 q 286 672 268 653 q 336 692 304 692 l 336 692 q 384 673 368 692 q 406 626 400 654 q 411 568 411 597 l 411 568 l 411 0 l 310 0 l 310 574 q 306 595 310 586 q 290 604 303 604 l 290 604 q 273 595 276 604 q 269 574 269 586 l 269 574 l 269 0 l 169 0 l 169 574 q 165 595 169 586 q 149 604 161 604 l 149 604 q 133 595 136 604 q 129 574 129 586 l 129 574 l 129 0 z "},"n":{"ha":299,"x_min":29,"x_max":272,"o":"m 129 0 l 29 0 l 29 688 l 126 688 l 126 635 l 135 635 q 147 672 136 653 q 193 692 158 692 l 193 692 q 244 673 228 692 q 267 626 261 654 q 272 568 272 597 l 272 568 l 272 0 l 172 0 l 172 569 q 168 590 172 579 q 150 601 164 601 l 150 601 q 133 590 136 601 q 129 567 129 578 l 129 567 l 129 0 z "},"o":{"ha":289,"x_min":24,"x_max":265,"o":"m 24 119 l 24 569 q 61 662 24 631 q 144 693 99 693 l 144 693 q 228 662 190 693 q 265 568 265 631 l 265 568 l 265 121 q 228 25 265 58 q 144 -8 190 -8 l 144 -8 q 61 25 99 -8 q 24 119 24 58 l 24 119 z m 125 596 l 125 117 q 132 98 125 103 q 146 93 139 93 l 146 93 q 158 98 153 93 q 164 117 164 103 l 164 117 l 164 596 l 125 596 z "},"p":{"ha":300,"x_min":29,"x_max":275,"o":"m 29 -219 l 29 688 l 125 688 l 125 635 l 132 635 q 148 672 133 653 q 197 692 163 692 l 197 692 q 247 673 231 692 q 269 626 264 654 q 275 568 275 597 l 275 568 l 275 117 q 269 59 275 88 q 247 12 264 31 q 197 -7 231 -7 l 197 -7 q 153 10 165 -7 q 138 46 140 28 l 138 46 l 128 46 l 128 -219 l 29 -219 z m 129 592 l 129 93 q 133 66 129 76 q 150 56 138 56 l 150 56 q 164 66 161 56 q 167 90 167 76 l 167 90 l 167 594 q 147 629 167 629 l 147 629 q 133 619 136 629 q 129 592 129 608 l 129 592 z "},"q":{"ha":300,"x_min":25,"x_max":271,"o":"m 175 688 l 271 688 l 271 -219 l 172 -219 l 172 46 l 163 46 q 148 10 161 28 q 103 -7 135 -7 l 103 -7 q 53 12 71 -7 q 31 59 36 31 q 25 117 25 88 l 25 117 l 25 568 q 31 626 25 597 q 53 673 36 654 q 103 692 71 692 l 103 692 q 153 672 139 692 q 168 635 167 653 l 168 635 l 175 635 l 175 688 z m 171 93 l 171 592 q 167 619 171 608 q 153 629 164 629 l 153 629 q 133 594 133 629 l 133 594 l 133 90 q 136 66 133 76 q 150 56 139 56 l 150 56 q 167 66 163 56 q 171 93 171 76 l 171 93 z "},"r":{"ha":239,"x_min":29,"x_max":213,"o":"m 131 0 l 29 0 l 29 688 l 131 688 l 131 646 l 139 646 q 163 680 140 672 q 213 688 185 688 l 213 688 l 213 611 l 131 611 l 131 0 z "},"s":{"ha":269,"x_min":17,"x_max":253,"o":"m 151 83 l 151 183 q 131 258 151 225 q 85 324 111 292 q 40 396 60 357 q 19 485 19 435 l 19 485 l 19 568 q 56 662 19 631 q 136 693 93 693 l 136 693 q 217 662 181 693 q 253 568 253 631 l 253 568 l 253 418 l 156 418 l 156 613 l 121 613 l 121 508 q 141 427 121 461 q 187 362 161 393 q 233 293 213 331 q 253 201 253 256 l 253 201 l 253 118 q 215 24 251 57 q 135 -8 179 -8 l 135 -8 q 54 25 92 -8 q 17 121 17 58 l 17 121 l 17 285 l 114 285 l 114 83 l 151 83 z "},"t":{"ha":186,"x_min":-1,"x_max":183,"o":"m 38 119 l 38 611 l -1 611 l -1 688 l 38 688 l 38 851 l 138 851 l 138 688 l 183 688 l 183 611 l 139 611 l 139 72 l 183 72 l 183 -3 l 156 -3 q 68 20 99 -3 q 38 119 38 43 l 38 119 z "},"u":{"ha":299,"x_min":26,"x_max":269,"o":"m 169 688 l 269 688 l 269 0 l 172 0 l 172 53 l 164 53 q 152 15 163 35 q 106 -4 142 -4 l 106 -4 q 55 15 72 -4 q 32 63 38 33 q 26 119 26 92 l 26 119 l 26 688 l 126 688 l 126 118 q 131 97 126 108 q 149 86 135 86 l 149 86 q 166 98 163 86 q 169 121 169 110 l 169 121 l 169 688 z "},"v":{"ha":263,"x_min":3,"x_max":260,"o":"m 185 0 l 79 0 l 3 688 l 100 688 l 131 279 l 133 279 l 164 688 l 260 688 l 185 0 z "},"w":{"ha":444,"x_min":4,"x_max":442,"o":"m 164 0 l 69 0 l 4 688 l 100 688 l 132 228 l 138 228 l 185 688 l 261 688 l 308 228 l 314 228 l 346 688 l 442 688 l 376 0 l 282 0 l 225 403 l 221 403 l 164 0 z "},"x":{"ha":290,"x_min":0,"x_max":289,"o":"m 96 351 l 1 688 l 97 688 l 146 514 l 192 688 l 286 688 l 192 349 l 289 0 l 193 0 l 142 183 l 94 0 l 0 0 l 96 351 z "},"y":{"ha":282,"x_min":8,"x_max":279,"o":"m 96 -225 l 69 -225 l 69 -133 l 111 -133 l 125 0 l 108 0 q 69 24 90 0 q 44 107 49 47 l 44 107 l 8 688 l 99 688 l 132 114 l 136 114 l 188 688 l 279 688 l 194 -125 q 184 -167 193 -143 q 155 -208 175 -190 q 96 -225 135 -225 l 96 -225 z "},"z":{"ha":240,"x_min":4,"x_max":233,"o":"m 233 0 l 4 0 l 4 88 l 133 604 l 19 604 l 19 688 l 231 688 l 231 600 l 103 83 l 233 83 l 233 0 z "},"$":{"ha":315,"x_min":31,"x_max":286,"o":"m 92 846 l 92 928 l 139 928 l 139 858 l 153 858 q 163 858 158 858 q 172 857 167 858 l 172 857 l 172 928 l 219 928 l 219 843 q 265 798 251 826 q 279 735 279 769 l 279 735 l 279 525 l 176 525 l 176 776 l 138 776 l 138 601 q 153 520 138 554 q 190 458 168 486 q 234 403 213 431 q 271 341 256 375 q 286 260 286 307 l 286 260 l 286 114 q 269 40 286 68 q 219 0 251 11 l 219 0 l 219 -65 l 172 -65 l 172 -8 l 161 -8 q 151 -8 156 -8 q 139 -7 146 -8 l 139 -7 l 139 -65 l 92 -65 l 92 4 q 44 49 58 19 q 31 114 31 78 l 31 114 l 31 324 l 136 324 l 136 107 q 140 81 136 93 q 158 68 144 68 l 158 68 q 176 81 172 68 q 179 107 179 93 l 179 107 l 179 247 q 164 328 179 294 q 127 390 149 363 q 83 444 106 417 q 46 507 61 472 q 31 590 31 542 l 31 590 l 31 735 q 47 803 31 775 q 92 846 64 832 l 92 846 z "},"D":{"ha":322,"x_min":36,"x_max":292,"o":"m 292 722 l 292 126 q 254 28 292 57 q 175 0 217 0 l 175 0 l 36 0 l 36 850 l 175 850 q 254 821 217 850 q 292 722 292 792 l 292 722 z m 142 67 l 154 67 q 175 76 165 67 q 185 111 185 85 l 185 111 l 185 783 l 142 783 l 142 67 z "},"ﬁ":{"ha":333,"x_min":-1,"x_max":304,"o":"m 139 611 l 139 -3 l 38 -3 l 38 611 l -1 611 l -1 688 l 38 688 l 38 729 q 68 829 38 807 q 156 851 99 851 l 156 851 l 178 851 l 178 739 l 139 739 l 139 688 l 178 688 l 178 611 l 139 611 z m 301 739 l 203 739 l 203 851 l 301 851 l 301 739 z m 304 0 l 206 0 l 206 688 l 304 688 l 304 0 z "},"…":{"ha":494,"x_min":57,"x_max":438,"o":"m 151 0 l 57 0 l 57 133 l 151 133 l 151 0 z m 294 0 l 200 0 l 200 133 l 294 133 l 294 0 z m 438 0 l 343 0 l 343 133 l 438 133 l 438 0 z "},"!":{"ha":154,"x_min":24,"x_max":131,"o":"m 113 165 l 40 165 l 24 543 l 24 851 l 131 851 l 131 543 l 113 165 z m 125 0 l 31 0 l 31 133 l 125 133 l 125 0 z "},".":{"ha":153,"x_min":29,"x_max":124,"o":"m 124 0 l 29 0 l 29 133 l 124 133 l 124 0 z "},",":{"ha":136,"x_min":21,"x_max":115,"o":"m 69 -82 l 36 -82 l 57 0 l 21 0 l 21 133 l 115 133 l 115 0 l 69 -82 z "},":":{"ha":114,"x_min":10,"x_max":104,"o":"m 104 0 l 10 0 l 10 133 l 104 133 l 104 0 z m 104 554 l 10 554 l 10 688 l 104 688 l 104 554 z "},";":{"ha":113,"x_min":8,"x_max":104,"o":"m 104 553 l 10 553 l 10 686 l 104 686 l 104 553 z m 57 -82 l 24 -82 l 44 0 l 8 0 l 8 133 l 103 133 l 103 0 l 57 -82 z "},"”":{"ha":290,"x_min":26,"x_max":265,"o":"m 78 649 l 43 649 l 64 731 l 26 731 l 26 851 l 126 851 l 126 731 l 78 649 z m 217 649 l 182 649 l 203 731 l 165 731 l 165 851 l 265 851 l 265 731 l 217 649 z "},"“":{"ha":290,"x_min":25,"x_max":264,"o":"m 213 933 l 247 933 l 226 851 l 264 851 l 264 731 l 164 731 l 164 851 l 213 933 z m 74 933 l 108 933 l 88 851 l 125 851 l 125 731 l 25 731 l 25 851 l 74 933 z "},"’":{"ha":151,"x_min":26,"x_max":126,"o":"m 78 649 l 43 649 l 64 731 l 26 731 l 26 851 l 126 851 l 126 731 l 78 649 z "},"‘":{"ha":151,"x_min":22,"x_max":122,"o":"m 71 933 l 106 933 l 85 851 l 122 851 l 122 731 l 22 731 l 22 851 l 71 933 z "},"?":{"ha":260,"x_min":6,"x_max":254,"o":"m 51 165 l 51 324 q 66 386 51 356 q 101 449 81 417 q 135 522 121 482 q 150 613 150 561 l 150 613 l 150 739 q 147 773 150 764 q 128 782 143 782 l 128 782 q 110 772 114 782 q 106 739 106 761 l 106 739 l 106 554 l 6 554 l 6 738 q 40 826 6 794 q 136 858 74 858 l 136 858 q 224 823 193 858 q 254 738 254 788 l 254 738 l 254 608 q 238 528 254 568 q 202 449 222 488 q 166 375 182 411 q 150 307 150 339 l 150 307 l 150 165 l 51 165 z m 147 0 l 53 0 l 53 133 l 147 133 l 147 0 z "},"|":{"ha":179,"x_min":43,"x_max":136,"o":"m 136 -97 l 43 -97 l 43 938 l 136 938 l 136 -97 z "},"/":{"ha":292,"x_min":-3,"x_max":294,"o":"m 92 0 l -3 0 l 200 851 l 294 851 l 92 0 z "},"\\":{"ha":292,"x_min":-28,"x_max":269,"o":"m 67 851 l 269 0 l 175 0 l -28 851 l 67 851 z "},"⁄":{"ha":283,"x_min":4,"x_max":279,"o":"m 63 0 l 4 0 l 221 851 l 279 851 l 63 0 z "},"<":{"ha":315,"x_min":13,"x_max":290,"o":"m 290 150 l 290 7 l 13 322 l 13 361 l 290 679 l 290 539 l 125 343 l 290 150 z "},">":{"ha":315,"x_min":25,"x_max":303,"o":"m 303 322 l 25 7 l 25 150 l 190 343 l 25 539 l 25 679 l 303 361 l 303 322 z "},"%":{"ha":544,"x_min":19,"x_max":525,"o":"m 178 0 l 79 0 l 371 851 l 471 851 l 178 0 z m 417 -7 l 417 -7 q 324 35 350 -7 q 297 124 297 76 l 297 124 l 297 244 q 326 338 297 300 q 414 376 356 376 l 414 376 q 495 338 465 376 q 525 244 525 300 l 525 244 l 525 124 q 500 30 525 67 q 417 -7 475 -7 z m 414 74 l 414 74 q 431 88 426 74 q 436 124 436 101 l 436 124 l 436 289 l 390 289 l 390 124 q 395 84 390 94 q 414 74 400 74 z m 138 478 l 138 478 q 46 519 72 478 q 19 608 19 561 l 19 608 l 19 729 q 48 823 19 785 q 132 861 76 861 l 132 861 q 217 823 186 861 q 247 729 247 785 l 247 729 l 247 608 q 222 515 247 551 q 138 478 197 478 z m 132 558 l 132 558 q 153 572 147 558 q 158 608 158 586 l 158 608 l 158 774 l 113 774 l 113 608 q 117 569 113 579 q 132 558 121 558 z "},"‰":{"ha":881,"x_min":40,"x_max":861,"o":"m 751 -7 l 751 -7 q 660 35 686 -7 q 633 124 633 76 l 633 124 l 633 244 q 662 338 633 300 q 746 376 690 376 l 746 376 q 831 338 800 376 q 861 244 861 300 l 861 244 l 861 124 q 836 30 861 67 q 751 -7 811 -7 z m 199 0 l 100 0 l 392 851 l 492 851 l 199 0 z m 438 -7 l 438 -7 q 344 35 371 -7 q 318 124 318 76 l 318 124 l 318 244 q 347 338 318 300 q 435 376 376 376 l 435 376 q 516 338 486 376 q 546 244 546 300 l 546 244 l 546 124 q 521 30 546 67 q 438 -7 496 -7 z m 435 74 l 435 74 q 452 88 447 74 q 457 124 457 101 l 457 124 l 457 289 l 411 289 l 411 124 q 416 84 411 94 q 435 74 421 74 z m 158 478 l 158 478 q 67 519 93 478 q 40 608 40 561 l 40 608 l 40 729 q 69 823 40 785 q 153 861 97 861 l 153 861 q 238 823 207 861 q 268 729 268 785 l 268 729 l 268 608 q 243 515 268 551 q 158 478 218 478 z m 153 558 l 153 558 q 174 572 168 558 q 179 608 179 586 l 179 608 l 179 774 l 133 774 l 133 608 q 138 569 133 579 q 153 558 142 558 z m 746 74 l 746 74 q 767 88 761 74 q 772 124 772 101 l 772 124 l 772 289 l 726 289 l 726 124 q 731 84 726 94 q 746 74 735 74 z "},"«":{"ha":328,"x_min":10,"x_max":319,"o":"m 319 3 l 221 3 l 156 344 l 219 688 l 317 688 l 253 343 l 319 3 z m 174 3 l 75 3 l 10 344 l 74 688 l 171 688 l 107 343 l 174 3 z "},"»":{"ha":328,"x_min":8,"x_max":318,"o":"m 172 344 l 107 3 l 8 3 l 75 343 l 11 688 l 108 688 l 172 344 z m 318 344 l 253 3 l 154 3 l 221 343 l 157 688 l 254 688 l 318 344 z "},"^":{"ha":304,"x_min":15,"x_max":289,"o":"m 147 675 l 85 486 l 15 486 l 108 851 l 196 851 l 289 486 l 221 486 l 147 675 z "},"*":{"ha":490,"x_min":6,"x_max":476,"o":"m 6 853 l 124 853 l 204 793 l 204 853 l 283 853 l 283 796 l 360 853 l 476 853 l 353 758 l 471 758 l 471 685 l 350 685 l 476 592 l 360 592 l 283 647 l 283 592 l 204 592 l 204 646 l 133 592 l 8 592 l 133 685 l 21 685 l 21 758 l 133 758 l 6 853 z "},"#":{"ha":390,"x_min":-1,"x_max":392,"o":"m 129 0 l 38 0 l 61 250 l -1 250 l 6 321 l 68 321 l 88 517 l 26 517 l 33 586 l 94 586 l 121 851 l 214 851 l 188 586 l 242 586 l 268 851 l 360 851 l 333 586 l 392 586 l 383 517 l 326 517 l 307 321 l 364 321 l 356 250 l 300 250 l 276 0 l 183 0 l 208 250 l 154 250 l 129 0 z m 161 321 l 215 321 l 235 517 l 181 517 l 161 321 z "},"[":{"ha":214,"x_min":35,"x_max":208,"o":"m 135 865 l 135 -22 l 208 -22 l 208 -103 l 35 -103 l 35 946 l 208 946 l 208 865 l 135 865 z "},"]":{"ha":214,"x_min":6,"x_max":179,"o":"m 6 -22 l 79 -22 l 79 865 l 6 865 l 6 946 l 179 946 l 179 -103 l 6 -103 l 6 -22 z "},"(":{"ha":236,"x_min":29,"x_max":231,"o":"m 126 865 l 126 -21 l 231 -21 l 231 -101 l 160 -101 q 68 -67 107 -101 q 29 57 29 -33 l 29 57 l 29 786 q 68 912 29 878 q 160 946 107 946 l 160 946 l 231 946 l 231 865 l 126 865 z "},")":{"ha":236,"x_min":4,"x_max":206,"o":"m 4 -21 l 108 -21 l 108 865 l 4 865 l 4 946 l 75 946 q 167 912 128 946 q 206 786 206 878 l 206 786 l 206 57 q 167 -67 206 -33 q 75 -101 128 -101 l 75 -101 l 4 -101 l 4 -21 z "},"{":{"ha":290,"x_min":3,"x_max":285,"o":"m 181 340 l 181 -22 l 285 -22 l 285 -103 l 214 -103 q 112 -57 140 -103 q 83 56 83 -11 l 83 56 l 83 342 q 67 408 83 390 q 3 425 51 425 l 3 425 l 3 483 q 67 501 51 483 q 83 567 83 518 l 83 567 l 83 789 q 113 906 83 863 q 214 949 143 949 l 214 949 l 285 949 l 285 868 l 181 868 l 181 575 q 165 499 181 532 q 97 463 150 465 l 97 463 l 76 461 l 76 447 l 97 446 q 165 413 149 443 q 181 340 181 382 l 181 340 z "},"}":{"ha":290,"x_min":6,"x_max":288,"o":"m 110 -22 l 110 340 q 126 413 110 382 q 193 446 142 443 l 193 446 l 214 447 l 214 461 l 193 463 q 125 499 140 465 q 110 575 110 532 l 110 575 l 110 868 l 6 868 l 6 949 l 76 949 q 177 906 147 949 q 207 789 207 863 l 207 789 l 207 567 q 223 501 207 518 q 288 483 239 483 l 288 483 l 288 425 q 223 408 239 425 q 207 342 207 390 l 207 342 l 207 56 q 178 -57 207 -11 q 76 -103 150 -103 l 76 -103 l 6 -103 l 6 -22 l 110 -22 z "},"@":{"ha":524,"x_min":33,"x_max":493,"o":"m 374 113 l 408 36 q 269 0 347 0 l 269 0 q 157 24 211 0 q 68 93 103 47 q 33 206 33 139 l 33 206 l 33 625 q 65 748 33 704 q 149 809 97 792 q 263 826 201 826 l 263 826 q 433 778 372 826 q 493 624 493 729 l 493 624 l 493 229 q 466 157 493 185 q 390 129 439 129 l 390 129 q 343 142 360 129 q 319 176 326 154 l 319 176 l 311 176 q 288 142 310 154 q 240 129 265 129 l 240 129 q 183 158 201 129 q 165 233 165 186 l 165 233 l 165 601 q 178 672 165 638 q 229 707 190 707 l 229 707 q 268 694 253 707 q 285 658 283 682 l 285 658 l 292 658 l 292 703 l 364 703 l 364 236 q 369 216 364 225 q 383 207 374 207 l 383 207 q 400 236 400 207 l 400 236 l 400 611 q 383 695 400 668 q 337 731 367 722 q 269 739 307 739 l 269 739 q 166 715 201 739 q 131 608 131 690 l 131 608 l 131 225 q 175 124 131 160 q 275 89 219 89 l 275 89 q 325 95 299 89 q 374 113 351 101 l 374 113 z m 282 236 l 282 599 q 279 626 282 614 q 265 639 276 639 l 265 639 q 251 626 254 639 q 247 600 247 613 l 247 600 l 247 235 q 251 211 247 222 q 267 200 256 200 l 267 200 q 280 211 278 200 q 282 236 282 222 l 282 236 z "},"&":{"ha":314,"x_min":31,"x_max":286,"o":"m 135 331 l 135 164 q 140 116 135 140 q 158 92 144 92 l 158 92 q 178 116 174 92 q 182 164 182 140 l 182 164 l 182 314 l 286 314 l 286 153 q 267 69 286 101 q 197 31 247 38 l 197 31 l 197 -35 l 131 -35 l 131 31 q 57 70 83 38 q 31 153 31 103 l 31 153 l 31 329 q 49 399 31 369 q 117 429 67 429 l 117 429 l 117 443 q 48 476 65 443 q 31 550 31 508 l 31 550 l 31 693 q 56 774 31 739 q 131 815 82 810 l 131 815 l 131 883 l 197 883 l 197 814 q 266 778 246 807 q 286 693 286 749 l 286 693 l 286 532 l 182 532 l 182 747 l 135 747 l 135 542 q 147 491 135 504 q 190 478 158 478 l 190 478 l 190 394 q 147 381 158 394 q 135 331 135 368 l 135 331 z "},"+":{"ha":371,"x_min":15,"x_max":357,"o":"m 232 139 l 142 139 l 142 410 l 15 410 l 15 488 l 142 488 l 142 769 l 232 769 l 232 488 l 357 488 l 357 410 l 232 410 l 232 139 z "},"-":{"ha":336,"x_min":29,"x_max":308,"o":"m 308 411 l 29 411 l 29 482 l 308 482 l 308 411 z "},"–":{"ha":454,"x_min":29,"x_max":426,"o":"m 426 444 l 29 444 l 29 513 l 426 513 l 426 444 z "},"—":{"ha":649,"x_min":29,"x_max":621,"o":"m 621 444 l 29 444 l 29 513 l 621 513 l 621 444 z "},"_":{"ha":440,"x_min":29,"x_max":413,"o":"m 413 0 l 29 0 l 29 68 l 413 68 l 413 0 z "},"=":{"ha":425,"x_min":35,"x_max":390,"o":"m 390 518 l 35 518 l 35 586 l 390 586 l 390 518 z m 390 376 l 35 376 l 35 444 l 390 444 l 390 376 z "},"•":{"ha":172,"x_min":17,"x_max":157,"o":"m 17 346 l 17 346 q 39 397 17 378 q 88 415 61 415 l 88 415 q 138 393 119 415 q 157 343 157 371 l 157 343 q 135 293 157 313 q 85 274 113 274 l 85 274 q 36 295 56 274 q 17 346 17 317 z "},"¡":{"ha":154,"x_min":24,"x_max":131,"o":"m 42 522 l 114 522 l 131 144 l 131 -164 l 24 -164 l 24 144 l 42 522 z m 29 688 l 124 688 l 124 554 l 29 554 l 29 688 z "},"†":{"ha":236,"x_min":11,"x_max":225,"o":"m 168 -149 l 67 -149 l 67 542 l 11 542 l 11 604 l 67 604 l 67 851 l 168 851 l 168 604 l 225 604 l 225 542 l 168 542 l 168 -149 z "},"‡":{"ha":244,"x_min":15,"x_max":229,"o":"m 172 -136 l 71 -136 l 71 138 l 15 138 l 15 199 l 71 199 l 71 542 l 15 542 l 15 604 l 71 604 l 71 851 l 172 851 l 172 604 l 229 604 l 229 542 l 172 542 l 172 199 l 229 199 l 229 138 l 172 138 l 172 -136 z "},"›":{"ha":192,"x_min":7,"x_max":185,"o":"m 185 339 l 106 61 l 7 61 l 88 338 l 10 618 l 107 618 l 185 339 z "},"‹":{"ha":193,"x_min":7,"x_max":185,"o":"m 185 61 l 86 61 l 7 339 l 85 618 l 182 618 l 104 338 l 185 61 z "},"°":{"ha":208,"x_min":29,"x_max":179,"o":"m 29 786 l 29 786 q 51 840 29 818 q 104 861 72 861 l 104 861 q 158 840 136 861 q 179 786 179 818 l 179 786 q 158 733 179 756 q 104 710 136 710 l 104 710 q 51 733 72 710 q 29 786 29 756 z m 78 786 l 78 786 q 104 758 78 758 l 104 758 q 131 786 131 758 l 131 786 q 104 813 131 813 l 104 813 q 78 786 78 813 z "},"'":{"ha":151,"x_min":26,"x_max":126,"o":"m 78 649 l 43 649 l 64 731 l 26 731 l 26 851 l 126 851 l 126 731 l 78 649 z "},"\"":{"ha":290,"x_min":26,"x_max":265,"o":"m 78 649 l 43 649 l 64 731 l 26 731 l 26 851 l 126 851 l 126 731 l 78 649 z m 217 649 l 182 649 l 203 731 l 165 731 l 165 851 l 265 851 l 265 731 l 217 649 z "},"‚":{"ha":147,"x_min":26,"x_max":121,"o":"m 75 -82 l 42 -82 l 63 0 l 26 0 l 26 133 l 121 133 l 121 0 l 75 -82 z "},"„":{"ha":290,"x_min":35,"x_max":274,"o":"m 86 -137 l 51 -137 l 72 -56 l 35 -56 l 35 65 l 135 65 l 135 -56 l 86 -137 z m 225 -137 l 190 -137 l 211 -56 l 174 -56 l 174 65 l 274 65 l 274 -56 l 225 -137 z "},"~":{"ha":371,"x_min":22,"x_max":349,"o":"m 289 418 l 349 379 q 310 326 333 349 q 251 303 288 303 l 251 303 q 202 315 224 303 q 162 338 181 326 q 124 350 143 350 l 124 350 q 96 338 107 350 q 75 307 85 326 l 75 307 l 22 349 q 59 403 36 381 q 121 426 82 426 l 121 426 q 167 415 150 426 q 201 392 185 404 q 240 381 217 381 l 240 381 q 273 392 264 381 q 289 418 282 404 l 289 418 z "},"B":{"ha":321,"x_min":36,"x_max":292,"o":"m 175 0 l 36 0 l 36 851 l 175 851 q 292 719 292 851 l 292 719 l 292 536 q 215 449 292 449 l 215 449 l 215 435 q 292 349 292 429 l 292 349 l 292 124 q 175 0 292 0 l 175 0 z m 139 472 l 147 472 q 185 542 185 472 l 185 542 l 185 785 l 139 785 l 139 472 z m 139 413 l 139 67 l 185 67 l 185 343 q 147 413 185 413 l 147 413 l 139 413 z "},"C":{"ha":313,"x_min":32,"x_max":288,"o":"m 139 772 l 139 129 q 143 86 139 100 q 163 72 147 72 l 163 72 q 178 90 175 72 q 181 129 181 107 l 181 129 l 181 329 l 288 329 l 288 122 q 254 23 288 54 q 156 -8 221 -8 l 156 -8 q 65 25 99 -8 q 32 122 32 58 l 32 122 l 32 728 q 68 828 32 797 q 169 860 104 860 l 169 860 q 257 820 226 860 q 288 728 288 781 l 288 728 l 288 515 l 181 515 l 181 772 l 139 772 z "},"A":{"ha":308,"x_min":8,"x_max":300,"o":"m 108 0 l 8 0 l 93 851 l 215 851 l 300 0 l 210 0 l 190 231 l 125 231 l 108 0 z m 151 611 l 131 308 l 183 308 l 157 611 l 151 611 z "},"±":{"ha":336,"x_min":18,"x_max":318,"o":"m 318 88 l 18 88 l 18 156 l 124 156 l 124 413 l 18 413 l 18 483 l 124 483 l 124 763 l 213 763 l 213 483 l 318 483 l 318 413 l 213 413 l 213 156 l 318 156 l 318 88 z "},"·":{"ha":167,"x_min":29,"x_max":138,"o":"m 138 283 l 29 283 l 29 431 l 138 431 l 138 283 z "},"E":{"ha":257,"x_min":36,"x_max":247,"o":"m 247 0 l 36 0 l 36 851 l 242 851 l 242 760 l 138 760 l 138 494 l 213 494 l 213 407 l 138 407 l 138 92 l 247 92 l 247 0 z "},"F":{"ha":247,"x_min":36,"x_max":242,"o":"m 138 0 l 36 0 l 36 851 l 242 851 l 242 760 l 138 760 l 138 494 l 213 494 l 213 407 l 138 407 l 138 0 z "},"G":{"ha":333,"x_min":32,"x_max":307,"o":"m 139 785 l 139 118 q 150 85 139 96 q 175 75 161 75 l 175 75 q 199 85 190 75 q 208 122 208 96 l 208 122 l 208 389 l 168 389 l 168 475 l 307 475 l 307 0 l 210 0 l 210 54 l 199 54 q 173 6 189 19 q 131 -7 157 -7 l 131 -7 q 62 19 92 -7 q 32 108 32 44 l 32 108 l 32 726 q 69 827 32 796 q 149 858 107 858 l 149 858 l 171 858 q 226 844 199 858 q 273 802 254 831 q 292 726 292 774 l 292 726 l 292 565 l 185 565 l 185 785 l 139 785 z "},"¿":{"ha":260,"x_min":6,"x_max":254,"o":"m 208 522 l 208 364 q 194 301 208 332 q 159 238 179 271 q 124 166 139 206 q 110 75 110 126 l 110 75 l 110 -51 q 114 -85 110 -76 q 132 -94 118 -94 l 132 -94 q 150 -84 146 -94 q 154 -51 154 -74 l 154 -51 l 154 133 l 254 133 l 254 -50 q 220 -139 254 -107 q 124 -171 186 -171 l 124 -171 q 36 -135 67 -171 q 6 -50 6 -100 l 6 -50 l 6 79 q 22 160 6 119 q 58 238 38 200 q 94 313 78 276 q 110 381 110 349 l 110 381 l 110 522 l 208 522 z m 113 688 l 207 688 l 207 554 l 113 554 l 113 688 z "},"¶":{"ha":443,"x_min":17,"x_max":400,"o":"m 175 0 l 175 443 q 73 475 107 443 q 28 553 39 507 q 17 639 17 599 l 17 639 q 32 743 17 694 q 83 822 47 792 q 178 851 118 851 l 178 851 l 400 851 l 400 0 l 313 0 l 313 792 l 263 792 l 263 0 l 175 0 z "},"¬":{"ha":436,"x_min":24,"x_max":393,"o":"m 307 444 l 24 444 l 24 513 l 393 513 l 393 319 l 307 319 l 307 444 z "},"Þ":{"ha":297,"x_min":36,"x_max":276,"o":"m 143 0 l 36 0 l 36 851 l 143 851 l 143 703 l 171 703 q 246 671 215 703 q 276 581 276 639 l 276 581 l 276 250 q 246 159 276 192 q 171 126 215 126 l 171 126 l 143 126 l 143 0 z m 143 189 l 151 189 q 174 197 167 189 q 181 238 181 206 l 181 238 l 181 593 q 174 633 181 625 q 151 642 167 642 l 151 642 l 143 642 l 143 189 z "},"þ":{"ha":290,"x_min":29,"x_max":269,"o":"m 136 -125 l 29 -125 l 29 778 l 136 778 l 136 629 l 164 629 q 239 597 208 629 q 269 507 269 565 l 269 507 l 269 125 q 239 34 269 67 q 164 1 208 1 l 164 1 l 136 1 l 136 -125 z m 136 64 l 144 64 q 167 72 160 64 q 174 113 174 81 l 174 113 l 174 519 q 167 560 174 551 q 144 568 160 568 l 144 568 l 136 568 l 136 64 z "},"©":{"ha":392,"x_min":39,"x_max":353,"o":"m 353 776 l 353 360 q 323 302 353 319 q 258 285 293 285 l 258 285 l 135 285 q 70 302 101 285 q 39 360 39 319 l 39 360 l 39 776 q 70 834 39 817 q 135 851 101 851 l 135 851 l 258 851 q 323 834 293 851 q 353 776 353 817 l 353 776 z m 106 796 l 106 340 l 286 340 l 286 796 l 106 796 z m 186 710 l 186 447 q 196 421 186 421 l 196 421 q 205 429 203 421 q 207 447 207 438 l 207 447 l 207 526 l 256 526 l 256 435 q 199 378 256 378 l 199 378 q 136 435 136 378 l 136 435 l 136 699 q 152 743 136 729 q 194 757 168 757 l 194 757 q 241 740 226 757 q 256 699 256 722 l 256 699 l 256 608 l 207 608 l 207 710 l 186 710 z "},"®":{"ha":392,"x_min":39,"x_max":353,"o":"m 353 776 l 353 360 q 323 302 353 319 q 258 285 293 285 l 258 285 l 135 285 q 70 302 101 285 q 39 360 39 319 l 39 360 l 39 776 q 70 834 39 817 q 135 851 101 851 l 135 851 l 258 851 q 323 834 293 851 q 353 776 353 817 l 353 776 z m 106 796 l 106 340 l 286 340 l 286 796 l 106 796 z m 189 557 l 189 379 l 140 379 l 140 757 l 203 757 q 241 740 228 757 q 254 699 254 724 l 254 699 l 254 615 q 221 574 254 574 l 221 574 l 221 567 l 224 567 q 254 532 254 567 l 254 532 l 254 379 l 206 379 l 206 529 q 189 557 206 557 l 189 557 z m 189 714 l 189 583 q 206 611 206 583 l 206 611 l 206 714 l 189 714 z "},"Œ":{"ha":436,"x_min":31,"x_max":428,"o":"m 300 381 l 300 135 q 289 79 300 106 l 289 79 l 428 79 l 428 0 l 147 0 q 68 28 106 0 q 31 121 31 57 l 31 121 l 31 729 q 68 822 31 793 q 147 851 106 851 l 147 851 l 422 851 l 422 771 l 289 771 q 300 715 300 742 l 300 715 l 300 450 l 393 450 l 393 381 l 300 381 z m 193 147 l 193 147 l 193 767 l 138 767 l 138 147 q 144 94 138 108 q 165 81 151 81 l 165 81 q 189 100 185 81 q 193 147 193 119 z "},"œ":{"ha":406,"x_min":24,"x_max":393,"o":"m 24 119 l 24 569 q 61 662 24 631 q 144 693 99 693 l 144 693 q 210 675 182 693 l 210 675 q 274 693 238 693 l 274 693 q 356 662 318 693 q 393 568 393 631 l 393 568 l 393 349 l 265 349 l 265 121 q 265 109 265 115 q 264 96 265 103 l 264 96 q 275 90 268 90 l 275 90 q 286 95 281 90 q 292 115 292 100 l 292 115 l 292 285 l 393 285 l 393 121 q 356 27 393 58 q 274 -4 318 -4 l 274 -4 q 213 13 240 -4 l 213 13 q 144 -8 182 -8 l 144 -8 q 61 25 99 -8 q 24 119 24 58 l 24 119 z m 125 596 l 125 117 q 132 98 125 103 q 146 93 139 93 l 146 93 q 158 97 154 93 l 158 97 q 157 109 157 104 q 157 119 157 114 l 157 119 l 157 569 q 158 583 157 576 q 160 596 158 590 l 160 596 l 125 596 z m 265 421 l 292 421 l 292 596 l 263 596 q 265 583 264 590 q 265 568 265 575 l 265 568 l 265 421 z "},"€":{"ha":350,"x_min":15,"x_max":317,"o":"m 61 469 l 15 469 l 15 501 l 61 501 l 61 728 q 97 828 61 797 q 199 860 133 860 l 199 860 q 286 820 256 860 q 317 728 317 781 l 317 728 l 317 515 l 210 515 l 210 772 l 168 772 l 168 501 l 213 501 l 213 469 l 168 469 l 168 428 l 213 428 l 213 397 l 168 397 l 168 129 q 172 86 168 100 q 192 72 176 72 l 192 72 q 207 90 204 72 q 210 129 210 107 l 210 129 l 210 329 l 317 329 l 317 122 q 283 23 317 54 q 185 -8 250 -8 l 185 -8 q 94 25 128 -8 q 61 122 61 58 l 61 122 l 61 397 l 15 397 l 15 428 l 61 428 l 61 469 z "},"™":{"ha":369,"x_min":18,"x_max":326,"o":"m 103 425 l 47 425 l 47 799 l 18 799 l 18 851 l 132 851 l 132 799 l 103 799 l 103 425 z m 206 425 l 150 425 l 150 851 l 210 851 l 240 592 l 272 851 l 326 851 l 326 425 l 272 425 l 272 636 l 253 425 l 224 425 l 206 639 l 206 425 z "},"¢":{"ha":300,"x_min":36,"x_max":269,"o":"m 125 744 l 175 744 l 175 690 q 239 653 208 683 q 269 568 269 622 l 269 568 l 269 418 l 172 418 l 172 575 q 169 605 172 597 q 156 613 165 613 l 156 613 q 142 605 146 613 q 138 575 138 597 l 138 575 l 138 108 q 156 76 138 76 l 156 76 q 172 108 172 76 l 172 108 l 172 285 l 269 285 l 269 107 q 239 26 269 53 q 175 -7 208 0 l 175 -7 l 175 -82 l 125 -82 l 125 -6 q 64 28 92 1 q 36 106 36 54 l 36 106 l 36 569 q 65 651 36 621 q 125 689 93 681 l 125 689 l 125 744 z "},"µ":{"ha":314,"x_min":43,"x_max":278,"o":"m 278 0 l 181 0 l 181 53 l 172 53 q 161 8 172 19 q 140 -4 150 -3 l 140 -4 q 119 -1 128 -7 l 119 -1 l 119 -161 l 43 -161 l 43 688 l 143 688 l 143 107 q 161 72 143 72 l 161 72 q 176 107 176 72 l 176 107 l 176 688 l 278 688 l 278 0 z "},"Æ":{"ha":410,"x_min":8,"x_max":401,"o":"m 104 0 l 8 0 l 89 851 l 394 851 l 394 775 l 296 775 l 296 454 l 367 454 l 367 385 l 296 385 l 296 76 l 401 76 l 401 0 l 189 0 l 189 224 l 125 224 l 104 0 z m 129 310 l 189 310 l 189 775 l 179 775 l 129 310 z "},"æ":{"ha":432,"x_min":15,"x_max":413,"o":"m 15 118 l 15 339 q 22 397 15 368 q 46 444 28 425 q 99 463 64 463 l 99 463 q 151 443 135 463 q 168 406 167 424 l 168 406 l 176 406 l 176 594 l 133 594 l 133 501 l 36 501 l 36 568 q 65 660 36 628 q 142 692 94 692 l 142 692 q 215 664 185 692 l 215 664 q 293 693 249 693 l 293 693 q 375 662 338 693 q 413 568 413 631 l 413 568 l 413 349 l 278 349 l 278 115 q 283 95 278 100 q 294 90 289 90 l 294 90 q 306 95 300 90 q 311 115 311 100 l 311 115 l 311 285 l 413 285 l 413 121 q 375 27 413 58 q 293 -4 338 -4 l 293 -4 q 237 10 264 -4 q 193 51 210 24 l 193 51 l 182 51 q 163 14 181 33 q 108 -6 144 -6 l 108 -6 q 53 13 74 -6 q 24 61 32 32 q 15 118 15 90 l 15 118 z m 122 338 l 122 119 q 128 88 122 101 q 147 75 133 75 l 147 75 q 172 89 167 75 q 176 122 176 103 l 176 122 l 176 335 q 172 368 176 354 q 149 382 167 382 l 149 382 q 128 369 133 382 q 122 338 122 356 l 122 338 z m 279 421 l 311 421 l 311 596 l 279 596 l 279 421 z "},"÷":{"ha":414,"x_min":13,"x_max":401,"o":"m 401 421 l 13 421 l 13 483 l 401 483 l 401 421 z m 213 -7 l 213 -7 q 119 35 146 -7 q 93 124 93 76 l 93 124 l 93 244 q 122 338 93 300 q 210 376 151 376 l 210 376 q 291 338 261 376 q 321 244 321 300 l 321 244 l 321 124 q 296 30 321 67 q 213 -7 271 -7 z m 210 74 l 210 74 q 227 88 222 74 q 232 124 232 101 l 232 124 l 232 289 l 186 289 l 186 124 q 191 84 186 94 q 210 74 196 74 z m 213 532 l 213 532 q 119 574 146 532 q 93 663 93 615 l 93 663 l 93 783 q 122 877 93 839 q 210 915 151 915 l 210 915 q 291 877 261 915 q 321 783 321 839 l 321 783 l 321 663 q 296 569 321 606 q 213 532 271 532 z m 210 613 l 210 613 q 227 626 222 613 q 232 663 232 640 l 232 663 l 232 828 l 186 828 l 186 663 q 191 623 186 633 q 210 613 196 613 z "},"¤":{"ha":476,"x_min":22,"x_max":454,"o":"m 118 333 l 63 278 l 22 318 l 78 374 q 38 494 38 425 l 38 494 q 78 613 38 561 l 78 613 l 22 668 l 63 708 l 119 653 q 239 694 172 694 l 239 694 q 357 653 306 694 l 357 653 l 414 710 l 454 669 l 397 613 q 439 494 439 561 l 439 494 q 399 372 439 425 l 399 372 l 454 317 l 414 276 l 358 332 q 239 292 306 292 l 239 292 q 118 333 171 292 l 118 333 z m 239 379 l 239 379 q 318 411 285 379 q 351 494 351 443 l 351 494 q 318 574 351 540 q 239 607 285 607 l 239 607 q 158 574 192 607 q 125 494 125 540 l 125 494 q 158 411 125 443 q 239 379 192 379 z "},"£":{"ha":364,"x_min":17,"x_max":336,"o":"m 29 0 l 29 78 q 75 118 69 92 q 81 196 81 144 l 81 196 l 81 340 l 17 340 l 17 392 l 81 392 l 81 736 q 118 831 81 801 q 197 860 156 860 l 197 860 l 219 860 q 299 831 261 860 q 336 736 336 801 l 336 736 l 336 486 l 229 486 l 229 790 l 188 790 l 188 392 l 322 392 l 322 340 l 188 340 l 188 129 q 151 85 188 92 l 151 85 l 151 78 l 336 78 l 336 0 l 29 0 z "},"¥":{"ha":340,"x_min":39,"x_max":343,"o":"m 136 311 l 44 311 l 44 358 l 129 358 l 39 851 l 142 851 l 185 522 l 189 522 l 240 851 l 343 851 l 243 358 l 317 358 l 317 311 l 235 311 l 235 271 l 317 271 l 317 224 l 235 224 l 235 0 l 136 0 l 136 224 l 44 224 l 44 271 l 136 271 l 136 311 z "},"Ł":{"ha":253,"x_min":-18,"x_max":247,"o":"m 247 0 l 36 0 l 36 358 l -18 358 l 36 478 l 36 851 l 140 851 l 140 610 l 196 610 l 140 488 l 140 94 l 247 94 l 247 0 z "},"ł":{"ha":158,"x_min":-28,"x_max":186,"o":"m 129 0 l 29 0 l 29 328 l -28 328 l 29 454 l 29 851 l 129 851 l 129 579 l 186 579 l 129 454 l 129 0 z "},"Đ":{"ha":322,"x_min":-4,"x_max":292,"o":"m 292 722 l 292 126 q 254 28 292 57 q 175 0 217 0 l 175 0 l 36 0 l 36 438 l -4 438 l -4 508 l 36 508 l 36 850 l 175 850 q 254 821 217 850 q 292 722 292 792 l 292 722 z m 142 67 l 154 67 q 175 76 165 67 q 185 111 185 85 l 185 111 l 185 783 l 142 783 l 142 508 l 164 508 l 164 438 l 142 438 l 142 67 z "},"×":{"ha":367,"x_min":17,"x_max":350,"o":"m 183 443 l 60 319 l 17 363 l 140 486 l 17 610 l 60 653 l 183 529 l 307 653 l 350 610 l 226 486 l 350 363 l 307 319 l 183 443 z "},"¦":{"ha":174,"x_min":40,"x_max":133,"o":"m 133 483 l 40 483 l 40 901 l 133 901 l 133 483 z m 133 -42 l 40 -42 l 40 379 l 133 379 l 133 -42 z "},"§":{"ha":251,"x_min":33,"x_max":225,"o":"m 139 46 l 139 189 q 123 240 139 218 q 87 284 107 263 q 51 332 67 306 q 35 396 35 358 l 35 396 l 35 475 q 56 541 35 522 q 106 563 76 560 l 106 563 q 56 614 79 588 q 33 679 33 640 l 33 679 l 33 775 q 57 840 33 817 q 122 864 81 864 l 122 864 q 193 836 171 864 q 215 775 215 808 l 215 775 l 215 629 l 139 629 l 139 811 l 115 811 l 115 682 q 135 619 115 647 q 178 567 154 592 q 214 511 203 542 l 214 511 q 223 454 225 483 q 221 400 221 425 l 221 400 q 215 356 221 378 q 192 321 208 333 q 140 313 175 308 l 140 313 q 193 258 165 289 q 221 192 221 228 l 221 192 l 221 82 q 195 15 221 36 q 129 -7 169 -7 l 129 -7 q 56 20 79 -7 q 33 82 33 47 l 33 82 l 33 239 l 110 239 l 110 46 l 139 46 z m 114 479 l 114 386 q 131 356 114 356 l 131 356 q 146 386 146 356 l 146 386 l 146 479 q 131 510 146 510 l 131 510 q 114 479 114 510 l 114 479 z "},"²":{"ha":153,"x_min":8,"x_max":146,"o":"m 8 475 l 8 504 q 19 570 8 538 q 42 636 31 603 l 42 636 q 69 711 54 672 q 83 789 83 750 l 83 789 l 83 863 l 68 863 l 68 763 l 8 763 l 8 851 q 81 910 8 910 l 81 910 q 130 893 114 910 q 146 851 146 876 l 146 851 l 146 783 q 129 703 146 742 q 100 629 113 665 l 100 629 q 80 580 89 599 q 71 532 71 561 l 71 532 l 136 532 l 136 475 l 8 475 z "},"³":{"ha":169,"x_min":11,"x_max":151,"o":"m 74 621 l 74 536 q 82 517 74 517 l 82 517 q 89 536 89 517 l 89 536 l 89 649 q 85 667 89 663 q 67 671 81 671 l 67 671 l 67 725 q 85 730 81 725 q 89 747 89 735 l 89 747 l 89 864 l 74 864 l 74 764 l 11 764 l 11 851 q 31 897 11 883 q 86 910 51 910 l 86 910 q 135 892 118 910 q 151 851 151 875 l 151 851 l 151 751 q 141 717 151 732 q 100 701 131 701 l 100 701 l 100 694 q 141 681 131 694 q 151 647 151 667 l 151 647 l 151 532 q 82 474 151 474 l 82 474 q 30 490 49 474 q 11 532 11 506 l 11 532 l 11 621 l 74 621 z "},"¹":{"ha":114,"x_min":0,"x_max":90,"o":"m 90 901 l 90 475 l 28 475 l 28 825 l 0 825 l 0 872 l 28 872 l 28 901 l 90 901 z "},"º":{"ha":192,"x_min":26,"x_max":167,"o":"m 167 851 l 167 543 q 151 490 167 508 q 99 472 135 472 l 99 472 q 43 490 60 472 q 26 543 26 508 l 26 543 l 26 851 q 45 896 26 882 q 94 910 64 910 l 94 910 q 149 892 132 910 q 167 851 167 875 l 167 851 z m 85 863 l 85 542 q 96 515 85 515 l 96 515 q 106 524 104 515 q 108 542 108 532 l 108 542 l 108 863 l 85 863 z "},"¼":{"ha":331,"x_min":-4,"x_max":335,"o":"m 263 60 l 182 60 l 181 88 l 249 394 l 314 394 l 315 101 l 335 101 l 335 60 l 315 60 l 317 0 l 264 0 l 263 60 z m 86 901 l 86 475 l 24 475 l 24 825 l -4 825 l -4 872 l 24 872 l 24 901 l 86 901 z m 58 0 l 0 0 l 217 851 l 275 851 l 58 0 z m 263 264 l 228 101 l 263 101 l 263 264 z "},"½":{"ha":346,"x_min":-4,"x_max":350,"o":"m 86 901 l 86 475 l 24 475 l 24 825 l -4 825 l -4 872 l 24 872 l 24 901 l 86 901 z m 64 0 l 6 0 l 222 851 l 281 851 l 64 0 z m 213 -4 l 213 25 q 224 91 213 58 q 246 157 235 124 l 246 157 q 273 232 258 193 q 288 310 288 271 l 288 310 l 288 383 l 272 383 l 272 283 l 213 283 l 213 372 q 285 431 213 431 l 285 431 q 334 414 318 431 q 350 372 350 397 l 350 372 l 350 304 q 333 224 350 263 q 304 150 317 186 l 304 150 q 284 101 293 119 q 275 53 275 82 l 275 53 l 340 53 l 340 -4 l 213 -4 z "},"¾":{"ha":340,"x_min":-6,"x_max":340,"o":"m 85 901 l 85 475 l 22 475 l 22 825 l -6 825 l -6 872 l 22 872 l 22 901 l 85 901 z m 76 0 l 18 0 l 235 851 l 293 851 l 76 0 z m 263 142 l 263 57 q 271 38 263 38 l 271 38 q 278 57 278 38 l 278 57 l 278 169 q 274 188 278 183 q 256 192 269 192 l 256 192 l 256 246 q 274 251 269 246 q 278 268 278 256 l 278 268 l 278 385 l 263 385 l 263 285 l 200 285 l 200 372 q 220 417 200 404 q 275 431 240 431 l 275 431 q 324 413 307 431 q 340 372 340 396 l 340 372 l 340 272 q 330 238 340 253 q 289 222 319 222 l 289 222 l 289 215 q 330 201 319 215 q 340 168 340 188 l 340 168 l 340 53 q 271 -6 340 -6 l 271 -6 q 219 10 238 -6 q 200 53 200 26 l 200 53 l 200 142 l 263 142 z "},"ß":{"ha":314,"x_min":28,"x_max":290,"o":"m 129 786 l 129 0 l 28 0 l 28 728 q 62 828 28 797 q 171 860 96 860 l 171 860 q 248 842 222 860 q 282 794 274 824 q 290 728 290 764 l 290 728 l 290 592 q 274 513 290 549 q 203 478 258 478 l 203 478 l 203 464 q 274 433 257 464 q 290 357 290 401 l 290 357 l 290 92 q 285 39 290 61 q 261 4 281 17 q 196 -8 242 -8 l 196 -8 l 154 -8 l 154 65 l 190 65 l 190 344 q 186 410 190 393 q 150 428 182 428 l 150 428 l 150 514 q 186 531 182 514 q 190 597 190 549 l 190 597 l 190 786 l 129 786 z "},"Ø":{"ha":326,"x_min":29,"x_max":296,"o":"m 294 728 l 294 122 q 257 22 294 53 q 178 -8 219 -8 l 178 -8 l 149 -8 q 83 11 111 -8 l 83 11 l 81 0 l 29 0 l 43 60 q 32 122 32 86 l 32 122 l 32 728 q 69 828 32 797 q 149 860 107 860 l 149 860 l 178 860 q 231 847 206 860 l 231 847 l 244 907 l 296 907 l 272 810 q 289 774 283 794 q 294 728 294 754 l 294 728 z m 136 235 l 136 79 l 190 79 l 190 463 l 136 235 z m 136 772 l 136 450 l 190 679 l 190 772 l 136 772 z "},"ø":{"ha":289,"x_min":6,"x_max":272,"o":"m 24 119 l 24 569 q 61 662 24 631 q 144 693 99 693 l 144 693 q 214 672 185 693 l 214 672 l 221 693 l 272 693 l 253 629 q 265 568 265 604 l 265 568 l 265 121 q 228 25 265 58 q 144 -8 190 -8 l 144 -8 q 64 22 99 -8 l 64 22 l 57 0 l 6 0 l 29 78 q 24 119 24 96 l 24 119 z m 125 219 l 125 117 q 132 98 125 103 q 146 93 139 93 l 146 93 q 158 98 153 93 q 164 117 164 103 l 164 117 l 164 344 l 125 219 z m 125 596 l 125 385 l 164 510 l 164 596 l 125 596 z "},"đ":{"ha":300,"x_min":25,"x_max":326,"o":"m 106 -4 l 106 -4 q 55 15 72 -4 q 31 63 38 33 q 25 119 25 92 l 25 119 l 25 571 q 31 628 25 600 q 53 676 36 657 q 100 694 69 694 l 100 694 q 149 675 133 694 q 165 638 164 656 l 165 638 l 174 638 l 174 760 l 122 760 l 122 811 l 174 811 l 174 851 l 271 851 l 271 811 l 326 811 l 326 760 l 271 760 l 271 0 l 182 0 l 182 53 l 174 53 q 157 15 172 35 q 106 -4 142 -4 z m 153 86 l 153 86 q 167 97 164 86 q 171 122 171 107 l 171 122 l 171 568 q 151 604 171 604 l 151 604 q 136 594 139 604 q 133 568 133 583 l 133 568 l 133 122 q 138 97 133 107 q 153 86 142 86 z "},"Ã":{"ha":308,"x_min":8,"x_max":300,"o":"m 108 0 l 8 0 l 93 851 l 215 851 l 300 0 l 210 0 l 190 231 l 125 231 l 108 0 z m 104 985 l 104 918 l 44 918 l 44 983 q 65 1028 44 1014 q 107 1043 85 1043 l 107 1043 q 156 1028 135 1043 q 176 983 176 1014 l 176 983 l 176 968 q 178 961 176 965 q 186 957 181 957 l 186 957 q 194 968 194 957 l 194 968 l 194 1039 l 250 1039 l 250 974 q 231 929 250 944 q 189 914 213 914 l 189 914 q 140 929 160 914 q 121 974 121 944 l 121 974 l 121 985 l 104 985 z m 151 611 l 131 308 l 183 308 l 157 611 l 151 611 z "},"Â":{"ha":308,"x_min":8,"x_max":300,"o":"m 108 0 l 8 0 l 93 851 l 215 851 l 300 0 l 210 0 l 190 231 l 125 231 l 108 0 z m 108 915 l 39 915 l 118 1035 l 190 1035 l 269 915 l 199 915 l 153 969 l 108 915 z m 151 611 l 131 308 l 183 308 l 157 611 l 151 611 z "},"Á":{"ha":308,"x_min":8,"x_max":300,"o":"m 108 0 l 8 0 l 93 851 l 215 851 l 300 0 l 210 0 l 190 231 l 125 231 l 108 0 z m 267 1022 l 188 903 l 125 903 l 156 1022 l 267 1022 z m 151 611 l 131 308 l 183 308 l 157 611 l 151 611 z "},"À":{"ha":308,"x_min":8,"x_max":300,"o":"m 108 0 l 8 0 l 93 851 l 215 851 l 300 0 l 210 0 l 190 231 l 125 231 l 108 0 z m 181 903 l 118 903 l 39 1022 l 150 1022 l 181 903 z m 151 611 l 131 308 l 183 308 l 157 611 l 151 611 z "},"Ä":{"ha":308,"x_min":8,"x_max":300,"o":"m 108 0 l 8 0 l 93 851 l 215 851 l 300 0 l 210 0 l 190 231 l 125 231 l 108 0 z m 136 931 l 69 931 l 69 1038 l 136 1038 l 136 931 z m 235 931 l 168 931 l 168 1038 l 235 1038 l 235 931 z m 151 611 l 131 308 l 183 308 l 157 611 l 151 611 z "},"Å":{"ha":308,"x_min":8,"x_max":300,"o":"m 108 0 l 8 0 l 93 851 l 215 851 l 300 0 l 210 0 l 190 231 l 125 231 l 108 0 z m 69 975 l 69 975 q 94 1035 69 1010 q 150 1060 118 1060 l 150 1060 q 210 1035 185 1060 q 236 975 236 1011 l 236 975 q 212 918 236 943 q 151 893 188 893 l 151 893 q 94 917 119 893 q 69 975 69 942 z m 121 976 l 121 976 q 153 944 121 944 l 153 944 q 186 976 186 944 l 186 976 q 177 1001 186 992 q 153 1010 168 1010 l 153 1010 q 121 976 121 1010 z m 151 611 l 131 308 l 183 308 l 157 611 l 151 611 z "},"Ç":{"ha":313,"x_min":32,"x_max":288,"o":"m 139 772 l 139 129 q 143 86 139 100 q 163 72 147 72 l 163 72 q 178 90 175 72 q 181 129 181 107 l 181 129 l 181 329 l 288 329 l 288 122 q 259 27 288 58 q 174 -8 231 -4 l 174 -8 l 169 -26 q 217 -29 197 -19 q 242 -62 236 -39 l 242 -62 q 228 -119 250 -94 q 163 -143 207 -143 l 163 -143 l 124 -143 l 124 -90 l 149 -90 q 187 -87 168 -90 q 203 -65 206 -83 l 203 -65 q 181 -51 201 -51 l 181 -51 q 160 -57 169 -51 l 160 -57 l 135 -53 l 144 -8 q 63 28 93 -6 q 32 122 32 63 l 32 122 l 32 728 q 68 828 32 797 q 169 860 104 860 l 169 860 q 257 820 226 860 q 288 728 288 781 l 288 728 l 288 515 l 181 515 l 181 772 l 139 772 z "},"Ê":{"ha":257,"x_min":28,"x_max":258,"o":"m 247 0 l 36 0 l 36 851 l 242 851 l 242 760 l 138 760 l 138 494 l 213 494 l 213 407 l 138 407 l 138 92 l 247 92 l 247 0 z m 97 914 l 28 914 l 107 1033 l 179 1033 l 258 914 l 188 914 l 142 968 l 97 914 z "},"É":{"ha":257,"x_min":36,"x_max":256,"o":"m 247 0 l 36 0 l 36 851 l 242 851 l 242 760 l 138 760 l 138 494 l 213 494 l 213 407 l 138 407 l 138 92 l 247 92 l 247 0 z m 256 1021 l 176 901 l 114 901 l 144 1021 l 256 1021 z "},"È":{"ha":257,"x_min":28,"x_max":247,"o":"m 247 0 l 36 0 l 36 851 l 242 851 l 242 760 l 138 760 l 138 494 l 213 494 l 213 407 l 138 407 l 138 92 l 247 92 l 247 0 z m 169 901 l 107 901 l 28 1021 l 139 1021 l 169 901 z "},"Ë":{"ha":257,"x_min":36,"x_max":247,"o":"m 247 0 l 36 0 l 36 851 l 242 851 l 242 760 l 138 760 l 138 494 l 213 494 l 213 407 l 138 407 l 138 92 l 247 92 l 247 0 z m 125 929 l 58 929 l 58 1036 l 125 1036 l 125 929 z m 224 929 l 157 929 l 157 1036 l 224 1036 l 224 929 z "},"Î":{"ha":175,"x_min":-28,"x_max":203,"o":"m 139 0 l 36 0 l 36 851 l 139 851 l 139 0 z m 42 915 l -28 915 l 51 1035 l 124 1035 l 203 915 l 132 915 l 86 969 l 42 915 z "},"Í":{"ha":175,"x_min":36,"x_max":200,"o":"m 139 0 l 36 0 l 36 851 l 139 851 l 139 0 z m 200 1022 l 121 903 l 58 903 l 89 1022 l 200 1022 z "},"Ì":{"ha":175,"x_min":-28,"x_max":139,"o":"m 139 0 l 36 0 l 36 851 l 139 851 l 139 0 z m 114 903 l 51 903 l -28 1022 l 83 1022 l 114 903 z "},"Ï":{"ha":175,"x_min":3,"x_max":168,"o":"m 139 0 l 36 0 l 36 851 l 139 851 l 139 0 z m 69 931 l 3 931 l 3 1038 l 69 1038 l 69 931 z m 168 931 l 101 931 l 101 1038 l 168 1038 l 168 931 z "},"Ñ":{"ha":400,"x_min":36,"x_max":364,"o":"m 138 0 l 36 0 l 36 850 l 156 850 l 258 299 l 261 299 l 261 850 l 364 850 l 364 0 l 250 0 l 142 564 l 138 564 l 138 0 z m 149 983 l 149 917 l 89 917 l 89 982 q 109 1027 89 1013 q 151 1042 129 1042 l 151 1042 q 200 1027 179 1042 q 221 982 221 1013 l 221 982 l 221 967 q 223 960 221 964 q 231 956 225 956 l 231 956 q 239 967 239 956 l 239 967 l 239 1038 l 294 1038 l 294 972 q 276 928 294 943 q 233 913 257 913 l 233 913 q 185 928 204 913 q 165 972 165 943 l 165 972 l 165 983 l 149 983 z "},"Õ":{"ha":326,"x_min":32,"x_max":294,"o":"m 294 728 l 294 122 q 257 22 294 53 q 178 -8 219 -8 l 178 -8 l 149 -8 q 69 22 107 -8 q 32 122 32 53 l 32 122 l 32 728 q 69 828 32 797 q 149 860 107 860 l 149 860 l 178 860 q 257 828 219 860 q 294 728 294 797 l 294 728 z m 136 772 l 136 79 l 190 79 l 190 772 l 136 772 z m 118 992 l 118 925 l 58 925 l 58 990 q 78 1035 58 1021 q 121 1050 99 1050 l 121 1050 q 169 1035 149 1050 q 190 990 190 1021 l 190 990 l 190 975 q 192 968 190 972 q 200 964 194 964 l 200 964 q 208 975 208 964 l 208 975 l 208 1046 l 264 1046 l 264 981 q 245 936 264 951 q 203 921 226 921 l 203 921 q 154 936 174 921 q 135 981 135 951 l 135 981 l 135 992 l 118 992 z "},"Ô":{"ha":326,"x_min":32,"x_max":294,"o":"m 294 728 l 294 122 q 257 22 294 53 q 178 -8 219 -8 l 178 -8 l 149 -8 q 69 22 107 -8 q 32 122 32 53 l 32 122 l 32 728 q 69 828 32 797 q 149 860 107 860 l 149 860 l 178 860 q 257 828 219 860 q 294 728 294 797 l 294 728 z m 136 772 l 136 79 l 190 79 l 190 772 l 136 772 z m 122 922 l 53 922 l 132 1042 l 204 1042 l 283 922 l 213 922 l 167 976 l 122 922 z "},"Ó":{"ha":326,"x_min":32,"x_max":294,"o":"m 294 728 l 294 122 q 257 22 294 53 q 178 -8 219 -8 l 178 -8 l 149 -8 q 69 22 107 -8 q 32 122 32 53 l 32 122 l 32 728 q 69 828 32 797 q 149 860 107 860 l 149 860 l 178 860 q 257 828 219 860 q 294 728 294 797 l 294 728 z m 136 772 l 136 79 l 190 79 l 190 772 l 136 772 z m 281 1029 l 201 910 l 139 910 l 169 1029 l 281 1029 z "},"Ò":{"ha":326,"x_min":32,"x_max":294,"o":"m 294 728 l 294 122 q 257 22 294 53 q 178 -8 219 -8 l 178 -8 l 149 -8 q 69 22 107 -8 q 32 122 32 53 l 32 122 l 32 728 q 69 828 32 797 q 149 860 107 860 l 149 860 l 178 860 q 257 828 219 860 q 294 728 294 797 l 294 728 z m 136 772 l 136 79 l 190 79 l 190 772 l 136 772 z m 194 910 l 132 910 l 53 1029 l 164 1029 l 194 910 z "},"Ö":{"ha":326,"x_min":32,"x_max":294,"o":"m 294 728 l 294 122 q 257 22 294 53 q 178 -8 219 -8 l 178 -8 l 149 -8 q 69 22 107 -8 q 32 122 32 53 l 32 122 l 32 728 q 69 828 32 797 q 149 860 107 860 l 149 860 l 178 860 q 257 828 219 860 q 294 728 294 797 l 294 728 z m 136 772 l 136 79 l 190 79 l 190 772 l 136 772 z m 150 938 l 83 938 l 83 1044 l 150 1044 l 150 938 z m 249 938 l 182 938 l 182 1044 l 249 1044 l 249 938 z "},"Û":{"ha":322,"x_min":33,"x_max":289,"o":"m 140 851 l 140 128 q 144 89 140 101 q 163 76 149 76 l 163 76 q 180 89 176 76 q 183 128 183 101 l 183 128 l 183 851 l 289 851 l 289 135 q 260 29 289 67 q 161 -8 231 -8 l 161 -8 q 63 29 92 -8 q 33 135 33 67 l 33 135 l 33 851 l 140 851 z m 115 915 l 46 915 l 125 1035 l 197 1035 l 276 915 l 206 915 l 160 969 l 115 915 z "},"Ú":{"ha":322,"x_min":33,"x_max":289,"o":"m 140 851 l 140 128 q 144 89 140 101 q 163 76 149 76 l 163 76 q 180 89 176 76 q 183 128 183 101 l 183 128 l 183 851 l 289 851 l 289 135 q 260 29 289 67 q 161 -8 231 -8 l 161 -8 q 63 29 92 -8 q 33 135 33 67 l 33 135 l 33 851 l 140 851 z m 274 1022 l 194 903 l 132 903 l 163 1022 l 274 1022 z "},"Ù":{"ha":322,"x_min":33,"x_max":289,"o":"m 140 851 l 140 128 q 144 89 140 101 q 163 76 149 76 l 163 76 q 180 89 176 76 q 183 128 183 101 l 183 128 l 183 851 l 289 851 l 289 135 q 260 29 289 67 q 161 -8 231 -8 l 161 -8 q 63 29 92 -8 q 33 135 33 67 l 33 135 l 33 851 l 140 851 z m 188 903 l 125 903 l 46 1022 l 157 1022 l 188 903 z "},"Ü":{"ha":322,"x_min":33,"x_max":289,"o":"m 140 851 l 140 128 q 144 89 140 101 q 163 76 149 76 l 163 76 q 180 89 176 76 q 183 128 183 101 l 183 128 l 183 851 l 289 851 l 289 135 q 260 29 289 67 q 161 -8 231 -8 l 161 -8 q 63 29 92 -8 q 33 135 33 67 l 33 135 l 33 851 l 140 851 z m 143 931 l 76 931 l 76 1038 l 143 1038 l 143 931 z m 242 931 l 175 931 l 175 1038 l 242 1038 l 242 931 z "},"Ý":{"ha":315,"x_min":6,"x_max":310,"o":"m 201 0 l 103 0 l 103 317 l 6 851 l 108 851 l 151 522 l 156 522 l 207 851 l 310 851 l 201 317 l 201 0 z m 268 1021 l 189 901 l 126 901 l 157 1021 l 268 1021 z "},"ã":{"ha":300,"x_min":25,"x_max":271,"o":"m 106 -4 l 106 -4 q 55 15 72 -4 q 31 63 38 33 q 25 119 25 92 l 25 119 l 25 571 q 31 628 25 600 q 55 676 38 657 q 106 694 72 694 l 106 694 q 157 675 142 694 q 174 638 172 656 l 174 638 l 182 638 l 182 688 l 271 688 l 271 0 l 182 0 l 182 53 l 174 53 q 157 15 172 35 q 106 -4 142 -4 z m 153 86 l 153 86 q 167 97 164 86 q 171 124 171 107 l 171 124 l 171 567 q 151 604 171 604 l 151 604 q 136 594 139 604 q 133 569 133 585 l 133 569 l 133 121 q 153 86 133 86 z m 99 819 l 99 753 l 39 753 l 39 818 q 59 863 39 849 q 101 878 79 878 l 101 878 q 150 863 129 878 q 171 818 171 849 l 171 818 l 171 803 q 173 796 171 800 q 181 792 175 792 l 181 792 q 189 803 189 792 l 189 803 l 189 874 l 244 874 l 244 808 q 226 764 244 779 q 183 749 207 749 l 183 749 q 135 764 154 749 q 115 808 115 779 l 115 808 l 115 819 l 99 819 z "},"â":{"ha":300,"x_min":25,"x_max":271,"o":"m 106 -4 l 106 -4 q 55 15 72 -4 q 31 63 38 33 q 25 119 25 92 l 25 119 l 25 571 q 31 628 25 600 q 55 676 38 657 q 106 694 72 694 l 106 694 q 157 675 142 694 q 174 638 172 656 l 174 638 l 182 638 l 182 688 l 271 688 l 271 0 l 182 0 l 182 53 l 174 53 q 157 15 172 35 q 106 -4 142 -4 z m 153 86 l 153 86 q 167 97 164 86 q 171 124 171 107 l 171 124 l 171 567 q 151 604 171 604 l 151 604 q 136 594 139 604 q 133 569 133 585 l 133 569 l 133 121 q 153 86 133 86 z m 103 750 l 33 750 l 113 869 l 185 869 l 264 750 l 193 750 l 147 804 l 103 750 z "},"á":{"ha":300,"x_min":25,"x_max":271,"o":"m 106 -4 l 106 -4 q 55 15 72 -4 q 31 63 38 33 q 25 119 25 92 l 25 119 l 25 571 q 31 628 25 600 q 55 676 38 657 q 106 694 72 694 l 106 694 q 157 675 142 694 q 174 638 172 656 l 174 638 l 182 638 l 182 688 l 271 688 l 271 0 l 182 0 l 182 53 l 174 53 q 157 15 172 35 q 106 -4 142 -4 z m 153 86 l 153 86 q 167 97 164 86 q 171 124 171 107 l 171 124 l 171 567 q 151 604 171 604 l 151 604 q 136 594 139 604 q 133 569 133 585 l 133 569 l 133 121 q 153 86 133 86 z m 261 857 l 182 738 l 119 738 l 150 857 l 261 857 z "},"à":{"ha":300,"x_min":25,"x_max":271,"o":"m 106 -4 l 106 -4 q 55 15 72 -4 q 31 63 38 33 q 25 119 25 92 l 25 119 l 25 571 q 31 628 25 600 q 55 676 38 657 q 106 694 72 694 l 106 694 q 157 675 142 694 q 174 638 172 656 l 174 638 l 182 638 l 182 688 l 271 688 l 271 0 l 182 0 l 182 53 l 174 53 q 157 15 172 35 q 106 -4 142 -4 z m 153 86 l 153 86 q 167 97 164 86 q 171 124 171 107 l 171 124 l 171 567 q 151 604 171 604 l 151 604 q 136 594 139 604 q 133 569 133 585 l 133 569 l 133 121 q 153 86 133 86 z m 175 738 l 113 738 l 33 857 l 144 857 l 175 738 z "},"ä":{"ha":300,"x_min":25,"x_max":271,"o":"m 106 -4 l 106 -4 q 55 15 72 -4 q 31 63 38 33 q 25 119 25 92 l 25 119 l 25 571 q 31 628 25 600 q 55 676 38 657 q 106 694 72 694 l 106 694 q 157 675 142 694 q 174 638 172 656 l 174 638 l 182 638 l 182 688 l 271 688 l 271 0 l 182 0 l 182 53 l 174 53 q 157 15 172 35 q 106 -4 142 -4 z m 153 86 l 153 86 q 167 97 164 86 q 171 124 171 107 l 171 124 l 171 567 q 151 604 171 604 l 151 604 q 136 594 139 604 q 133 569 133 585 l 133 569 l 133 121 q 153 86 133 86 z m 131 765 l 64 765 l 64 872 l 131 872 l 131 765 z m 229 765 l 163 765 l 163 872 l 229 872 l 229 765 z "},"å":{"ha":300,"x_min":25,"x_max":271,"o":"m 106 -4 l 106 -4 q 55 15 72 -4 q 31 63 38 33 q 25 119 25 92 l 25 119 l 25 571 q 31 628 25 600 q 55 676 38 657 q 106 694 72 694 l 106 694 q 157 675 142 694 q 174 638 172 656 l 174 638 l 182 638 l 182 688 l 271 688 l 271 0 l 182 0 l 182 53 l 174 53 q 157 15 172 35 q 106 -4 142 -4 z m 153 86 l 153 86 q 167 97 164 86 q 171 124 171 107 l 171 124 l 171 567 q 151 604 171 604 l 151 604 q 136 594 139 604 q 133 569 133 585 l 133 569 l 133 121 q 153 86 133 86 z m 64 810 l 64 810 q 88 869 64 844 q 144 894 113 894 l 144 894 q 205 870 179 894 q 231 810 231 846 l 231 810 q 206 753 231 778 q 146 728 182 728 l 146 728 q 89 752 114 728 q 64 810 64 776 z m 115 811 l 115 811 q 147 779 115 779 l 147 779 q 181 811 181 779 l 181 811 q 172 835 181 826 q 147 844 163 844 l 147 844 q 115 811 115 844 z "},"ç":{"ha":275,"x_min":24,"x_max":257,"o":"m 125 575 l 125 108 q 143 76 125 76 l 143 76 q 160 108 160 76 l 160 108 l 160 285 l 257 285 l 257 107 q 223 23 257 50 q 153 -8 189 -4 l 153 -8 l 149 -26 q 196 -29 176 -19 q 221 -62 215 -39 l 221 -62 q 208 -119 229 -94 q 142 -143 186 -143 l 142 -143 l 103 -143 l 103 -90 l 128 -90 q 166 -87 147 -90 q 182 -65 185 -83 l 182 -65 q 160 -51 181 -51 l 160 -51 q 139 -57 149 -51 l 139 -57 l 114 -53 l 124 -7 q 56 24 89 -3 q 24 106 24 50 l 24 106 l 24 569 q 42 638 24 611 q 88 679 61 665 q 140 693 115 693 l 140 693 q 193 679 167 693 q 238 638 219 665 q 257 568 257 610 l 257 568 l 257 418 l 160 418 l 160 575 q 156 605 160 597 q 143 613 153 613 l 143 613 q 129 605 133 613 q 125 575 125 597 l 125 575 z "},"ê":{"ha":281,"x_min":24,"x_max":260,"o":"m 158 115 l 158 285 l 260 285 l 260 121 q 222 27 260 58 q 140 -4 185 -4 l 140 -4 q 60 27 97 -4 q 24 119 24 58 l 24 119 l 24 569 q 60 662 24 631 q 140 693 97 693 l 140 693 q 222 662 185 693 q 260 568 260 631 l 260 568 l 260 349 l 125 349 l 125 115 q 131 95 125 100 q 142 90 136 90 l 142 90 q 153 95 147 90 q 158 115 158 100 l 158 115 z m 126 421 l 158 421 l 158 596 l 126 596 l 126 421 z m 93 750 l 24 750 l 103 869 l 175 869 l 254 750 l 183 750 l 138 804 l 93 750 z "},"é":{"ha":281,"x_min":24,"x_max":260,"o":"m 158 115 l 158 285 l 260 285 l 260 121 q 222 27 260 58 q 140 -4 185 -4 l 140 -4 q 60 27 97 -4 q 24 119 24 58 l 24 119 l 24 569 q 60 662 24 631 q 140 693 97 693 l 140 693 q 222 662 185 693 q 260 568 260 631 l 260 568 l 260 349 l 125 349 l 125 115 q 131 95 125 100 q 142 90 136 90 l 142 90 q 153 95 147 90 q 158 115 158 100 l 158 115 z m 126 421 l 158 421 l 158 596 l 126 596 l 126 421 z m 251 857 l 172 738 l 110 738 l 140 857 l 251 857 z "},"è":{"ha":281,"x_min":24,"x_max":260,"o":"m 158 115 l 158 285 l 260 285 l 260 121 q 222 27 260 58 q 140 -4 185 -4 l 140 -4 q 60 27 97 -4 q 24 119 24 58 l 24 119 l 24 569 q 60 662 24 631 q 140 693 97 693 l 140 693 q 222 662 185 693 q 260 568 260 631 l 260 568 l 260 349 l 125 349 l 125 115 q 131 95 125 100 q 142 90 136 90 l 142 90 q 153 95 147 90 q 158 115 158 100 l 158 115 z m 126 421 l 158 421 l 158 596 l 126 596 l 126 421 z m 165 738 l 103 738 l 24 857 l 135 857 l 165 738 z "},"ë":{"ha":281,"x_min":24,"x_max":260,"o":"m 158 115 l 158 285 l 260 285 l 260 121 q 222 27 260 58 q 140 -4 185 -4 l 140 -4 q 60 27 97 -4 q 24 119 24 58 l 24 119 l 24 569 q 60 662 24 631 q 140 693 97 693 l 140 693 q 222 662 185 693 q 260 568 260 631 l 260 568 l 260 349 l 125 349 l 125 115 q 131 95 125 100 q 142 90 136 90 l 142 90 q 153 95 147 90 q 158 115 158 100 l 158 115 z m 126 421 l 158 421 l 158 596 l 126 596 l 126 421 z m 121 765 l 54 765 l 54 872 l 121 872 l 121 765 z m 219 765 l 153 765 l 153 872 l 219 872 l 219 765 z "},"ñ":{"ha":299,"x_min":29,"x_max":272,"o":"m 129 0 l 29 0 l 29 688 l 126 688 l 126 635 l 135 635 q 147 672 136 653 q 193 692 158 692 l 193 692 q 244 673 228 692 q 267 626 261 654 q 272 568 272 597 l 272 568 l 272 0 l 172 0 l 172 569 q 168 590 172 579 q 150 601 164 601 l 150 601 q 133 590 136 601 q 129 567 129 578 l 129 567 l 129 0 z m 94 819 l 94 753 l 35 753 l 35 818 q 55 863 35 849 q 97 878 75 878 l 97 878 q 146 863 125 878 q 167 818 167 849 l 167 818 l 167 803 q 169 796 167 800 q 176 792 171 792 l 176 792 q 185 803 185 792 l 185 803 l 185 874 l 240 874 l 240 808 q 222 764 240 779 q 179 749 203 749 l 179 749 q 131 764 150 749 q 111 808 111 779 l 111 808 l 111 819 l 94 819 z "},"õ":{"ha":289,"x_min":24,"x_max":265,"o":"m 24 119 l 24 569 q 61 662 24 631 q 144 693 99 693 l 144 693 q 228 662 190 693 q 265 568 265 631 l 265 568 l 265 121 q 228 25 265 58 q 144 -8 190 -8 l 144 -8 q 61 25 99 -8 q 24 119 24 58 l 24 119 z m 125 596 l 125 117 q 132 98 125 103 q 146 93 139 93 l 146 93 q 158 98 153 93 q 164 117 164 103 l 164 117 l 164 596 l 125 596 z m 94 819 l 94 753 l 35 753 l 35 818 q 55 863 35 849 q 97 878 75 878 l 97 878 q 146 863 125 878 q 167 818 167 849 l 167 818 l 167 803 q 169 796 167 800 q 176 792 171 792 l 176 792 q 185 803 185 792 l 185 803 l 185 874 l 240 874 l 240 808 q 222 764 240 779 q 179 749 203 749 l 179 749 q 131 764 150 749 q 111 808 111 779 l 111 808 l 111 819 l 94 819 z "},"ô":{"ha":289,"x_min":24,"x_max":265,"o":"m 24 119 l 24 569 q 61 662 24 631 q 144 693 99 693 l 144 693 q 228 662 190 693 q 265 568 265 631 l 265 568 l 265 121 q 228 25 265 58 q 144 -8 190 -8 l 144 -8 q 61 25 99 -8 q 24 119 24 58 l 24 119 z m 125 596 l 125 117 q 132 98 125 103 q 146 93 139 93 l 146 93 q 158 98 153 93 q 164 117 164 103 l 164 117 l 164 596 l 125 596 z m 99 750 l 29 750 l 108 869 l 181 869 l 260 750 l 189 750 l 143 804 l 99 750 z "},"ó":{"ha":289,"x_min":24,"x_max":265,"o":"m 24 119 l 24 569 q 61 662 24 631 q 144 693 99 693 l 144 693 q 228 662 190 693 q 265 568 265 631 l 265 568 l 265 121 q 228 25 265 58 q 144 -8 190 -8 l 144 -8 q 61 25 99 -8 q 24 119 24 58 l 24 119 z m 125 596 l 125 117 q 132 98 125 103 q 146 93 139 93 l 146 93 q 158 98 153 93 q 164 117 164 103 l 164 117 l 164 596 l 125 596 z m 257 857 l 178 738 l 115 738 l 146 857 l 257 857 z "},"ò":{"ha":289,"x_min":24,"x_max":265,"o":"m 24 119 l 24 569 q 61 662 24 631 q 144 693 99 693 l 144 693 q 228 662 190 693 q 265 568 265 631 l 265 568 l 265 121 q 228 25 265 58 q 144 -8 190 -8 l 144 -8 q 61 25 99 -8 q 24 119 24 58 l 24 119 z m 125 596 l 125 117 q 132 98 125 103 q 146 93 139 93 l 146 93 q 158 98 153 93 q 164 117 164 103 l 164 117 l 164 596 l 125 596 z m 171 738 l 108 738 l 29 857 l 140 857 l 171 738 z "},"ö":{"ha":289,"x_min":24,"x_max":265,"o":"m 24 119 l 24 569 q 61 662 24 631 q 144 693 99 693 l 144 693 q 228 662 190 693 q 265 568 265 631 l 265 568 l 265 121 q 228 25 265 58 q 144 -8 190 -8 l 144 -8 q 61 25 99 -8 q 24 119 24 58 l 24 119 z m 125 596 l 125 117 q 132 98 125 103 q 146 93 139 93 l 146 93 q 158 98 153 93 q 164 117 164 103 l 164 117 l 164 596 l 125 596 z m 126 765 l 60 765 l 60 872 l 126 872 l 126 765 z m 225 765 l 158 765 l 158 872 l 225 872 l 225 765 z "},"û":{"ha":299,"x_min":26,"x_max":269,"o":"m 169 688 l 269 688 l 269 0 l 172 0 l 172 53 l 164 53 q 152 15 163 35 q 106 -4 142 -4 l 106 -4 q 55 15 72 -4 q 32 63 38 33 q 26 119 26 92 l 26 119 l 26 688 l 126 688 l 126 118 q 131 97 126 108 q 149 86 135 86 l 149 86 q 166 98 163 86 q 169 121 169 110 l 169 121 l 169 688 z m 97 750 l 28 750 l 107 869 l 179 869 l 258 750 l 188 750 l 142 804 l 97 750 z "},"ú":{"ha":299,"x_min":26,"x_max":269,"o":"m 169 688 l 269 688 l 269 0 l 172 0 l 172 53 l 164 53 q 152 15 163 35 q 106 -4 142 -4 l 106 -4 q 55 15 72 -4 q 32 63 38 33 q 26 119 26 92 l 26 119 l 26 688 l 126 688 l 126 118 q 131 97 126 108 q 149 86 135 86 l 149 86 q 166 98 163 86 q 169 121 169 110 l 169 121 l 169 688 z m 256 857 l 176 738 l 114 738 l 144 857 l 256 857 z "},"ù":{"ha":299,"x_min":26,"x_max":269,"o":"m 169 688 l 269 688 l 269 0 l 172 0 l 172 53 l 164 53 q 152 15 163 35 q 106 -4 142 -4 l 106 -4 q 55 15 72 -4 q 32 63 38 33 q 26 119 26 92 l 26 119 l 26 688 l 126 688 l 126 118 q 131 97 126 108 q 149 86 135 86 l 149 86 q 166 98 163 86 q 169 121 169 110 l 169 121 l 169 688 z m 169 738 l 107 738 l 28 857 l 139 857 l 169 738 z "},"ü":{"ha":299,"x_min":26,"x_max":269,"o":"m 169 688 l 269 688 l 269 0 l 172 0 l 172 53 l 164 53 q 152 15 163 35 q 106 -4 142 -4 l 106 -4 q 55 15 72 -4 q 32 63 38 33 q 26 119 26 92 l 26 119 l 26 688 l 126 688 l 126 118 q 131 97 126 108 q 149 86 135 86 l 149 86 q 166 98 163 86 q 169 121 169 110 l 169 121 l 169 688 z m 125 765 l 58 765 l 58 872 l 125 872 l 125 765 z m 224 765 l 157 765 l 157 872 l 224 872 l 224 765 z "},"î":{"ha":151,"x_min":-36,"x_max":194,"o":"m 26 0 l 26 688 l 128 688 l 128 0 l 26 0 z m 33 750 l -36 750 l 43 869 l 115 869 l 194 750 l 124 750 l 78 804 l 33 750 z "},"ì":{"ha":151,"x_min":-36,"x_max":128,"o":"m 26 0 l 26 688 l 128 688 l 128 0 l 26 0 z m 106 738 l 43 738 l -36 857 l 75 857 l 106 738 z "},"ï":{"ha":151,"x_min":-6,"x_max":160,"o":"m 26 0 l 26 688 l 128 688 l 128 0 l 26 0 z m 61 765 l -6 765 l -6 872 l 61 872 l 61 765 z m 160 765 l 93 765 l 93 872 l 160 872 l 160 765 z "},"ý":{"ha":282,"x_min":8,"x_max":279,"o":"m 96 -225 l 69 -225 l 69 -133 l 111 -133 l 125 0 l 108 0 q 69 24 90 0 q 44 107 49 47 l 44 107 l 8 688 l 99 688 l 132 114 l 136 114 l 188 688 l 279 688 l 194 -125 q 184 -167 193 -143 q 155 -208 175 -190 q 96 -225 135 -225 l 96 -225 z m 250 857 l 171 738 l 108 738 l 139 857 l 250 857 z "},"ÿ":{"ha":282,"x_min":8,"x_max":279,"o":"m 96 -225 l 69 -225 l 69 -133 l 111 -133 l 125 0 l 108 0 q 69 24 90 0 q 44 107 49 47 l 44 107 l 8 688 l 99 688 l 132 114 l 136 114 l 188 688 l 279 688 l 194 -125 q 184 -167 193 -143 q 155 -208 175 -190 q 96 -225 135 -225 l 96 -225 z m 119 765 l 53 765 l 53 872 l 119 872 l 119 765 z m 218 765 l 151 765 l 151 872 l 218 872 l 218 765 z "},"Ă":{"ha":308,"x_min":8,"x_max":300,"o":"m 108 0 l 8 0 l 93 851 l 215 851 l 300 0 l 210 0 l 190 231 l 125 231 l 108 0 z m 64 996 l 64 1038 l 119 1038 l 119 1001 q 128 974 119 985 q 151 964 138 964 l 151 964 q 185 1001 185 964 l 185 1001 l 185 1038 l 242 1038 l 242 996 q 217 933 242 958 q 151 907 193 907 l 151 907 q 88 934 111 907 q 64 996 64 961 l 64 996 z m 151 611 l 131 308 l 183 308 l 157 611 l 151 611 z "},"Ā":{"ha":308,"x_min":8,"x_max":300,"o":"m 108 0 l 8 0 l 93 851 l 215 851 l 300 0 l 210 0 l 190 231 l 125 231 l 108 0 z m 240 939 l 65 939 l 65 1007 l 240 1007 l 240 939 z m 151 611 l 131 308 l 183 308 l 157 611 l 151 611 z "},"Ą":{"ha":308,"x_min":8,"x_max":343,"o":"m 108 0 l 8 0 l 93 851 l 215 851 l 300 0 q 275 -96 275 -46 l 275 -96 q 281 -124 275 -114 q 306 -135 288 -135 l 306 -135 q 332 -129 321 -135 q 343 -124 343 -124 l 343 -124 l 343 -204 q 242 -197 282 -224 q 201 -117 201 -171 l 201 -117 q 213 -58 201 -89 q 246 0 225 -26 l 246 0 l 210 0 l 190 231 l 125 231 l 108 0 z m 151 611 l 131 308 l 183 308 l 157 611 l 151 611 z "},"ă":{"ha":300,"x_min":25,"x_max":271,"o":"m 106 -4 l 106 -4 q 55 15 72 -4 q 31 63 38 33 q 25 119 25 92 l 25 119 l 25 571 q 31 628 25 600 q 55 676 38 657 q 106 694 72 694 l 106 694 q 157 675 142 694 q 174 638 172 656 l 174 638 l 182 638 l 182 688 l 271 688 l 271 0 l 182 0 l 182 53 l 174 53 q 157 15 172 35 q 106 -4 142 -4 z m 153 86 l 153 86 q 167 97 164 86 q 171 124 171 107 l 171 124 l 171 567 q 151 604 171 604 l 151 604 q 136 594 139 604 q 133 569 133 585 l 133 569 l 133 121 q 153 86 133 86 z m 58 831 l 58 872 l 114 872 l 114 836 q 123 809 114 819 q 146 799 132 799 l 146 799 q 179 836 179 799 l 179 836 l 179 872 l 236 872 l 236 831 q 212 767 236 793 q 146 742 188 742 l 146 742 q 82 769 106 742 q 58 831 58 796 l 58 831 z "},"ā":{"ha":300,"x_min":25,"x_max":271,"o":"m 106 -4 l 106 -4 q 55 15 72 -4 q 31 63 38 33 q 25 119 25 92 l 25 119 l 25 571 q 31 628 25 600 q 55 676 38 657 q 106 694 72 694 l 106 694 q 157 675 142 694 q 174 638 172 656 l 174 638 l 182 638 l 182 688 l 271 688 l 271 0 l 182 0 l 182 53 l 174 53 q 157 15 172 35 q 106 -4 142 -4 z m 153 86 l 153 86 q 167 97 164 86 q 171 124 171 107 l 171 124 l 171 567 q 151 604 171 604 l 151 604 q 136 594 139 604 q 133 569 133 585 l 133 569 l 133 121 q 153 86 133 86 z m 235 774 l 60 774 l 60 842 l 235 842 l 235 774 z "},"ą":{"ha":300,"x_min":25,"x_max":314,"o":"m 106 -4 l 106 -4 q 55 15 72 -4 q 31 63 38 33 q 25 119 25 92 l 25 119 l 25 571 q 31 628 25 600 q 55 676 38 657 q 106 694 72 694 l 106 694 q 157 675 142 694 q 174 638 172 656 l 174 638 l 182 638 l 182 688 l 271 688 l 271 0 q 246 -96 246 -46 l 246 -96 q 252 -124 246 -114 q 276 -135 258 -135 l 276 -135 q 303 -129 292 -135 q 314 -124 314 -124 l 314 -124 l 314 -204 q 213 -197 253 -224 q 172 -117 172 -171 l 172 -117 q 184 -58 172 -89 q 217 0 196 -26 l 217 0 l 182 0 l 182 53 l 174 53 q 157 15 172 35 q 106 -4 142 -4 z m 153 86 l 153 86 q 167 97 164 86 q 171 124 171 107 l 171 124 l 171 567 q 151 604 171 604 l 151 604 q 136 594 139 604 q 133 569 133 585 l 133 569 l 133 121 q 153 86 133 86 z "},"Ĉ":{"ha":313,"x_min":32,"x_max":288,"o":"m 139 772 l 139 129 q 143 86 139 100 q 163 72 147 72 l 163 72 q 178 90 175 72 q 181 129 181 107 l 181 129 l 181 329 l 288 329 l 288 122 q 254 23 288 54 q 156 -8 221 -8 l 156 -8 q 65 25 99 -8 q 32 122 32 58 l 32 122 l 32 728 q 68 828 32 797 q 169 860 104 860 l 169 860 q 257 820 226 860 q 288 728 288 781 l 288 728 l 288 515 l 181 515 l 181 772 l 139 772 z m 125 922 l 56 922 l 135 1042 l 207 1042 l 286 922 l 215 922 l 169 976 l 125 922 z "},"Ć":{"ha":313,"x_min":32,"x_max":288,"o":"m 139 772 l 139 129 q 143 86 139 100 q 163 72 147 72 l 163 72 q 178 90 175 72 q 181 129 181 107 l 181 129 l 181 329 l 288 329 l 288 122 q 254 23 288 54 q 156 -8 221 -8 l 156 -8 q 65 25 99 -8 q 32 122 32 58 l 32 122 l 32 728 q 68 828 32 797 q 169 860 104 860 l 169 860 q 257 820 226 860 q 288 728 288 781 l 288 728 l 288 515 l 181 515 l 181 772 l 139 772 z m 283 1029 l 204 910 l 142 910 l 172 1029 l 283 1029 z "},"Č":{"ha":313,"x_min":32,"x_max":288,"o":"m 139 772 l 139 129 q 143 86 139 100 q 163 72 147 72 l 163 72 q 178 90 175 72 q 181 129 181 107 l 181 129 l 181 329 l 288 329 l 288 122 q 254 23 288 54 q 156 -8 221 -8 l 156 -8 q 65 25 99 -8 q 32 122 32 58 l 32 122 l 32 728 q 68 828 32 797 q 169 860 104 860 l 169 860 q 257 820 226 860 q 288 728 288 781 l 288 728 l 288 515 l 181 515 l 181 772 l 139 772 z m 133 922 l 54 1042 l 124 1042 l 168 988 l 214 1042 l 285 1042 l 206 922 l 133 922 z "},"Ċ":{"ha":313,"x_min":32,"x_max":288,"o":"m 139 772 l 139 129 q 143 86 139 100 q 163 72 147 72 l 163 72 q 178 90 175 72 q 181 129 181 107 l 181 129 l 181 329 l 288 329 l 288 122 q 254 23 288 54 q 156 -8 221 -8 l 156 -8 q 65 25 99 -8 q 32 122 32 58 l 32 122 l 32 728 q 68 828 32 797 q 169 860 104 860 l 169 860 q 257 820 226 860 q 288 728 288 781 l 288 728 l 288 515 l 181 515 l 181 772 l 139 772 z m 207 911 l 132 911 l 132 1017 l 207 1017 l 207 911 z "},"ĉ":{"ha":275,"x_min":24,"x_max":257,"o":"m 125 575 l 125 108 q 143 76 125 76 l 143 76 q 160 108 160 76 l 160 108 l 160 285 l 257 285 l 257 107 q 238 40 257 65 q 193 3 219 15 q 140 -8 167 -8 l 140 -8 q 88 3 115 -8 q 42 40 61 14 q 24 106 24 65 l 24 106 l 24 569 q 42 638 24 611 q 88 679 61 665 q 140 693 115 693 l 140 693 q 193 679 167 693 q 238 638 219 665 q 257 568 257 610 l 257 568 l 257 418 l 160 418 l 160 575 q 156 605 160 597 q 143 613 153 613 l 143 613 q 129 605 133 613 q 125 575 125 597 l 125 575 z m 94 750 l 25 750 l 104 869 l 176 869 l 256 750 l 185 750 l 139 804 l 94 750 z "},"ć":{"ha":275,"x_min":24,"x_max":257,"o":"m 125 575 l 125 108 q 143 76 125 76 l 143 76 q 160 108 160 76 l 160 108 l 160 285 l 257 285 l 257 107 q 238 40 257 65 q 193 3 219 15 q 140 -8 167 -8 l 140 -8 q 88 3 115 -8 q 42 40 61 14 q 24 106 24 65 l 24 106 l 24 569 q 42 638 24 611 q 88 679 61 665 q 140 693 115 693 l 140 693 q 193 679 167 693 q 238 638 219 665 q 257 568 257 610 l 257 568 l 257 418 l 160 418 l 160 575 q 156 605 160 597 q 143 613 153 613 l 143 613 q 129 605 133 613 q 125 575 125 597 l 125 575 z m 253 857 l 174 738 l 111 738 l 142 857 l 253 857 z "},"č":{"ha":275,"x_min":24,"x_max":257,"o":"m 125 575 l 125 108 q 143 76 125 76 l 143 76 q 160 108 160 76 l 160 108 l 160 285 l 257 285 l 257 107 q 238 40 257 65 q 193 3 219 15 q 140 -8 167 -8 l 140 -8 q 88 3 115 -8 q 42 40 61 14 q 24 106 24 65 l 24 106 l 24 569 q 42 638 24 611 q 88 679 61 665 q 140 693 115 693 l 140 693 q 193 679 167 693 q 238 638 219 665 q 257 568 257 610 l 257 568 l 257 418 l 160 418 l 160 575 q 156 605 160 597 q 143 613 153 613 l 143 613 q 129 605 133 613 q 125 575 125 597 l 125 575 z m 103 750 l 24 869 l 93 869 l 138 815 l 183 869 l 254 869 l 175 750 l 103 750 z "},"ċ":{"ha":275,"x_min":24,"x_max":257,"o":"m 125 575 l 125 108 q 143 76 125 76 l 143 76 q 160 108 160 76 l 160 108 l 160 285 l 257 285 l 257 107 q 238 40 257 65 q 193 3 219 15 q 140 -8 167 -8 l 140 -8 q 88 3 115 -8 q 42 40 61 14 q 24 106 24 65 l 24 106 l 24 569 q 42 638 24 611 q 88 679 61 665 q 140 693 115 693 l 140 693 q 193 679 167 693 q 238 638 219 665 q 257 568 257 610 l 257 568 l 257 418 l 160 418 l 160 575 q 156 605 160 597 q 143 613 153 613 l 143 613 q 129 605 133 613 q 125 575 125 597 l 125 575 z m 176 739 l 101 739 l 101 844 l 176 844 l 176 739 z "},"Ď":{"ha":322,"x_min":36,"x_max":292,"o":"m 292 722 l 292 126 q 254 28 292 57 q 175 0 217 0 l 175 0 l 36 0 l 36 850 l 175 850 q 254 821 217 850 q 292 722 292 792 l 292 722 z m 142 67 l 154 67 q 175 76 165 67 q 185 111 185 85 l 185 111 l 185 783 l 142 783 l 142 67 z m 128 914 l 49 1033 l 118 1033 l 163 979 l 208 1033 l 279 1033 l 200 914 l 128 914 z "},"ď":{"ha":425,"x_min":25,"x_max":425,"o":"m 106 -4 l 106 -4 q 55 15 72 -4 q 31 63 38 33 q 25 119 25 92 l 25 119 l 25 571 q 31 628 25 600 q 53 676 36 657 q 100 694 69 694 l 100 694 q 149 675 133 694 q 165 638 164 656 l 165 638 l 174 638 l 174 851 l 271 851 l 271 0 l 182 0 l 182 53 l 174 53 q 157 15 172 35 q 106 -4 142 -4 z m 153 86 l 153 86 q 167 97 164 86 q 171 122 171 107 l 171 122 l 171 568 q 151 604 171 604 l 151 604 q 136 594 139 604 q 133 568 133 583 l 133 568 l 133 122 q 138 97 133 107 q 153 86 142 86 z m 376 649 l 342 649 l 363 731 l 325 731 l 325 851 l 425 851 l 425 731 l 376 649 z "},"Ĕ":{"ha":257,"x_min":36,"x_max":247,"o":"m 247 0 l 36 0 l 36 851 l 242 851 l 242 760 l 138 760 l 138 494 l 213 494 l 213 407 l 138 407 l 138 92 l 247 92 l 247 0 z m 53 994 l 53 1036 l 108 1036 l 108 1000 q 117 973 108 983 q 140 963 126 963 l 140 963 q 174 1000 174 963 l 174 1000 l 174 1036 l 231 1036 l 231 994 q 206 931 231 957 q 140 906 182 906 l 140 906 q 76 933 100 906 q 53 994 53 960 l 53 994 z "},"Ė":{"ha":257,"x_min":36,"x_max":247,"o":"m 247 0 l 36 0 l 36 851 l 242 851 l 242 760 l 138 760 l 138 494 l 213 494 l 213 407 l 138 407 l 138 92 l 247 92 l 247 0 z m 179 903 l 104 903 l 104 1008 l 179 1008 l 179 903 z "},"Ē":{"ha":257,"x_min":36,"x_max":247,"o":"m 247 0 l 36 0 l 36 851 l 242 851 l 242 760 l 138 760 l 138 494 l 213 494 l 213 407 l 138 407 l 138 92 l 247 92 l 247 0 z m 229 938 l 54 938 l 54 1006 l 229 1006 l 229 938 z "},"Ę":{"ha":257,"x_min":36,"x_max":290,"o":"m 193 0 l 36 0 l 36 851 l 242 851 l 242 760 l 138 760 l 138 494 l 213 494 l 213 407 l 138 407 l 138 92 l 247 92 l 247 0 q 222 -96 222 -46 l 222 -96 q 228 -124 222 -114 q 253 -135 235 -135 l 253 -135 q 279 -129 268 -135 q 290 -124 290 -124 l 290 -124 l 290 -204 q 189 -197 229 -224 q 149 -117 149 -171 l 149 -117 q 160 -58 149 -89 q 193 0 172 -26 l 193 0 z "},"ę":{"ha":281,"x_min":24,"x_max":260,"o":"m 158 115 l 158 285 l 260 285 l 260 121 q 235 42 260 72 q 178 1 210 13 l 178 1 q 158 -82 158 -40 l 158 -82 q 165 -110 158 -100 q 189 -121 171 -121 l 189 -121 q 215 -115 204 -121 q 226 -110 226 -110 l 226 -110 l 226 -190 q 125 -183 165 -210 q 85 -103 85 -157 l 85 -103 q 118 -1 85 -53 l 118 -1 q 53 36 82 6 q 24 119 24 67 l 24 119 l 24 569 q 60 662 24 631 q 140 693 97 693 l 140 693 q 222 662 185 693 q 260 568 260 631 l 260 568 l 260 349 l 125 349 l 125 115 q 131 95 125 100 q 142 90 136 90 l 142 90 q 153 95 147 90 q 158 115 158 100 l 158 115 z m 126 421 l 158 421 l 158 596 l 126 596 l 126 421 z "},"ě":{"ha":281,"x_min":22,"x_max":260,"o":"m 158 115 l 158 285 l 260 285 l 260 121 q 222 27 260 58 q 140 -4 185 -4 l 140 -4 q 60 27 97 -4 q 24 119 24 58 l 24 119 l 24 569 q 60 662 24 631 q 140 693 97 693 l 140 693 q 222 662 185 693 q 260 568 260 631 l 260 568 l 260 349 l 125 349 l 125 115 q 131 95 125 100 q 142 90 136 90 l 142 90 q 153 95 147 90 q 158 115 158 100 l 158 115 z m 126 421 l 158 421 l 158 596 l 126 596 l 126 421 z m 101 750 l 22 869 l 92 869 l 136 815 l 182 869 l 253 869 l 174 750 l 101 750 z "},"ĕ":{"ha":281,"x_min":24,"x_max":260,"o":"m 158 115 l 158 285 l 260 285 l 260 121 q 222 27 260 58 q 140 -4 185 -4 l 140 -4 q 60 27 97 -4 q 24 119 24 58 l 24 119 l 24 569 q 60 662 24 631 q 140 693 97 693 l 140 693 q 222 662 185 693 q 260 568 260 631 l 260 568 l 260 349 l 125 349 l 125 115 q 131 95 125 100 q 142 90 136 90 l 142 90 q 153 95 147 90 q 158 115 158 100 l 158 115 z m 126 421 l 158 421 l 158 596 l 126 596 l 126 421 z m 49 831 l 49 872 l 104 872 l 104 836 q 113 809 104 819 q 136 799 122 799 l 136 799 q 169 836 169 799 l 169 836 l 169 872 l 226 872 l 226 831 q 202 767 226 793 q 136 742 178 742 l 136 742 q 72 769 96 742 q 49 831 49 796 l 49 831 z "},"ė":{"ha":281,"x_min":24,"x_max":260,"o":"m 158 115 l 158 285 l 260 285 l 260 121 q 222 27 260 58 q 140 -4 185 -4 l 140 -4 q 60 27 97 -4 q 24 119 24 58 l 24 119 l 24 569 q 60 662 24 631 q 140 693 97 693 l 140 693 q 222 662 185 693 q 260 568 260 631 l 260 568 l 260 349 l 125 349 l 125 115 q 131 95 125 100 q 142 90 136 90 l 142 90 q 153 95 147 90 q 158 115 158 100 l 158 115 z m 126 421 l 158 421 l 158 596 l 126 596 l 126 421 z m 175 739 l 100 739 l 100 844 l 175 844 l 175 739 z "},"ē":{"ha":281,"x_min":24,"x_max":260,"o":"m 158 115 l 158 285 l 260 285 l 260 121 q 222 27 260 58 q 140 -4 185 -4 l 140 -4 q 60 27 97 -4 q 24 119 24 58 l 24 119 l 24 569 q 60 662 24 631 q 140 693 97 693 l 140 693 q 222 662 185 693 q 260 568 260 631 l 260 568 l 260 349 l 125 349 l 125 115 q 131 95 125 100 q 142 90 136 90 l 142 90 q 153 95 147 90 q 158 115 158 100 l 158 115 z m 126 421 l 158 421 l 158 596 l 126 596 l 126 421 z m 225 774 l 50 774 l 50 842 l 225 842 l 225 774 z "},"Ě":{"ha":257,"x_min":26,"x_max":257,"o":"m 247 0 l 36 0 l 36 851 l 242 851 l 242 760 l 138 760 l 138 494 l 213 494 l 213 407 l 138 407 l 138 92 l 247 92 l 247 0 z m 106 914 l 26 1033 l 96 1033 l 140 979 l 186 1033 l 257 1033 l 178 914 l 106 914 z "},"Ĝ":{"ha":333,"x_min":32,"x_max":307,"o":"m 139 785 l 139 118 q 150 85 139 96 q 175 75 161 75 l 175 75 q 199 85 190 75 q 208 122 208 96 l 208 122 l 208 389 l 168 389 l 168 475 l 307 475 l 307 0 l 210 0 l 210 54 l 199 54 q 173 6 189 19 q 131 -7 157 -7 l 131 -7 q 62 19 92 -7 q 32 108 32 44 l 32 108 l 32 726 q 69 827 32 796 q 149 858 107 858 l 149 858 l 171 858 q 226 844 199 858 q 273 802 254 831 q 292 726 292 774 l 292 726 l 292 565 l 185 565 l 185 785 l 139 785 z m 124 921 l 54 921 l 133 1040 l 206 1040 l 285 921 l 214 921 l 168 975 l 124 921 z "},"Ğ":{"ha":333,"x_min":32,"x_max":307,"o":"m 139 785 l 139 118 q 150 85 139 96 q 175 75 161 75 l 175 75 q 199 85 190 75 q 208 122 208 96 l 208 122 l 208 389 l 168 389 l 168 475 l 307 475 l 307 0 l 210 0 l 210 54 l 199 54 q 173 6 189 19 q 131 -7 157 -7 l 131 -7 q 62 19 92 -7 q 32 108 32 44 l 32 108 l 32 726 q 69 827 32 796 q 149 858 107 858 l 149 858 l 171 858 q 226 844 199 858 q 273 802 254 831 q 292 726 292 774 l 292 726 l 292 565 l 185 565 l 185 785 l 139 785 z m 79 1001 l 79 1043 l 135 1043 l 135 1007 q 144 980 135 990 q 167 969 153 969 l 167 969 q 200 1007 200 969 l 200 1007 l 200 1043 l 257 1043 l 257 1001 q 233 938 257 964 q 167 913 208 913 l 167 913 q 103 940 126 913 q 79 1001 79 967 l 79 1001 z "},"Ġ":{"ha":333,"x_min":32,"x_max":307,"o":"m 139 785 l 139 118 q 150 85 139 96 q 175 75 161 75 l 175 75 q 199 85 190 75 q 208 122 208 96 l 208 122 l 208 389 l 168 389 l 168 475 l 307 475 l 307 0 l 210 0 l 210 54 l 199 54 q 173 6 189 19 q 131 -7 157 -7 l 131 -7 q 62 19 92 -7 q 32 108 32 44 l 32 108 l 32 726 q 69 827 32 796 q 149 858 107 858 l 149 858 l 171 858 q 226 844 199 858 q 273 802 254 831 q 292 726 292 774 l 292 726 l 292 565 l 185 565 l 185 785 l 139 785 z m 206 910 l 131 910 l 131 1015 l 206 1015 l 206 910 z "},"ĝ":{"ha":281,"x_min":22,"x_max":258,"o":"m 22 197 l 22 568 q 26 626 22 597 q 44 673 29 654 q 90 692 58 692 l 90 692 q 142 672 124 692 q 161 635 160 653 l 161 635 l 169 635 l 169 688 l 257 688 l 257 197 q 236 108 257 136 q 171 72 215 79 l 171 72 l 171 39 q 233 12 213 35 q 254 -47 254 -11 l 254 -47 q 229 -111 254 -86 q 151 -136 204 -136 l 151 -136 l 133 -136 q 56 -111 82 -136 q 29 -46 29 -86 l 29 -46 q 111 39 29 28 l 111 39 l 111 71 q 44 108 67 78 q 22 197 22 138 l 22 197 z m 140 164 l 140 164 q 154 174 151 164 q 157 206 157 183 l 157 206 l 157 572 q 155 592 157 583 q 142 601 153 601 l 142 601 q 126 593 131 601 q 122 575 122 585 l 122 575 l 122 203 q 126 174 122 183 q 140 164 129 164 z m 143 -68 l 143 -68 q 162 -65 153 -68 q 171 -49 171 -61 l 171 -49 q 162 -32 171 -36 q 144 -28 153 -28 l 144 -28 l 142 -28 q 124 -32 133 -28 q 114 -49 114 -36 l 114 -49 q 124 -65 114 -61 q 143 -68 133 -68 z m 97 750 l 28 750 l 107 869 l 179 869 l 258 750 l 188 750 l 142 804 l 97 750 z "},"ğ":{"ha":281,"x_min":22,"x_max":257,"o":"m 22 197 l 22 568 q 26 626 22 597 q 44 673 29 654 q 90 692 58 692 l 90 692 q 142 672 124 692 q 161 635 160 653 l 161 635 l 169 635 l 169 688 l 257 688 l 257 197 q 236 108 257 136 q 171 72 215 79 l 171 72 l 171 39 q 233 12 213 35 q 254 -47 254 -11 l 254 -47 q 229 -111 254 -86 q 151 -136 204 -136 l 151 -136 l 133 -136 q 56 -111 82 -136 q 29 -46 29 -86 l 29 -46 q 111 39 29 28 l 111 39 l 111 71 q 44 108 67 78 q 22 197 22 138 l 22 197 z m 140 164 l 140 164 q 154 174 151 164 q 157 206 157 183 l 157 206 l 157 572 q 155 592 157 583 q 142 601 153 601 l 142 601 q 126 593 131 601 q 122 575 122 585 l 122 575 l 122 203 q 126 174 122 183 q 140 164 129 164 z m 143 -68 l 143 -68 q 162 -65 153 -68 q 171 -49 171 -61 l 171 -49 q 162 -32 171 -36 q 144 -28 153 -28 l 144 -28 l 142 -28 q 124 -32 133 -28 q 114 -49 114 -36 l 114 -49 q 124 -65 114 -61 q 143 -68 133 -68 z m 53 831 l 53 872 l 108 872 l 108 836 q 117 809 108 819 q 140 799 126 799 l 140 799 q 174 836 174 799 l 174 836 l 174 872 l 231 872 l 231 831 q 206 767 231 793 q 140 742 182 742 l 140 742 q 76 769 100 742 q 53 831 53 796 l 53 831 z "},"ġ":{"ha":281,"x_min":22,"x_max":257,"o":"m 22 197 l 22 568 q 26 626 22 597 q 44 673 29 654 q 90 692 58 692 l 90 692 q 142 672 124 692 q 161 635 160 653 l 161 635 l 169 635 l 169 688 l 257 688 l 257 197 q 236 108 257 136 q 171 72 215 79 l 171 72 l 171 39 q 233 12 213 35 q 254 -47 254 -11 l 254 -47 q 229 -111 254 -86 q 151 -136 204 -136 l 151 -136 l 133 -136 q 56 -111 82 -136 q 29 -46 29 -86 l 29 -46 q 111 39 29 28 l 111 39 l 111 71 q 44 108 67 78 q 22 197 22 138 l 22 197 z m 140 164 l 140 164 q 154 174 151 164 q 157 206 157 183 l 157 206 l 157 572 q 155 592 157 583 q 142 601 153 601 l 142 601 q 126 593 131 601 q 122 575 122 585 l 122 575 l 122 203 q 126 174 122 183 q 140 164 129 164 z m 143 -68 l 143 -68 q 162 -65 153 -68 q 171 -49 171 -61 l 171 -49 q 162 -32 171 -36 q 144 -28 153 -28 l 144 -28 l 142 -28 q 124 -32 133 -28 q 114 -49 114 -36 l 114 -49 q 124 -65 114 -61 q 143 -68 133 -68 z m 179 739 l 104 739 l 104 844 l 179 844 l 179 739 z "},"ģ":{"ha":281,"x_min":22,"x_max":257,"o":"m 22 197 l 22 568 q 26 626 22 597 q 44 673 29 654 q 90 692 58 692 l 90 692 q 142 672 124 692 q 161 635 160 653 l 161 635 l 169 635 l 169 688 l 257 688 l 257 197 q 236 108 257 136 q 171 72 215 79 l 171 72 l 171 39 q 233 12 213 35 q 254 -47 254 -11 l 254 -47 q 229 -111 254 -86 q 151 -136 204 -136 l 151 -136 l 133 -136 q 56 -111 82 -136 q 29 -46 29 -86 l 29 -46 q 111 39 29 28 l 111 39 l 111 71 q 44 108 67 78 q 22 197 22 138 l 22 197 z m 140 164 l 140 164 q 154 174 151 164 q 157 206 157 183 l 157 206 l 157 572 q 155 592 157 583 q 142 601 153 601 l 142 601 q 126 593 131 601 q 122 575 122 585 l 122 575 l 122 203 q 126 174 122 183 q 140 164 129 164 z m 143 -68 l 143 -68 q 162 -65 153 -68 q 171 -49 171 -61 l 171 -49 q 162 -32 171 -36 q 144 -28 153 -28 l 144 -28 l 142 -28 q 124 -32 133 -28 q 114 -49 114 -36 l 114 -49 q 124 -65 114 -61 q 143 -68 133 -68 z m 142 949 l 175 949 l 154 867 l 190 867 l 190 733 l 96 733 l 96 867 l 142 949 z "},"Ĥ":{"ha":336,"x_min":36,"x_max":300,"o":"m 142 0 l 36 0 l 36 851 l 142 851 l 142 514 l 193 514 l 193 851 l 300 851 l 300 0 l 193 0 l 193 428 l 142 428 l 142 0 z m 124 914 l 54 914 l 133 1033 l 206 1033 l 285 914 l 214 914 l 168 968 l 124 914 z "},"ĥ":{"ha":290,"x_min":29,"x_max":372,"o":"m 129 0 l 29 0 l 29 851 l 126 851 l 126 635 l 135 635 q 147 672 136 653 q 190 692 157 692 l 190 692 q 238 673 222 692 q 259 626 254 654 q 264 568 264 597 l 264 568 l 264 0 l 164 0 l 164 569 q 161 590 164 579 q 147 601 158 601 l 147 601 q 133 590 136 601 q 129 567 129 578 l 129 567 l 129 0 z m 211 789 l 142 789 l 221 908 l 293 908 l 372 789 l 301 789 l 256 843 l 211 789 z "},"Ħ":{"ha":336,"x_min":25,"x_max":371,"o":"m 142 0 l 36 0 l 36 608 l 25 608 l 25 657 l 36 657 l 36 851 l 142 851 l 142 657 l 193 657 l 193 851 l 300 851 l 300 657 l 371 657 l 371 608 l 300 608 l 300 0 l 193 0 l 193 428 l 142 428 l 142 0 z m 142 608 l 142 514 l 193 514 l 193 608 l 142 608 z "},"ħ":{"ha":290,"x_min":-1,"x_max":264,"o":"m 129 0 l 29 0 l 29 764 l -1 764 l -1 814 l 29 814 l 29 851 l 126 851 l 126 814 l 194 814 l 194 764 l 126 764 l 126 635 l 135 635 q 147 672 136 653 q 190 692 157 692 l 190 692 q 238 673 222 692 q 259 626 254 654 q 264 568 264 597 l 264 568 l 264 0 l 164 0 l 164 569 q 161 590 164 579 q 147 601 158 601 l 147 601 q 133 590 136 601 q 129 567 129 578 l 129 567 l 129 0 z "},"Ĩ":{"ha":175,"x_min":-22,"x_max":183,"o":"m 139 0 l 36 0 l 36 851 l 139 851 l 139 0 z m 38 985 l 38 918 l -22 918 l -22 983 q -2 1028 -22 1014 q 40 1043 18 1043 l 40 1043 q 89 1028 68 1043 q 110 983 110 1014 l 110 983 l 110 968 q 112 961 110 965 q 119 957 114 957 l 119 957 q 128 968 128 957 l 128 968 l 128 1039 l 183 1039 l 183 974 q 165 929 183 944 q 122 914 146 914 l 122 914 q 74 929 93 914 q 54 974 54 944 l 54 974 l 54 985 l 38 985 z "},"Ĭ":{"ha":175,"x_min":-3,"x_max":175,"o":"m 139 0 l 36 0 l 36 851 l 139 851 l 139 0 z m -3 996 l -3 1038 l 53 1038 l 53 1001 q 62 974 53 985 q 85 964 71 964 l 85 964 q 118 1001 118 964 l 118 1001 l 118 1038 l 175 1038 l 175 996 q 151 933 175 958 q 85 907 126 907 l 85 907 q 21 934 44 907 q -3 996 -3 961 l -3 996 z "},"İ":{"ha":175,"x_min":36,"x_max":139,"o":"m 139 0 l 36 0 l 36 851 l 139 851 l 139 0 z m 124 904 l 49 904 l 49 1010 l 124 1010 l 124 904 z "},"Ī":{"ha":175,"x_min":-1,"x_max":174,"o":"m 139 0 l 36 0 l 36 851 l 139 851 l 139 0 z m 174 939 l -1 939 l -1 1007 l 174 1007 l 174 939 z "},"Į":{"ha":175,"x_min":36,"x_max":182,"o":"m 85 0 l 36 0 l 36 851 l 139 851 l 139 0 q 114 -96 114 -46 l 114 -96 q 120 -124 114 -114 q 144 -135 126 -135 l 144 -135 q 171 -129 160 -135 q 182 -124 182 -124 l 182 -124 l 182 -204 q 81 -197 121 -224 q 40 -117 40 -171 l 40 -117 q 52 -58 40 -89 q 85 0 64 -26 l 85 0 z "},"į":{"ha":151,"x_min":15,"x_max":157,"o":"m 26 0 l 26 688 l 128 688 l 128 0 l 114 0 q 89 -96 89 -46 l 89 -96 q 95 -124 89 -114 q 119 -135 101 -135 l 119 -135 q 146 -129 135 -135 q 157 -124 157 -124 l 157 -124 l 157 -204 q 56 -197 96 -224 q 15 -117 15 -171 l 15 -117 q 27 -58 15 -89 q 60 0 39 -26 l 60 0 l 26 0 z m 115 739 l 40 739 l 40 844 l 115 844 l 115 739 z "},"ĩ":{"ha":151,"x_min":-31,"x_max":175,"o":"m 26 0 l 26 688 l 128 688 l 128 0 l 26 0 z m 29 819 l 29 753 l -31 753 l -31 818 q -10 863 -31 849 q 32 878 10 878 l 32 878 q 81 863 60 878 q 101 818 101 849 l 101 818 l 101 803 q 103 796 101 800 q 111 792 106 792 l 111 792 q 119 803 119 792 l 119 803 l 119 874 l 175 874 l 175 808 q 156 764 175 779 q 114 749 138 749 l 114 749 q 65 764 85 749 q 46 808 46 779 l 46 808 l 46 819 l 29 819 z "},"ĭ":{"ha":151,"x_min":-11,"x_max":167,"o":"m 26 0 l 26 688 l 128 688 l 128 0 l 26 0 z m -11 831 l -11 872 l 44 872 l 44 836 q 53 809 44 819 q 76 799 63 799 l 76 799 q 110 836 110 799 l 110 836 l 110 872 l 167 872 l 167 831 q 142 767 167 793 q 76 742 118 742 l 76 742 q 13 769 36 742 q -11 831 -11 796 l -11 831 z "},"ī":{"ha":151,"x_min":-10,"x_max":165,"o":"m 26 0 l 26 688 l 128 688 l 128 0 l 26 0 z m 165 774 l -10 774 l -10 842 l 165 842 l 165 774 z "},"Ĵ":{"ha":301,"x_min":17,"x_max":332,"o":"m 124 408 l 124 121 q 144 72 124 72 l 144 72 q 159 88 157 72 q 161 121 161 103 l 161 121 l 161 851 l 268 851 l 268 122 q 236 27 268 63 q 143 -8 204 -8 l 143 -8 q 49 31 81 -8 q 17 122 17 69 l 17 122 l 17 408 l 124 408 z m 171 915 l 101 915 l 181 1035 l 253 1035 l 332 915 l 261 915 l 215 969 l 171 915 z "},"ĵ":{"ha":157,"x_min":-35,"x_max":196,"o":"m -18 -219 l -18 -118 l 29 -118 l 29 688 l 128 688 l 128 -97 q 97 -197 128 -174 q 10 -219 67 -219 l 10 -219 l -18 -219 z m 35 750 l -35 750 l 44 869 l 117 869 l 196 750 l 125 750 l 79 804 l 35 750 z "},"ķ":{"ha":328,"x_min":29,"x_max":328,"o":"m 129 0 l 29 0 l 29 907 l 129 907 l 129 513 l 149 513 l 203 689 l 313 689 l 267 556 q 234 485 251 511 q 181 463 217 460 l 181 463 l 181 449 q 236 431 217 450 q 260 389 256 411 l 260 389 l 328 0 l 221 0 l 150 406 l 129 406 l 129 0 z m 169 -276 l 136 -276 l 157 -194 l 121 -194 l 121 -61 l 215 -61 l 215 -194 l 169 -276 z "},"Ĺ":{"ha":253,"x_min":36,"x_max":247,"o":"m 247 0 l 36 0 l 36 851 l 140 851 l 140 94 l 247 94 l 247 0 z m 203 1017 l 124 897 l 61 897 l 92 1017 l 203 1017 z "},"Ŀ":{"ha":253,"x_min":36,"x_max":272,"o":"m 247 0 l 36 0 l 36 851 l 140 851 l 140 94 l 247 94 l 247 0 z m 272 381 l 164 381 l 164 528 l 272 528 l 272 381 z "},"ŀ":{"ha":257,"x_min":29,"x_max":254,"o":"m 129 0 l 29 0 l 29 851 l 129 851 l 129 0 z m 254 408 l 146 408 l 146 556 l 254 556 l 254 408 z "},"ľ":{"ha":290,"x_min":29,"x_max":290,"o":"m 129 0 l 29 0 l 29 851 l 129 851 l 129 0 z m 242 649 l 207 649 l 228 731 l 190 731 l 190 851 l 290 851 l 290 731 l 242 649 z "},"Ő":{"ha":326,"x_min":32,"x_max":339,"o":"m 294 728 l 294 122 q 257 22 294 53 q 178 -8 219 -8 l 178 -8 l 149 -8 q 69 22 107 -8 q 32 122 32 53 l 32 122 l 32 728 q 69 828 32 797 q 149 860 107 860 l 149 860 l 178 860 q 257 828 219 860 q 294 728 294 797 l 294 728 z m 136 772 l 136 79 l 190 79 l 190 772 l 136 772 z m 214 1042 l 135 922 l 86 922 l 117 1042 l 214 1042 z m 339 1042 l 232 922 l 183 922 l 242 1042 l 339 1042 z "},"ő":{"ha":289,"x_min":24,"x_max":315,"o":"m 24 119 l 24 569 q 61 662 24 631 q 144 693 99 693 l 144 693 q 228 662 190 693 q 265 568 265 631 l 265 568 l 265 121 q 228 25 265 58 q 144 -8 190 -8 l 144 -8 q 61 25 99 -8 q 24 119 24 58 l 24 119 z m 125 596 l 125 117 q 132 98 125 103 q 146 93 139 93 l 146 93 q 158 98 153 93 q 164 117 164 103 l 164 117 l 164 596 l 125 596 z m 190 869 l 111 750 l 63 750 l 93 869 l 190 869 z m 315 869 l 208 750 l 160 750 l 218 869 l 315 869 z "},"Ŕ":{"ha":322,"x_min":36,"x_max":292,"o":"m 36 851 l 175 851 q 260 821 229 851 q 292 733 292 790 l 292 733 l 292 564 q 215 469 292 469 l 215 469 l 215 456 l 218 456 q 292 376 292 456 l 292 376 l 292 0 l 185 0 l 185 357 q 147 418 185 418 l 147 418 l 139 418 l 139 0 l 36 0 l 36 851 z m 139 493 l 147 493 q 185 556 185 493 l 185 556 l 185 771 l 139 771 l 139 493 z m 274 1076 l 194 957 l 132 957 l 163 1076 l 274 1076 z "},"ŕ":{"ha":239,"x_min":29,"x_max":235,"o":"m 131 0 l 29 0 l 29 688 l 131 688 l 131 646 l 139 646 q 163 680 140 672 q 213 688 185 688 l 213 688 l 213 611 l 131 611 l 131 0 z m 235 857 l 156 738 l 93 738 l 124 857 l 235 857 z "},"Ř":{"ha":322,"x_min":36,"x_max":292,"o":"m 36 851 l 175 851 q 260 821 229 851 q 292 733 292 790 l 292 733 l 292 564 q 215 469 292 469 l 215 469 l 215 456 l 218 456 q 292 376 292 456 l 292 376 l 292 0 l 185 0 l 185 357 q 147 418 185 418 l 147 418 l 139 418 l 139 0 l 36 0 l 36 851 z m 139 493 l 147 493 q 185 556 185 493 l 185 556 l 185 771 l 139 771 l 139 493 z m 124 969 l 44 1089 l 114 1089 l 158 1035 l 204 1089 l 275 1089 l 196 969 l 124 969 z "},"ŗ":{"ha":239,"x_min":29,"x_max":213,"o":"m 131 0 l 29 0 l 29 688 l 131 688 l 131 646 l 139 646 q 163 680 140 672 q 213 688 185 688 l 213 688 l 213 611 l 131 611 l 131 0 z "},"ř":{"ha":239,"x_min":-131,"x_max":213,"o":"m 131 0 l 29 0 l 29 688 l 131 688 l 131 646 l 139 646 q 163 680 140 672 q 213 688 185 688 l 213 688 l 213 611 l 131 611 l 131 0 z m -51 750 l -131 869 l -61 869 l -17 815 l 29 869 l 100 869 l 21 750 l -51 750 z "},"Ŝ":{"ha":303,"x_min":25,"x_max":281,"o":"m 131 324 l 131 107 q 135 81 131 93 q 153 68 139 68 l 153 68 q 170 81 167 68 q 174 107 174 93 l 174 107 l 174 247 q 158 328 174 294 q 122 390 143 363 q 78 444 100 417 q 40 507 56 472 q 25 590 25 542 l 25 590 l 25 735 q 58 826 25 794 q 147 858 92 858 l 147 858 q 243 821 213 858 q 274 735 274 783 l 274 735 l 274 525 l 171 525 l 171 776 l 132 776 l 132 601 q 147 520 132 554 q 185 458 163 486 q 228 403 207 431 q 265 341 250 375 q 281 260 281 307 l 281 260 l 281 114 q 249 21 281 50 q 156 -8 217 -8 l 156 -8 q 54 27 83 -8 q 25 114 25 63 l 25 114 l 25 324 l 131 324 z m 113 969 l 43 969 l 122 1089 l 194 1089 l 274 969 l 203 969 l 157 1024 l 113 969 z "},"Ś":{"ha":303,"x_min":25,"x_max":281,"o":"m 131 324 l 131 107 q 135 81 131 93 q 153 68 139 68 l 153 68 q 170 81 167 68 q 174 107 174 93 l 174 107 l 174 247 q 158 328 174 294 q 122 390 143 363 q 78 444 100 417 q 40 507 56 472 q 25 590 25 542 l 25 590 l 25 735 q 58 826 25 794 q 147 858 92 858 l 147 858 q 243 821 213 858 q 274 735 274 783 l 274 735 l 274 525 l 171 525 l 171 776 l 132 776 l 132 601 q 147 520 132 554 q 185 458 163 486 q 228 403 207 431 q 265 341 250 375 q 281 260 281 307 l 281 260 l 281 114 q 249 21 281 50 q 156 -8 217 -8 l 156 -8 q 54 27 83 -8 q 25 114 25 63 l 25 114 l 25 324 l 131 324 z m 271 1076 l 192 957 l 129 957 l 160 1076 l 271 1076 z "},"Ş":{"ha":303,"x_min":25,"x_max":281,"o":"m 131 324 l 131 107 q 135 81 131 93 q 153 68 139 68 l 153 68 q 170 81 167 68 q 174 107 174 93 l 174 107 l 174 247 q 158 328 174 294 q 122 390 143 363 q 78 444 100 417 q 40 507 56 472 q 25 590 25 542 l 25 590 l 25 735 q 58 826 25 794 q 147 858 92 858 l 147 858 q 243 821 213 858 q 274 735 274 783 l 274 735 l 274 525 l 171 525 l 171 776 l 132 776 l 132 601 q 147 520 132 554 q 185 458 163 486 q 228 403 207 431 q 265 341 250 375 q 281 260 281 307 l 281 260 l 281 114 q 252 24 281 54 q 167 -8 224 -6 l 167 -8 l 163 -26 q 210 -29 190 -19 q 235 -62 229 -39 l 235 -62 q 222 -119 243 -94 q 156 -143 200 -143 l 156 -143 l 117 -143 l 117 -90 l 142 -90 q 180 -87 161 -90 q 196 -65 199 -83 l 196 -65 q 174 -51 194 -51 l 174 -51 q 153 -57 163 -51 l 153 -57 l 128 -53 l 138 -8 q 50 32 75 -3 q 25 114 25 67 l 25 114 l 25 324 l 131 324 z "},"Ű":{"ha":322,"x_min":33,"x_max":332,"o":"m 140 851 l 140 128 q 144 89 140 101 q 163 76 149 76 l 163 76 q 180 89 176 76 q 183 128 183 101 l 183 128 l 183 851 l 289 851 l 289 135 q 260 29 289 67 q 161 -8 231 -8 l 161 -8 q 63 29 92 -8 q 33 135 33 67 l 33 135 l 33 851 l 140 851 z m 207 1035 l 128 915 l 79 915 l 110 1035 l 207 1035 z m 332 1035 l 225 915 l 176 915 l 235 1035 l 332 1035 z "},"ų":{"ha":299,"x_min":26,"x_max":297,"o":"m 169 688 l 269 688 l 269 0 l 254 0 q 229 -96 229 -46 l 229 -96 q 235 -124 229 -114 q 260 -135 242 -135 l 260 -135 q 286 -129 275 -135 q 297 -124 297 -124 l 297 -124 l 297 -204 q 196 -197 236 -224 q 156 -117 156 -171 l 156 -117 q 167 -58 156 -89 q 200 0 179 -26 l 200 0 l 172 0 l 172 53 l 164 53 q 152 15 163 35 q 106 -4 142 -4 l 106 -4 q 55 15 72 -4 q 32 63 38 33 q 26 119 26 92 l 26 119 l 26 688 l 126 688 l 126 118 q 131 97 126 108 q 149 86 135 86 l 149 86 q 166 98 163 86 q 169 121 169 110 l 169 121 l 169 688 z "},"ű":{"ha":299,"x_min":26,"x_max":314,"o":"m 169 688 l 269 688 l 269 0 l 172 0 l 172 53 l 164 53 q 152 15 163 35 q 106 -4 142 -4 l 106 -4 q 55 15 72 -4 q 32 63 38 33 q 26 119 26 92 l 26 119 l 26 688 l 126 688 l 126 118 q 131 97 126 108 q 149 86 135 86 l 149 86 q 166 98 163 86 q 169 121 169 110 l 169 121 l 169 688 z m 189 869 l 110 750 l 61 750 l 92 869 l 189 869 z m 314 869 l 207 750 l 158 750 l 217 869 l 314 869 z "},"Ŵ":{"ha":474,"x_min":10,"x_max":464,"o":"m 236 543 l 175 0 l 78 0 l 10 850 l 113 850 l 150 368 l 154 368 l 203 850 l 268 850 l 325 368 l 329 368 l 367 850 l 464 850 l 396 0 l 306 0 l 240 543 l 236 543 z m 192 914 l 122 914 l 201 1033 l 274 1033 l 353 914 l 282 914 l 236 968 l 192 914 z "},"ŵ":{"ha":444,"x_min":4,"x_max":442,"o":"m 164 0 l 69 0 l 4 688 l 100 688 l 132 228 l 138 228 l 185 688 l 261 688 l 308 228 l 314 228 l 346 688 l 442 688 l 376 0 l 282 0 l 225 403 l 221 403 l 164 0 z m 172 750 l 103 750 l 182 869 l 254 869 l 333 750 l 263 750 l 217 804 l 172 750 z "},"Ŷ":{"ha":315,"x_min":6,"x_max":310,"o":"m 201 0 l 103 0 l 103 317 l 6 851 l 108 851 l 151 522 l 156 522 l 207 851 l 310 851 l 201 317 l 201 0 z m 110 914 l 40 914 l 119 1033 l 192 1033 l 271 914 l 200 914 l 154 968 l 110 914 z "},"ŷ":{"ha":282,"x_min":8,"x_max":279,"o":"m 96 -225 l 69 -225 l 69 -133 l 111 -133 l 125 0 l 108 0 q 69 24 90 0 q 44 107 49 47 l 44 107 l 8 688 l 99 688 l 132 114 l 136 114 l 188 688 l 279 688 l 194 -125 q 184 -167 193 -143 q 155 -208 175 -190 q 96 -225 135 -225 l 96 -225 z m 92 750 l 22 750 l 101 869 l 174 869 l 253 750 l 182 750 l 136 804 l 92 750 z "},"Ÿ":{"ha":315,"x_min":6,"x_max":310,"o":"m 201 0 l 103 0 l 103 317 l 6 851 l 108 851 l 151 522 l 156 522 l 207 851 l 310 851 l 201 317 l 201 0 z m 138 929 l 71 929 l 71 1036 l 138 1036 l 138 929 z m 236 929 l 169 929 l 169 1036 l 236 1036 l 236 929 z "},"Ź":{"ha":282,"x_min":10,"x_max":274,"o":"m 274 0 l 10 0 l 10 85 l 153 764 l 35 764 l 35 851 l 261 851 l 261 767 l 117 88 l 274 88 l 274 0 z m 256 1021 l 176 901 l 114 901 l 144 1021 l 256 1021 z "},"Ž":{"ha":282,"x_min":10,"x_max":274,"o":"m 274 0 l 10 0 l 10 85 l 153 764 l 35 764 l 35 851 l 261 851 l 261 767 l 117 88 l 274 88 l 274 0 z m 106 914 l 26 1033 l 96 1033 l 140 979 l 186 1033 l 257 1033 l 178 914 l 106 914 z "},"Ż":{"ha":282,"x_min":10,"x_max":274,"o":"m 274 0 l 10 0 l 10 85 l 153 764 l 35 764 l 35 851 l 261 851 l 261 767 l 117 88 l 274 88 l 274 0 z m 179 903 l 104 903 l 104 1008 l 179 1008 l 179 903 z "},"ź":{"ha":240,"x_min":4,"x_max":233,"o":"m 233 0 l 4 0 l 4 88 l 133 604 l 19 604 l 19 688 l 231 688 l 231 600 l 103 83 l 233 83 l 233 0 z m 233 857 l 154 738 l 92 738 l 122 857 l 233 857 z "},"ž":{"ha":240,"x_min":4,"x_max":235,"o":"m 233 0 l 4 0 l 4 88 l 133 604 l 19 604 l 19 688 l 231 688 l 231 600 l 103 83 l 233 83 l 233 0 z m 83 750 l 4 869 l 74 869 l 118 815 l 164 869 l 235 869 l 156 750 l 83 750 z "},"ż":{"ha":240,"x_min":4,"x_max":233,"o":"m 233 0 l 4 0 l 4 88 l 133 604 l 19 604 l 19 688 l 231 688 l 231 600 l 103 83 l 233 83 l 233 0 z m 157 739 l 82 739 l 82 844 l 157 844 l 157 739 z "},"Š":{"ha":303,"x_min":25,"x_max":281,"o":"m 131 324 l 131 107 q 135 81 131 93 q 153 68 139 68 l 153 68 q 170 81 167 68 q 174 107 174 93 l 174 107 l 174 247 q 158 328 174 294 q 122 390 143 363 q 78 444 100 417 q 40 507 56 472 q 25 590 25 542 l 25 590 l 25 735 q 58 826 25 794 q 147 858 92 858 l 147 858 q 243 821 213 858 q 274 735 274 783 l 274 735 l 274 525 l 171 525 l 171 776 l 132 776 l 132 601 q 147 520 132 554 q 185 458 163 486 q 228 403 207 431 q 265 341 250 375 q 281 260 281 307 l 281 260 l 281 114 q 249 21 281 50 q 156 -8 217 -8 l 156 -8 q 54 27 83 -8 q 25 114 25 63 l 25 114 l 25 324 l 131 324 z m 121 969 l 42 1089 l 111 1089 l 156 1035 l 201 1089 l 272 1089 l 193 969 l 121 969 z "},"š":{"ha":269,"x_min":17,"x_max":253,"o":"m 151 83 l 151 183 q 131 258 151 225 q 85 324 111 292 q 40 396 60 357 q 19 485 19 435 l 19 485 l 19 568 q 56 662 19 631 q 136 693 93 693 l 136 693 q 217 662 181 693 q 253 568 253 631 l 253 568 l 253 418 l 156 418 l 156 613 l 121 613 l 121 508 q 141 427 121 461 q 187 362 161 393 q 233 293 213 331 q 253 201 253 256 l 253 201 l 253 118 q 215 24 251 57 q 135 -8 179 -8 l 135 -8 q 54 25 92 -8 q 17 121 17 58 l 17 121 l 17 285 l 114 285 l 114 83 l 151 83 z m 99 750 l 19 869 l 89 869 l 133 815 l 179 869 l 250 869 l 171 750 l 99 750 z "},"Ţ":{"ha":272,"x_min":6,"x_max":267,"o":"m 122 0 l 83 0 l 83 761 l 6 761 l 6 851 l 267 851 l 267 761 l 190 761 l 190 0 l 153 0 l 146 -26 q 193 -29 174 -19 q 218 -62 213 -39 l 218 -62 q 205 -119 226 -94 q 139 -143 183 -143 l 139 -143 l 100 -143 l 100 -90 l 125 -90 q 163 -87 144 -90 q 179 -65 182 -83 l 179 -65 q 157 -51 178 -51 l 157 -51 q 136 -57 146 -51 l 136 -57 l 111 -53 l 122 0 z "},"Ť":{"ha":272,"x_min":6,"x_max":267,"o":"m 190 0 l 83 0 l 83 761 l 6 761 l 6 851 l 267 851 l 267 761 l 190 761 l 190 0 z m 100 915 l 21 1035 l 90 1035 l 135 981 l 181 1035 l 251 1035 l 172 915 l 100 915 z "},"ť":{"ha":186,"x_min":-1,"x_max":299,"o":"m 38 119 l 38 611 l -1 611 l -1 688 l 38 688 l 38 851 l 138 851 l 138 688 l 183 688 l 183 611 l 139 611 l 139 72 l 183 72 l 183 -3 l 156 -3 q 68 20 99 -3 q 38 119 38 43 l 38 119 z m 250 703 l 215 703 l 236 785 l 199 785 l 199 906 l 299 906 l 299 785 l 250 703 z "},"ŧ":{"ha":194,"x_min":1,"x_max":188,"o":"m 40 458 l 13 458 l 13 507 l 40 507 l 40 611 l 1 611 l 1 688 l 40 688 l 40 851 l 140 851 l 140 688 l 186 688 l 186 611 l 142 611 l 142 507 l 188 507 l 188 458 l 142 458 l 142 72 l 186 72 l 186 -3 l 158 -3 q 71 20 101 -3 q 40 119 40 43 l 40 119 l 40 458 z "},"Ŧ":{"ha":272,"x_min":6,"x_max":267,"o":"m 190 0 l 83 0 l 83 542 l 31 542 l 31 594 l 83 594 l 83 761 l 6 761 l 6 851 l 267 851 l 267 761 l 190 761 l 190 594 l 243 594 l 243 542 l 190 542 l 190 0 z "},"ţ":{"ha":186,"x_min":-1,"x_max":221,"o":"m 38 119 l 38 611 l -1 611 l -1 688 l 38 688 l 38 851 l 138 851 l 138 688 l 183 688 l 183 611 l 139 611 l 139 72 l 183 72 l 183 -3 l 156 -3 l 146 -3 l 140 -26 q 188 -29 168 -19 q 213 -62 207 -39 l 213 -62 q 199 -119 221 -94 q 133 -143 178 -143 l 133 -143 l 94 -143 l 94 -90 l 119 -90 q 158 -87 139 -90 q 174 -65 176 -83 l 174 -65 q 151 -51 172 -51 l 151 -51 q 131 -57 140 -51 l 131 -57 l 106 -53 l 117 0 q 58 31 79 6 q 38 119 38 57 l 38 119 z "},"Ũ":{"ha":322,"x_min":33,"x_max":289,"o":"m 140 851 l 140 128 q 144 89 140 101 q 163 76 149 76 l 163 76 q 180 89 176 76 q 183 128 183 101 l 183 128 l 183 851 l 289 851 l 289 135 q 260 29 289 67 q 161 -8 231 -8 l 161 -8 q 63 29 92 -8 q 33 135 33 67 l 33 135 l 33 851 l 140 851 z m 111 985 l 111 918 l 51 918 l 51 983 q 72 1028 51 1014 q 114 1043 92 1043 l 114 1043 q 163 1028 142 1043 q 183 983 183 1014 l 183 983 l 183 968 q 185 961 183 965 q 193 957 188 957 l 193 957 q 201 968 201 957 l 201 968 l 201 1039 l 257 1039 l 257 974 q 238 929 257 944 q 196 914 219 914 l 196 914 q 147 929 167 914 q 128 974 128 944 l 128 974 l 128 985 l 111 985 z "},"Ů":{"ha":322,"x_min":33,"x_max":289,"o":"m 140 851 l 140 128 q 144 89 140 101 q 163 76 149 76 l 163 76 q 180 89 176 76 q 183 128 183 101 l 183 128 l 183 851 l 289 851 l 289 135 q 260 29 289 67 q 161 -8 231 -8 l 161 -8 q 63 29 92 -8 q 33 135 33 67 l 33 135 l 33 851 l 140 851 z m 76 975 l 76 975 q 101 1035 76 1010 q 157 1060 125 1060 l 157 1060 q 217 1035 192 1060 q 243 975 243 1011 l 243 975 q 219 918 243 943 q 158 893 194 893 l 158 893 q 101 917 126 893 q 76 975 76 942 z m 128 976 l 128 976 q 160 944 128 944 l 160 944 q 193 976 193 944 l 193 976 q 184 1001 193 992 q 160 1010 175 1010 l 160 1010 q 128 976 128 1010 z "},"Ŭ":{"ha":322,"x_min":33,"x_max":289,"o":"m 140 851 l 140 128 q 144 89 140 101 q 163 76 149 76 l 163 76 q 180 89 176 76 q 183 128 183 101 l 183 128 l 183 851 l 289 851 l 289 135 q 260 29 289 67 q 161 -8 231 -8 l 161 -8 q 63 29 92 -8 q 33 135 33 67 l 33 135 l 33 851 l 140 851 z m 71 996 l 71 1038 l 126 1038 l 126 1001 q 135 974 126 985 q 158 964 144 964 l 158 964 q 192 1001 192 964 l 192 1001 l 192 1038 l 249 1038 l 249 996 q 224 933 249 958 q 158 907 200 907 l 158 907 q 94 934 118 907 q 71 996 71 961 l 71 996 z "},"Ū":{"ha":322,"x_min":33,"x_max":289,"o":"m 140 851 l 140 128 q 144 89 140 101 q 163 76 149 76 l 163 76 q 180 89 176 76 q 183 128 183 101 l 183 128 l 183 851 l 289 851 l 289 135 q 260 29 289 67 q 161 -8 231 -8 l 161 -8 q 63 29 92 -8 q 33 135 33 67 l 33 135 l 33 851 l 140 851 z m 247 939 l 72 939 l 72 1007 l 247 1007 l 247 939 z "},"ũ":{"ha":299,"x_min":26,"x_max":269,"o":"m 169 688 l 269 688 l 269 0 l 172 0 l 172 53 l 164 53 q 152 15 163 35 q 106 -4 142 -4 l 106 -4 q 55 15 72 -4 q 32 63 38 33 q 26 119 26 92 l 26 119 l 26 688 l 126 688 l 126 118 q 131 97 126 108 q 149 86 135 86 l 149 86 q 166 98 163 86 q 169 121 169 110 l 169 121 l 169 688 z m 93 819 l 93 753 l 33 753 l 33 818 q 53 863 33 849 q 96 878 74 878 l 96 878 q 144 863 124 878 q 165 818 165 849 l 165 818 l 165 803 q 167 796 165 800 q 175 792 169 792 l 175 792 q 183 803 183 792 l 183 803 l 183 874 l 239 874 l 239 808 q 220 764 239 779 q 178 749 201 749 l 178 749 q 129 764 149 749 q 110 808 110 779 l 110 808 l 110 819 l 93 819 z "},"ů":{"ha":299,"x_min":26,"x_max":269,"o":"m 169 688 l 269 688 l 269 0 l 172 0 l 172 53 l 164 53 q 152 15 163 35 q 106 -4 142 -4 l 106 -4 q 55 15 72 -4 q 32 63 38 33 q 26 119 26 92 l 26 119 l 26 688 l 126 688 l 126 118 q 131 97 126 108 q 149 86 135 86 l 149 86 q 166 98 163 86 q 169 121 169 110 l 169 121 l 169 688 z m 58 810 l 58 810 q 83 869 58 844 q 139 894 107 894 l 139 894 q 199 870 174 894 q 225 810 225 846 l 225 810 q 201 753 225 778 q 140 728 176 728 l 140 728 q 83 752 108 728 q 58 810 58 776 z m 110 811 l 110 811 q 142 779 110 779 l 142 779 q 175 811 175 779 l 175 811 q 166 835 175 826 q 142 844 157 844 l 142 844 q 110 811 110 844 z "},"ŭ":{"ha":299,"x_min":26,"x_max":269,"o":"m 169 688 l 269 688 l 269 0 l 172 0 l 172 53 l 164 53 q 152 15 163 35 q 106 -4 142 -4 l 106 -4 q 55 15 72 -4 q 32 63 38 33 q 26 119 26 92 l 26 119 l 26 688 l 126 688 l 126 118 q 131 97 126 108 q 149 86 135 86 l 149 86 q 166 98 163 86 q 169 121 169 110 l 169 121 l 169 688 z m 53 831 l 53 872 l 108 872 l 108 836 q 117 809 108 819 q 140 799 126 799 l 140 799 q 174 836 174 799 l 174 836 l 174 872 l 231 872 l 231 831 q 206 767 231 793 q 140 742 182 742 l 140 742 q 76 769 100 742 q 53 831 53 796 l 53 831 z "},"ū":{"ha":299,"x_min":26,"x_max":269,"o":"m 169 688 l 269 688 l 269 0 l 172 0 l 172 53 l 164 53 q 152 15 163 35 q 106 -4 142 -4 l 106 -4 q 55 15 72 -4 q 32 63 38 33 q 26 119 26 92 l 26 119 l 26 688 l 126 688 l 126 118 q 131 97 126 108 q 149 86 135 86 l 149 86 q 166 98 163 86 q 169 121 169 110 l 169 121 l 169 688 z m 229 774 l 54 774 l 54 842 l 229 842 l 229 774 z "},"Ń":{"ha":400,"x_min":36,"x_max":364,"o":"m 138 0 l 36 0 l 36 850 l 156 850 l 258 299 l 261 299 l 261 850 l 364 850 l 364 0 l 250 0 l 142 564 l 138 564 l 138 0 z m 311 1021 l 232 901 l 169 901 l 200 1021 l 311 1021 z "},"Ň":{"ha":400,"x_min":36,"x_max":364,"o":"m 138 0 l 36 0 l 36 850 l 156 850 l 258 299 l 261 299 l 261 850 l 364 850 l 364 0 l 250 0 l 142 564 l 138 564 l 138 0 z m 161 914 l 82 1033 l 151 1033 l 196 979 l 242 1033 l 313 1033 l 233 914 l 161 914 z "},"ņ":{"ha":299,"x_min":29,"x_max":272,"o":"m 129 0 l 29 0 l 29 688 l 126 688 l 126 635 l 135 635 q 147 672 136 653 q 193 692 158 692 l 193 692 q 244 673 228 692 q 267 626 261 654 q 272 568 272 597 l 272 568 l 272 0 l 172 0 l 172 569 q 168 590 172 579 q 150 601 164 601 l 150 601 q 133 590 136 601 q 129 567 129 578 l 129 567 l 129 0 z "},"ń":{"ha":299,"x_min":29,"x_max":272,"o":"m 129 0 l 29 0 l 29 688 l 126 688 l 126 635 l 135 635 q 147 672 136 653 q 193 692 158 692 l 193 692 q 244 673 228 692 q 267 626 261 654 q 272 568 272 597 l 272 568 l 272 0 l 172 0 l 172 569 q 168 590 172 579 q 150 601 164 601 l 150 601 q 133 590 136 601 q 129 567 129 578 l 129 567 l 129 0 z m 257 857 l 178 738 l 115 738 l 146 857 l 257 857 z "},"ň":{"ha":299,"x_min":28,"x_max":272,"o":"m 129 0 l 29 0 l 29 688 l 126 688 l 126 635 l 135 635 q 147 672 136 653 q 193 692 158 692 l 193 692 q 244 673 228 692 q 267 626 261 654 q 272 568 272 597 l 272 568 l 272 0 l 172 0 l 172 569 q 168 590 172 579 q 150 601 164 601 l 150 601 q 133 590 136 601 q 129 567 129 578 l 129 567 l 129 0 z m 107 750 l 28 869 l 97 869 l 142 815 l 188 869 l 258 869 l 179 750 l 107 750 z "},"Ŋ":{"ha":403,"x_min":36,"x_max":368,"o":"m 138 0 l 36 0 l 36 850 l 156 850 l 258 299 l 261 299 l 261 850 l 364 850 l 364 3 l 368 0 q 344 -110 368 -75 q 264 -146 321 -146 l 264 -146 l 236 -146 l 236 -62 l 268 -62 l 268 0 l 250 0 l 142 564 l 138 564 l 138 0 z "},"ŋ":{"ha":292,"x_min":29,"x_max":264,"o":"m 160 -146 l 132 -146 l 132 -62 l 164 -62 l 164 569 q 161 590 164 579 q 147 601 158 601 l 147 601 q 133 590 136 601 q 129 567 129 578 l 129 567 l 129 0 l 29 0 l 29 688 l 126 688 l 126 635 l 135 635 q 147 672 136 653 q 194 692 158 692 l 194 692 q 240 673 225 692 q 259 626 254 654 q 264 568 264 597 l 264 568 l 264 0 q 240 -110 264 -75 q 160 -146 217 -146 l 160 -146 z "},"Ŏ":{"ha":326,"x_min":32,"x_max":294,"o":"m 294 728 l 294 122 q 257 22 294 53 q 178 -8 219 -8 l 178 -8 l 149 -8 q 69 22 107 -8 q 32 122 32 53 l 32 122 l 32 728 q 69 828 32 797 q 149 860 107 860 l 149 860 l 178 860 q 257 828 219 860 q 294 728 294 797 l 294 728 z m 136 772 l 136 79 l 190 79 l 190 772 l 136 772 z m 78 1003 l 78 1044 l 133 1044 l 133 1008 q 142 981 133 992 q 165 971 151 971 l 165 971 q 199 1008 199 971 l 199 1008 l 199 1044 l 256 1044 l 256 1003 q 231 940 256 965 q 165 914 207 914 l 165 914 q 101 941 125 914 q 78 1003 78 968 l 78 1003 z "},"Ō":{"ha":326,"x_min":32,"x_max":294,"o":"m 294 728 l 294 122 q 257 22 294 53 q 178 -8 219 -8 l 178 -8 l 149 -8 q 69 22 107 -8 q 32 122 32 53 l 32 122 l 32 728 q 69 828 32 797 q 149 860 107 860 l 149 860 l 178 860 q 257 828 219 860 q 294 728 294 797 l 294 728 z m 136 772 l 136 79 l 190 79 l 190 772 l 136 772 z m 254 946 l 79 946 l 79 1014 l 254 1014 l 254 946 z "},"ŏ":{"ha":289,"x_min":24,"x_max":265,"o":"m 24 119 l 24 569 q 61 662 24 631 q 144 693 99 693 l 144 693 q 228 662 190 693 q 265 568 265 631 l 265 568 l 265 121 q 228 25 265 58 q 144 -8 190 -8 l 144 -8 q 61 25 99 -8 q 24 119 24 58 l 24 119 z m 125 596 l 125 117 q 132 98 125 103 q 146 93 139 93 l 146 93 q 158 98 153 93 q 164 117 164 103 l 164 117 l 164 596 l 125 596 z m 54 831 l 54 872 l 110 872 l 110 836 q 119 809 110 819 q 142 799 128 799 l 142 799 q 175 836 175 799 l 175 836 l 175 872 l 232 872 l 232 831 q 208 767 232 793 q 142 742 183 742 l 142 742 q 78 769 101 742 q 54 831 54 796 l 54 831 z "},"ō":{"ha":289,"x_min":24,"x_max":265,"o":"m 24 119 l 24 569 q 61 662 24 631 q 144 693 99 693 l 144 693 q 228 662 190 693 q 265 568 265 631 l 265 568 l 265 121 q 228 25 265 58 q 144 -8 190 -8 l 144 -8 q 61 25 99 -8 q 24 119 24 58 l 24 119 z m 125 596 l 125 117 q 132 98 125 103 q 146 93 139 93 l 146 93 q 158 98 153 93 q 164 117 164 103 l 164 117 l 164 596 l 125 596 z m 231 774 l 56 774 l 56 842 l 231 842 l 231 774 z "},"ŉ":{"ha":351,"x_min":0,"x_max":325,"o":"m 49 636 l 15 636 l 36 718 l 0 718 l 0 851 l 94 851 l 94 718 l 49 636 z m 182 0 l 82 0 l 82 688 l 179 688 l 179 635 l 188 635 q 200 672 189 653 q 246 692 211 692 l 246 692 q 297 673 281 692 q 319 626 314 654 q 325 568 325 597 l 325 568 l 325 0 l 225 0 l 225 569 q 221 590 225 579 q 203 601 217 601 l 203 601 q 185 590 189 601 q 182 567 182 578 l 182 567 l 182 0 z "},"Ĳ":{"ha":476,"x_min":36,"x_max":443,"o":"m 139 0 l 36 0 l 36 851 l 139 851 l 139 0 z m 299 408 l 299 121 q 319 72 299 72 l 319 72 q 334 88 332 72 q 336 121 336 103 l 336 121 l 336 851 l 443 851 l 443 122 q 411 27 443 63 q 318 -8 379 -8 l 318 -8 q 224 31 256 -8 q 192 122 192 69 l 192 122 l 192 408 l 299 408 z "},"ĸ":{"ha":363,"x_min":29,"x_max":365,"o":"m 131 0 l 29 0 l 29 688 l 131 688 l 131 410 l 138 410 l 257 688 l 365 688 l 250 422 q 219 376 240 400 q 150 351 199 351 l 150 351 l 150 343 q 219 330 201 343 q 242 299 236 317 l 242 299 l 360 0 l 253 0 l 140 282 l 131 282 l 131 0 z "},"Ð":{"ha":322,"x_min":-4,"x_max":292,"o":"m 292 722 l 292 126 q 254 28 292 57 q 175 0 217 0 l 175 0 l 36 0 l 36 438 l -4 438 l -4 508 l 36 508 l 36 850 l 175 850 q 254 821 217 850 q 292 722 292 792 l 292 722 z m 142 67 l 154 67 q 175 76 165 67 q 185 111 185 85 l 185 111 l 185 783 l 142 783 l 142 508 l 164 508 l 164 438 l 142 438 l 142 67 z "},"Ľ":{"ha":253,"x_min":36,"x_max":258,"o":"m 247 0 l 36 0 l 36 851 l 140 851 l 140 94 l 247 94 l 247 0 z m 214 649 l 179 649 l 200 731 l 164 731 l 164 851 l 258 851 l 258 731 l 214 649 z "},"Ų":{"ha":322,"x_min":33,"x_max":289,"o":"m 140 851 l 140 128 q 144 89 140 101 q 163 76 149 76 l 163 76 q 180 89 176 76 q 183 128 183 101 l 183 128 l 183 851 l 289 851 l 289 135 q 267 39 289 75 q 194 -6 244 3 l 194 -6 q 179 -82 179 -44 l 179 -82 q 185 -110 179 -100 q 210 -121 192 -121 l 210 -121 q 236 -115 225 -121 q 247 -110 247 -110 l 247 -110 l 247 -190 q 146 -183 186 -210 q 106 -103 106 -157 l 106 -103 q 136 -7 106 -56 l 136 -7 q 57 36 81 0 q 33 135 33 72 l 33 135 l 33 851 l 140 851 z "},"ð":{"ha":300,"x_min":25,"x_max":326,"o":"m 106 -4 l 106 -4 q 55 15 72 -4 q 31 63 38 33 q 25 119 25 92 l 25 119 l 25 571 q 31 628 25 600 q 53 676 36 657 q 100 694 69 694 l 100 694 q 149 675 133 694 q 165 638 164 656 l 165 638 l 174 638 l 174 760 l 122 760 l 122 811 l 174 811 l 174 851 l 271 851 l 271 811 l 326 811 l 326 760 l 271 760 l 271 0 l 182 0 l 182 53 l 174 53 q 157 15 172 35 q 106 -4 142 -4 z m 153 86 l 153 86 q 167 97 164 86 q 171 122 171 107 l 171 122 l 171 568 q 151 604 171 604 l 151 604 q 136 594 139 604 q 133 568 133 583 l 133 568 l 133 122 q 138 97 133 107 q 153 86 142 86 z "},"í":{"ha":151,"x_min":26,"x_max":192,"o":"m 26 0 l 26 688 l 128 688 l 128 0 l 26 0 z m 192 857 l 113 738 l 50 738 l 81 857 l 192 857 z "},"ś":{"ha":269,"x_min":17,"x_max":253,"o":"m 151 83 l 151 183 q 131 258 151 225 q 85 324 111 292 q 40 396 60 357 q 19 485 19 435 l 19 485 l 19 568 q 56 662 19 631 q 136 693 93 693 l 136 693 q 217 662 181 693 q 253 568 253 631 l 253 568 l 253 418 l 156 418 l 156 613 l 121 613 l 121 508 q 141 427 121 461 q 187 362 161 393 q 233 293 213 331 q 253 201 253 256 l 253 201 l 253 118 q 215 24 251 57 q 135 -8 179 -8 l 135 -8 q 54 25 92 -8 q 17 121 17 58 l 17 121 l 17 285 l 114 285 l 114 83 l 151 83 z m 249 857 l 169 738 l 107 738 l 138 857 l 249 857 z "},"ŝ":{"ha":269,"x_min":17,"x_max":253,"o":"m 151 83 l 151 183 q 131 258 151 225 q 85 324 111 292 q 40 396 60 357 q 19 485 19 435 l 19 485 l 19 568 q 56 662 19 631 q 136 693 93 693 l 136 693 q 217 662 181 693 q 253 568 253 631 l 253 568 l 253 418 l 156 418 l 156 613 l 121 613 l 121 508 q 141 427 121 461 q 187 362 161 393 q 233 293 213 331 q 253 201 253 256 l 253 201 l 253 118 q 215 24 251 57 q 135 -8 179 -8 l 135 -8 q 54 25 92 -8 q 17 121 17 58 l 17 121 l 17 285 l 114 285 l 114 83 l 151 83 z m 90 750 l 21 750 l 100 869 l 172 869 l 251 750 l 181 750 l 135 804 l 90 750 z "},"ş":{"ha":269,"x_min":17,"x_max":253,"o":"m 151 83 l 151 183 q 131 258 151 225 q 85 324 111 292 q 40 396 60 357 q 19 485 19 435 l 19 485 l 19 568 q 56 662 19 631 q 136 693 93 693 l 136 693 q 217 662 181 693 q 253 568 253 631 l 253 568 l 253 418 l 156 418 l 156 613 l 121 613 l 121 508 q 141 427 121 461 q 187 362 161 393 q 233 293 213 331 q 253 201 253 256 l 253 201 l 253 118 q 221 30 251 61 q 150 -7 190 -1 l 150 -7 l 144 -26 q 192 -29 172 -19 q 217 -62 211 -39 l 217 -62 q 203 -119 225 -94 q 138 -143 182 -143 l 138 -143 l 99 -143 l 99 -90 l 124 -90 q 162 -87 143 -90 q 178 -65 181 -83 l 178 -65 q 156 -51 176 -51 l 156 -51 q 135 -57 144 -51 l 135 -57 l 110 -53 l 119 -7 q 49 31 81 -1 q 17 121 17 64 l 17 121 l 17 285 l 114 285 l 114 83 l 151 83 z "},"−":{"ha":365,"x_min":43,"x_max":322,"o":"m 322 414 l 43 414 l 43 488 l 322 488 l 322 414 z "},"ﬂ":{"ha":335,"x_min":-1,"x_max":306,"o":"m 139 611 l 139 -3 l 38 -3 l 38 611 l -1 611 l -1 688 l 38 688 l 38 729 q 68 829 38 807 q 156 851 99 851 l 156 851 l 178 851 l 178 739 l 139 739 l 139 688 l 178 688 l 178 611 l 139 611 z m 306 0 l 206 0 l 206 851 l 306 851 l 306 0 z "},"J":{"ha":301,"x_min":17,"x_max":268,"o":"m 124 408 l 124 121 q 144 72 124 72 l 144 72 q 159 88 157 72 q 161 121 161 103 l 161 121 l 161 851 l 268 851 l 268 122 q 236 27 268 63 q 143 -8 204 -8 l 143 -8 q 49 31 81 -8 q 17 122 17 69 l 17 122 l 17 408 l 124 408 z "},"H":{"ha":336,"x_min":36,"x_max":300,"o":"m 142 0 l 36 0 l 36 851 l 142 851 l 142 514 l 193 514 l 193 851 l 300 851 l 300 0 l 193 0 l 193 428 l 142 428 l 142 0 z "},"I":{"ha":175,"x_min":36,"x_max":139,"o":"m 139 0 l 36 0 l 36 851 l 139 851 l 139 0 z "},"ẞ":{"ha":325,"x_min":36,"x_max":304,"o":"m 204 507 l 210 507 q 281 476 264 507 q 299 400 299 444 l 299 400 l 299 100 q 294 47 299 69 q 269 13 289 25 q 204 0 250 0 l 204 0 l 163 0 l 163 88 l 199 88 l 199 401 q 188 462 199 447 q 151 476 178 476 l 151 476 l 138 476 l 138 0 l 36 0 l 36 853 l 304 853 l 304 767 l 204 507 z m 138 792 l 138 542 l 219 792 l 138 792 z "},"⅔":{"ha":351,"x_min":0,"x_max":351,"o":"m 0 481 l 0 510 q 11 576 0 543 q 33 642 22 608 l 33 642 q 60 717 46 678 q 75 794 75 756 l 75 794 l 75 868 l 60 868 l 60 768 l 0 768 l 0 857 q 72 915 0 915 l 72 915 q 122 899 106 915 q 138 857 138 882 l 138 857 l 138 789 q 121 709 138 747 q 92 635 104 671 l 92 635 q 72 585 81 604 q 63 538 63 567 l 63 538 l 128 538 l 128 481 l 0 481 z m 111 0 l 53 0 l 269 851 l 328 851 l 111 0 z m 274 142 l 274 57 q 282 38 274 38 l 282 38 q 289 57 289 38 l 289 57 l 289 169 q 285 188 289 183 q 267 192 281 192 l 267 192 l 267 246 q 285 251 281 246 q 289 268 289 256 l 289 268 l 289 385 l 274 385 l 274 285 l 211 285 l 211 372 q 231 417 211 404 q 286 431 251 431 l 286 431 q 335 413 318 431 q 351 372 351 396 l 351 372 l 351 272 q 341 238 351 253 q 300 222 331 222 l 300 222 l 300 215 q 341 201 331 215 q 351 168 351 188 l 351 168 l 351 53 q 282 -6 351 -6 l 282 -6 q 230 10 249 -6 q 211 53 211 26 l 211 53 l 211 142 l 274 142 z "},"ª":{"ha":238,"x_min":18,"x_max":211,"o":"m 211 772 l 211 369 l 132 369 l 132 407 l 126 407 q 115 381 125 394 q 82 367 106 367 l 82 367 q 30 395 42 367 q 18 454 18 424 l 18 454 l 18 610 q 29 669 18 640 q 78 697 40 697 l 78 697 q 115 683 106 697 q 126 657 125 669 l 126 657 l 131 657 l 131 785 q 119 814 131 814 l 119 814 q 108 785 108 814 l 108 785 l 108 725 l 32 725 l 32 772 q 56 837 32 814 q 121 860 81 860 l 121 860 q 186 837 161 860 q 211 772 211 814 l 211 772 z m 131 456 l 131 611 q 126 631 129 622 q 114 639 122 639 l 114 639 q 101 624 104 639 q 97 594 97 610 l 97 594 l 97 469 q 101 440 97 456 q 114 425 104 425 l 114 425 q 128 438 125 425 q 131 456 131 450 l 131 456 z "},"₿":{"ha":332,"x_min":42,"x_max":297,"o":"m 92 0 l 42 0 l 42 851 l 92 851 l 92 928 l 139 928 l 139 851 l 172 851 l 172 928 l 219 928 l 219 847 q 297 719 297 826 l 297 719 l 297 536 q 221 449 297 449 l 221 449 l 221 435 q 297 349 297 429 l 297 349 l 297 124 q 219 4 297 24 l 219 4 l 219 -65 l 172 -65 l 172 0 l 139 0 l 139 -65 l 92 -65 l 92 0 z m 144 472 l 153 472 q 190 542 190 472 l 190 542 l 190 785 l 144 785 l 144 472 z m 144 413 l 144 67 l 190 67 l 190 343 q 153 413 190 413 l 153 413 l 144 413 z "},"☺":{"ha":621,"x_min":38,"x_max":583,"o":"m 453 0 l 168 0 q 76 34 115 0 q 38 158 38 68 l 38 158 l 38 689 q 76 815 38 781 q 168 849 115 849 l 168 849 l 453 849 q 544 815 506 849 q 583 689 583 781 l 583 689 l 583 158 q 544 34 583 68 q 453 0 506 0 l 453 0 z m 135 768 l 135 81 l 486 81 l 486 768 l 135 768 z m 243 543 l 163 543 l 163 676 l 243 676 l 243 543 z m 458 543 l 378 543 l 378 676 l 458 676 l 458 543 z m 411 378 l 214 378 q 176 388 192 378 q 160 422 160 397 l 160 422 l 160 488 l 210 488 l 210 429 l 414 429 l 414 488 l 464 488 l 464 422 q 449 388 464 397 q 411 378 433 378 l 411 378 z "},"В":{"ha":321,"x_min":36,"x_max":292,"o":"m 175 0 l 36 0 l 36 851 l 175 851 q 292 719 292 851 l 292 719 l 292 536 q 215 449 292 449 l 215 449 l 215 435 q 292 349 292 429 l 292 349 l 292 124 q 175 0 292 0 l 175 0 z m 139 472 l 147 472 q 185 542 185 472 l 185 542 l 185 785 l 139 785 l 139 472 z m 139 413 l 139 67 l 185 67 l 185 343 q 147 413 185 413 l 147 413 l 139 413 z "},"А":{"ha":308,"x_min":8,"x_max":300,"o":"m 108 0 l 8 0 l 93 851 l 215 851 l 300 0 l 210 0 l 190 231 l 125 231 l 108 0 z m 151 611 l 131 308 l 183 308 l 157 611 l 151 611 z "},"М":{"ha":465,"x_min":36,"x_max":429,"o":"m 126 0 l 36 0 l 36 851 l 154 851 l 231 256 l 235 256 l 311 851 l 429 851 l 429 0 l 339 0 l 339 500 l 335 500 l 267 0 l 200 0 l 131 500 l 126 500 l 126 0 z "},"Н":{"ha":336,"x_min":36,"x_max":300,"o":"m 142 0 l 36 0 l 36 851 l 142 851 l 142 514 l 193 514 l 193 851 l 300 851 l 300 0 l 193 0 l 193 428 l 142 428 l 142 0 z "},"О":{"ha":326,"x_min":32,"x_max":294,"o":"m 294 728 l 294 122 q 257 22 294 53 q 178 -8 219 -8 l 178 -8 l 149 -8 q 69 22 107 -8 q 32 122 32 53 l 32 122 l 32 728 q 69 828 32 797 q 149 860 107 860 l 149 860 l 178 860 q 257 828 219 860 q 294 728 294 797 l 294 728 z m 136 772 l 136 79 l 190 79 l 190 772 l 136 772 z "},"Е":{"ha":257,"x_min":36,"x_max":247,"o":"m 247 0 l 36 0 l 36 851 l 242 851 l 242 760 l 138 760 l 138 494 l 213 494 l 213 407 l 138 407 l 138 92 l 247 92 l 247 0 z "},"И":{"ha":400,"x_min":36,"x_max":364,"o":"m 364 850 l 364 0 l 263 0 l 263 564 l 258 564 l 150 0 l 36 0 l 36 850 l 139 850 l 139 299 l 142 299 l 244 850 l 364 850 z "},"С":{"ha":313,"x_min":32,"x_max":288,"o":"m 139 772 l 139 129 q 143 86 139 100 q 163 72 147 72 l 163 72 q 178 90 175 72 q 181 129 181 107 l 181 129 l 181 329 l 288 329 l 288 122 q 254 23 288 54 q 156 -8 221 -8 l 156 -8 q 65 25 99 -8 q 32 122 32 58 l 32 122 l 32 728 q 68 828 32 797 q 169 860 104 860 l 169 860 q 257 820 226 860 q 288 728 288 781 l 288 728 l 288 515 l 181 515 l 181 772 l 139 772 z "},"Р":{"ha":308,"x_min":36,"x_max":292,"o":"m 139 0 l 36 0 l 36 851 l 175 851 q 257 818 222 851 q 292 721 292 785 l 292 721 l 292 493 q 260 408 292 433 q 182 382 229 382 l 182 382 l 139 382 l 139 0 z m 139 461 l 161 461 q 178 470 172 461 q 185 503 185 479 l 185 503 l 185 771 l 139 771 l 139 461 z "},"Т":{"ha":272,"x_min":6,"x_max":267,"o":"m 190 0 l 83 0 l 83 761 l 6 761 l 6 851 l 267 851 l 267 761 l 190 761 l 190 0 z "},"Х":{"ha":361,"x_min":4,"x_max":354,"o":"m 24 0 l 96 346 q 116 406 104 385 q 163 426 128 426 l 163 426 l 163 436 q 125 451 139 436 q 104 488 111 467 q 92 528 97 510 l 92 528 l 4 851 l 107 851 l 185 554 l 251 851 l 354 851 l 281 528 q 269 488 276 510 q 247 451 261 467 q 210 436 233 436 l 210 436 l 210 426 q 258 406 246 426 q 276 347 269 385 l 276 347 l 349 0 l 247 0 l 186 299 l 125 0 l 24 0 z "},"К":{"ha":353,"x_min":36,"x_max":347,"o":"m 136 0 l 36 0 l 36 851 l 136 851 l 136 557 l 142 557 l 224 851 l 333 851 l 242 568 q 210 499 229 529 q 144 471 190 468 l 144 471 l 144 456 q 207 442 189 457 q 235 394 225 428 l 235 394 l 347 0 l 240 0 l 142 358 l 136 358 l 136 0 z "},"Ѕ":{"ha":303,"x_min":25,"x_max":281,"o":"m 131 324 l 131 107 q 135 81 131 93 q 153 68 139 68 l 153 68 q 170 81 167 68 q 174 107 174 93 l 174 107 l 174 247 q 158 328 174 294 q 122 390 143 363 q 78 444 100 417 q 40 507 56 472 q 25 590 25 542 l 25 590 l 25 735 q 58 826 25 794 q 147 858 92 858 l 147 858 q 243 821 213 858 q 274 735 274 783 l 274 735 l 274 525 l 171 525 l 171 776 l 132 776 l 132 601 q 147 520 132 554 q 185 458 163 486 q 228 403 207 431 q 265 341 250 375 q 281 260 281 307 l 281 260 l 281 114 q 249 21 281 50 q 156 -8 217 -8 l 156 -8 q 54 27 83 -8 q 25 114 25 63 l 25 114 l 25 324 l 131 324 z "},"І":{"ha":175,"x_min":36,"x_max":139,"o":"m 139 0 l 36 0 l 36 851 l 139 851 l 139 0 z "},"Ё":{"ha":257,"x_min":36,"x_max":247,"o":"m 247 0 l 36 0 l 36 851 l 242 851 l 242 760 l 138 760 l 138 494 l 213 494 l 213 407 l 138 407 l 138 92 l 247 92 l 247 0 z m 125 929 l 58 929 l 58 1036 l 125 1036 l 125 929 z m 224 929 l 157 929 l 157 1036 l 224 1036 l 224 929 z "},"Я":{"ha":322,"x_min":31,"x_max":286,"o":"m 147 851 l 147 851 l 286 851 l 286 0 l 183 0 l 183 418 l 175 418 q 138 357 138 418 l 138 357 l 138 0 l 31 0 l 31 376 q 104 456 31 456 l 104 456 l 107 456 l 107 469 q 31 564 31 469 l 31 564 l 31 733 q 62 821 31 790 q 147 851 93 851 z m 175 493 l 175 493 l 183 493 l 183 771 l 138 771 l 138 556 q 175 493 138 493 z "},"Ж":{"ha":439,"x_min":4,"x_max":432,"o":"m 24 0 l 104 367 q 121 408 110 389 q 167 426 132 428 l 167 426 l 167 435 q 129 449 143 433 q 108 487 115 464 q 96 528 101 510 l 96 528 l 4 851 l 103 851 l 182 529 l 182 851 l 267 851 l 267 536 l 333 851 l 432 851 l 354 528 q 342 487 350 510 q 321 449 335 464 q 283 435 307 433 l 283 435 l 283 426 q 330 408 319 428 q 346 367 340 389 l 346 367 l 426 0 l 329 0 l 267 308 l 267 0 l 182 0 l 182 307 l 121 0 l 24 0 z "},"Ќ":{"ha":353,"x_min":36,"x_max":347,"o":"m 136 0 l 36 0 l 36 851 l 136 851 l 136 557 l 142 557 l 224 851 l 333 851 l 242 568 q 210 499 229 529 q 144 471 190 468 l 144 471 l 144 456 q 207 442 189 457 q 235 394 225 428 l 235 394 l 347 0 l 240 0 l 142 358 l 136 358 l 136 0 z m 290 1021 l 211 901 l 149 901 l 179 1021 l 290 1021 z "},"П":{"ha":339,"x_min":36,"x_max":303,"o":"m 36 0 l 36 851 l 303 851 l 303 0 l 199 0 l 199 757 l 140 757 l 140 0 l 36 0 z "},"Ј":{"ha":301,"x_min":17,"x_max":268,"o":"m 124 408 l 124 121 q 144 72 124 72 l 144 72 q 159 88 157 72 q 161 121 161 103 l 161 121 l 161 851 l 268 851 l 268 122 q 236 27 268 63 q 143 -8 204 -8 l 143 -8 q 49 31 81 -8 q 17 122 17 69 l 17 122 l 17 408 l 124 408 z "},"Ї":{"ha":175,"x_min":3,"x_max":168,"o":"m 139 0 l 36 0 l 36 851 l 139 851 l 139 0 z m 69 931 l 3 931 l 3 1038 l 69 1038 l 69 931 z m 168 931 l 101 931 l 101 1038 l 168 1038 l 168 931 z "},"Й":{"ha":400,"x_min":36,"x_max":364,"o":"m 364 850 l 364 0 l 263 0 l 263 564 l 258 564 l 150 0 l 36 0 l 36 850 l 139 850 l 139 299 l 142 299 l 244 850 l 364 850 z m 114 994 l 114 1036 l 169 1036 l 169 1000 q 178 973 169 983 q 201 963 188 963 l 201 963 q 235 1000 235 963 l 235 1000 l 235 1036 l 292 1036 l 292 994 q 267 931 292 957 q 201 906 243 906 l 201 906 q 138 933 161 906 q 114 994 114 960 l 114 994 z "},"Г":{"ha":239,"x_min":36,"x_max":233,"o":"m 36 0 l 36 851 l 233 851 l 233 757 l 140 757 l 140 0 l 36 0 z "},"Ѓ":{"ha":239,"x_min":36,"x_max":233,"o":"m 36 0 l 36 851 l 233 851 l 233 771 l 140 771 l 140 0 l 36 0 z m 219 1031 l 140 911 l 78 911 l 108 1031 l 219 1031 z "},"Ґ":{"ha":276,"x_min":36,"x_max":271,"o":"m 36 0 l 36 851 l 189 851 l 189 942 l 271 942 l 271 757 l 140 757 l 140 0 l 36 0 z "},"ѕ":{"ha":269,"x_min":17,"x_max":253,"o":"m 151 83 l 151 183 q 131 258 151 225 q 85 324 111 292 q 40 396 60 357 q 19 485 19 435 l 19 485 l 19 568 q 56 662 19 631 q 136 693 93 693 l 136 693 q 217 662 181 693 q 253 568 253 631 l 253 568 l 253 418 l 156 418 l 156 613 l 121 613 l 121 508 q 141 427 121 461 q 187 362 161 393 q 233 293 213 331 q 253 201 253 256 l 253 201 l 253 118 q 215 24 251 57 q 135 -8 179 -8 l 135 -8 q 54 25 92 -8 q 17 121 17 58 l 17 121 l 17 285 l 114 285 l 114 83 l 151 83 z "},"і":{"ha":157,"x_min":26,"x_max":128,"o":"m 125 739 l 26 739 l 26 851 l 125 851 l 125 739 z m 128 0 l 29 0 l 29 688 l 128 688 l 128 0 z "},"ї":{"ha":151,"x_min":-6,"x_max":160,"o":"m 26 0 l 26 688 l 128 688 l 128 0 l 26 0 z m 61 765 l -6 765 l -6 872 l 61 872 l 61 765 z m 160 765 l 93 765 l 93 872 l 160 872 l 160 765 z "},"ј":{"ha":157,"x_min":-18,"x_max":128,"o":"m 125 735 l 24 735 l 24 851 l 125 851 l 125 735 z m -18 -221 l -18 -119 l 29 -119 l 29 688 l 128 688 l 128 -99 q 97 -198 128 -175 q 10 -221 67 -221 l 10 -221 l -18 -221 z "},"о":{"ha":289,"x_min":24,"x_max":265,"o":"m 24 119 l 24 569 q 61 662 24 631 q 144 693 99 693 l 144 693 q 228 662 190 693 q 265 568 265 631 l 265 568 l 265 121 q 228 25 265 58 q 144 -8 190 -8 l 144 -8 q 61 25 99 -8 q 24 119 24 58 l 24 119 z m 125 596 l 125 117 q 132 98 125 103 q 146 93 139 93 l 146 93 q 158 98 153 93 q 164 117 164 103 l 164 117 l 164 596 l 125 596 z "},"р":{"ha":300,"x_min":29,"x_max":275,"o":"m 29 -219 l 29 688 l 125 688 l 125 635 l 132 635 q 148 672 133 653 q 197 692 163 692 l 197 692 q 247 673 231 692 q 269 626 264 654 q 275 568 275 597 l 275 568 l 275 117 q 269 59 275 88 q 247 12 264 31 q 197 -7 231 -7 l 197 -7 q 153 10 165 -7 q 138 46 140 28 l 138 46 l 128 46 l 128 -219 l 29 -219 z m 129 592 l 129 93 q 133 66 129 76 q 150 56 138 56 l 150 56 q 164 66 161 56 q 167 90 167 76 l 167 90 l 167 594 q 147 629 167 629 l 147 629 q 133 619 136 629 q 129 592 129 608 l 129 592 z "},"с":{"ha":275,"x_min":24,"x_max":257,"o":"m 125 575 l 125 108 q 143 76 125 76 l 143 76 q 160 108 160 76 l 160 108 l 160 285 l 257 285 l 257 107 q 238 40 257 65 q 193 3 219 15 q 140 -8 167 -8 l 140 -8 q 88 3 115 -8 q 42 40 61 14 q 24 106 24 65 l 24 106 l 24 569 q 42 638 24 611 q 88 679 61 665 q 140 693 115 693 l 140 693 q 193 679 167 693 q 238 638 219 665 q 257 568 257 610 l 257 568 l 257 418 l 160 418 l 160 575 q 156 605 160 597 q 143 613 153 613 l 143 613 q 129 605 133 613 q 125 575 125 597 l 125 575 z "},"у":{"ha":282,"x_min":8,"x_max":279,"o":"m 96 -225 l 69 -225 l 69 -133 l 111 -133 l 125 0 l 108 0 q 69 24 90 0 q 44 107 49 47 l 44 107 l 8 688 l 99 688 l 132 114 l 136 114 l 188 688 l 279 688 l 194 -125 q 184 -167 193 -143 q 155 -208 175 -190 q 96 -225 135 -225 l 96 -225 z "},"х":{"ha":290,"x_min":0,"x_max":289,"o":"m 96 351 l 1 688 l 97 688 l 146 514 l 192 688 l 286 688 l 192 349 l 289 0 l 193 0 l 142 183 l 94 0 l 0 0 l 96 351 z "},"е":{"ha":281,"x_min":24,"x_max":260,"o":"m 158 115 l 158 285 l 260 285 l 260 121 q 222 27 260 58 q 140 -4 185 -4 l 140 -4 q 60 27 97 -4 q 24 119 24 58 l 24 119 l 24 569 q 60 662 24 631 q 140 693 97 693 l 140 693 q 222 662 185 693 q 260 568 260 631 l 260 568 l 260 349 l 125 349 l 125 115 q 131 95 125 100 q 142 90 136 90 l 142 90 q 153 95 147 90 q 158 115 158 100 l 158 115 z m 126 421 l 158 421 l 158 596 l 126 596 l 126 421 z "},"ё":{"ha":281,"x_min":24,"x_max":260,"o":"m 158 115 l 158 285 l 260 285 l 260 121 q 222 27 260 58 q 140 -4 185 -4 l 140 -4 q 60 27 97 -4 q 24 119 24 58 l 24 119 l 24 569 q 60 662 24 631 q 140 693 97 693 l 140 693 q 222 662 185 693 q 260 568 260 631 l 260 568 l 260 349 l 125 349 l 125 115 q 131 95 125 100 q 142 90 136 90 l 142 90 q 153 95 147 90 q 158 115 158 100 l 158 115 z m 126 421 l 158 421 l 158 596 l 126 596 l 126 421 z m 121 765 l 54 765 l 54 872 l 121 872 l 121 765 z m 219 765 l 153 765 l 153 872 l 219 872 l 219 765 z "},"ў":{"ha":282,"x_min":8,"x_max":279,"o":"m 96 -225 l 69 -225 l 69 -133 l 111 -133 l 125 0 l 108 0 q 69 24 90 0 q 44 107 49 47 l 44 107 l 8 688 l 99 688 l 132 114 l 136 114 l 188 688 l 279 688 l 194 -125 q 184 -167 193 -143 q 155 -208 175 -190 q 96 -225 135 -225 l 96 -225 z m 14 831 l 14 872 l 69 872 l 69 836 q 78 809 69 819 q 101 799 88 799 l 101 799 q 135 836 135 799 l 135 836 l 135 872 l 192 872 l 192 831 q 167 767 192 793 q 101 742 143 742 l 101 742 q 38 769 61 742 q 14 831 14 796 l 14 831 z "},"т":{"ha":261,"x_min":0,"x_max":261,"o":"m 182 -4 l 81 -4 l 81 604 l 0 604 l 0 689 l 261 689 l 261 604 l 182 604 l 182 -4 z "},"и":{"ha":388,"x_min":29,"x_max":358,"o":"m 29 0 l 29 690 l 129 690 l 129 238 l 239 690 l 358 690 l 358 0 l 258 0 l 258 489 l 144 0 l 29 0 z "},"й":{"ha":388,"x_min":29,"x_max":358,"o":"m 29 0 l 29 690 l 129 690 l 129 238 l 239 690 l 358 690 l 358 0 l 258 0 l 258 489 l 144 0 l 29 0 z m 61 831 l 61 872 l 117 872 l 117 836 q 126 809 117 819 q 149 799 135 799 l 149 799 q 182 836 182 799 l 182 836 l 182 872 l 239 872 l 239 831 q 215 767 239 793 q 149 742 190 742 l 149 742 q 85 769 108 742 q 61 831 61 796 l 61 831 z "},"н":{"ha":329,"x_min":29,"x_max":300,"o":"m 131 0 l 29 0 l 29 689 l 131 689 l 131 389 l 199 389 l 199 689 l 300 689 l 300 0 l 199 0 l 199 313 l 131 313 l 131 0 z "},"ж":{"ha":438,"x_min":-3,"x_max":438,"o":"m 17 0 l 93 300 q 110 331 97 317 q 165 346 122 346 l 165 346 l 165 350 q 107 376 122 350 q 85 422 92 401 l 85 422 l -3 689 l 100 689 l 181 438 l 181 689 l 268 689 l 268 449 l 336 689 l 438 689 l 361 422 q 340 376 356 401 q 282 350 325 350 l 282 350 l 282 346 q 338 331 326 346 q 353 300 349 317 l 353 300 l 432 0 l 332 0 l 268 243 l 268 0 l 181 0 l 181 251 l 118 0 l 17 0 z "},"а":{"ha":292,"x_min":17,"x_max":265,"o":"m 163 51 l 154 51 q 139 14 153 33 q 93 -6 125 -6 l 93 -6 q 47 13 64 -6 q 24 61 31 32 q 17 118 17 90 l 17 118 l 17 339 q 22 397 17 368 q 44 444 28 425 q 90 463 60 463 l 90 463 q 138 443 122 463 q 154 406 153 424 l 154 406 l 163 406 l 163 599 q 158 623 163 618 q 149 628 154 628 l 149 628 q 139 623 143 628 q 135 599 135 618 l 135 599 l 135 501 l 33 501 l 33 568 q 64 660 33 628 q 149 692 94 692 l 149 692 q 235 659 204 692 q 265 568 265 626 l 265 568 l 265 -1 l 163 -1 l 163 51 z m 118 340 l 118 128 q 123 98 118 110 q 142 86 128 86 l 142 86 q 160 98 157 86 q 164 128 164 110 l 164 128 l 164 338 q 142 382 164 382 l 142 382 q 118 340 118 382 l 118 340 z "},"я":{"ha":310,"x_min":24,"x_max":281,"o":"m 24 0 l 24 292 q 42 344 24 321 q 100 367 61 367 l 100 367 l 100 376 q 40 398 57 376 q 24 449 24 419 l 24 449 l 24 586 q 47 656 24 626 q 126 686 69 686 l 126 686 l 281 686 l 281 0 l 179 0 l 179 326 l 168 326 q 137 310 143 326 q 131 279 131 294 l 131 279 l 131 0 l 24 0 z m 168 397 l 179 397 l 179 610 l 126 610 l 126 444 q 135 414 126 431 q 168 397 143 397 l 168 397 z "},"Є":{"ha":313,"x_min":33,"x_max":289,"o":"m 140 414 l 140 129 q 144 86 140 100 q 164 72 149 72 l 164 72 q 179 90 176 72 q 182 129 182 107 l 182 129 l 182 329 l 289 329 l 289 122 q 256 23 289 54 q 157 -8 222 -8 l 157 -8 q 67 25 100 -8 q 33 122 33 58 l 33 122 l 33 728 q 69 828 33 797 q 171 860 106 860 l 171 860 q 258 820 228 860 q 289 728 289 781 l 289 728 l 289 515 l 182 515 l 182 772 l 140 772 l 140 490 l 226 490 l 226 414 l 140 414 z "},"Б":{"ha":308,"x_min":36,"x_max":292,"o":"m 36 0 l 36 851 l 257 851 l 257 767 l 139 767 l 139 496 l 182 496 q 260 470 229 496 q 292 385 292 444 l 292 385 l 292 131 q 257 33 292 67 q 175 0 222 0 l 175 0 l 36 0 z m 193 81 l 193 347 q 151 417 193 417 l 151 417 l 139 417 l 139 81 l 193 81 z "},"Ъ":{"ha":375,"x_min":6,"x_max":358,"o":"m 89 0 l 89 767 l 6 767 l 6 851 l 192 851 l 192 496 l 249 496 q 327 470 296 496 q 358 385 358 444 l 358 385 l 358 131 q 324 33 358 67 q 242 0 289 0 l 242 0 l 89 0 z m 257 81 l 257 347 q 215 417 257 417 l 215 417 l 192 417 l 192 81 l 257 81 z "},"Ь":{"ha":308,"x_min":36,"x_max":292,"o":"m 36 0 l 36 851 l 136 851 l 136 496 l 182 496 q 260 470 229 496 q 292 385 292 444 l 292 385 l 292 131 q 257 33 292 67 q 175 0 222 0 l 175 0 l 36 0 z m 194 81 l 194 347 q 157 417 194 417 l 157 417 l 136 417 l 136 81 l 194 81 z "},"в":{"ha":307,"x_min":29,"x_max":285,"o":"m 168 0 l 29 0 l 29 688 l 168 688 q 285 590 285 688 l 285 590 l 285 429 q 208 363 285 363 l 208 363 l 208 353 q 285 288 285 349 l 285 288 l 285 94 q 168 0 285 0 l 168 0 z m 136 397 l 140 397 q 170 403 160 397 q 181 435 181 408 l 181 435 l 181 611 l 136 611 l 136 397 z m 136 319 l 136 78 l 181 78 l 181 283 q 170 314 181 308 q 140 319 160 319 l 140 319 l 136 319 z "},"Ф":{"ha":411,"x_min":25,"x_max":386,"o":"m 386 639 l 386 179 q 286 92 386 92 l 286 92 l 257 92 l 257 -1 l 158 -1 l 158 92 l 139 92 q 25 194 25 92 l 25 194 l 25 654 q 139 757 25 757 l 139 757 l 158 757 l 158 851 l 257 851 l 257 757 l 272 757 q 386 639 386 757 l 386 639 z m 126 683 l 126 165 l 158 165 l 158 683 l 126 683 z m 257 164 l 285 164 l 285 682 l 257 682 l 257 164 z "},"ф":{"ha":367,"x_min":17,"x_max":350,"o":"m 350 490 l 350 171 q 324 99 350 124 q 233 69 299 74 l 233 69 l 233 -15 l 135 -15 l 135 69 q 43 103 69 74 q 17 186 17 132 l 17 186 l 17 506 q 43 589 17 560 q 135 622 69 618 l 135 622 l 135 703 l 233 703 l 233 621 q 324 583 299 615 q 350 490 350 551 l 350 490 z m 104 543 l 104 154 l 135 154 l 135 543 l 104 543 z m 233 153 l 263 153 l 263 543 l 233 543 l 233 153 z "},"м":{"ha":451,"x_min":29,"x_max":422,"o":"m 129 0 l 29 0 l 29 692 l 161 692 l 228 261 l 296 692 l 422 692 l 422 0 l 322 0 l 322 429 l 265 0 l 192 0 l 129 440 l 129 0 z "},"Ю":{"ha":492,"x_min":36,"x_max":460,"o":"m 140 -8 l 36 -8 l 36 851 l 140 851 l 140 507 l 204 507 l 204 732 q 242 831 204 801 q 321 860 279 860 l 321 860 l 343 860 q 422 831 385 860 q 460 732 460 801 l 460 732 l 460 122 q 422 22 460 53 q 343 -8 385 -8 l 343 -8 l 321 -8 q 242 22 279 -8 q 204 122 204 53 l 204 122 l 204 419 l 140 419 l 140 -8 z m 308 776 l 308 79 l 356 79 l 356 776 l 308 776 z "},"ъ":{"ha":365,"x_min":0,"x_max":353,"o":"m 83 0 l 83 604 l 0 604 l 0 689 l 186 689 l 186 482 l 243 482 q 322 456 290 482 q 353 371 353 431 l 353 371 l 353 131 q 318 33 353 67 q 236 0 283 0 l 236 0 l 83 0 z m 246 81 l 246 333 q 208 403 246 403 l 208 403 l 186 403 l 186 81 l 246 81 z "},"ь":{"ha":311,"x_min":29,"x_max":299,"o":"m 182 0 l 29 0 l 29 688 l 132 688 l 132 482 l 189 482 q 267 456 236 482 q 299 371 299 431 l 299 371 l 299 131 q 264 33 299 67 q 182 0 229 0 l 182 0 z m 132 403 l 132 81 l 192 81 l 192 333 q 154 403 192 403 l 154 403 l 132 403 z "},"ю":{"ha":476,"x_min":29,"x_max":453,"o":"m 133 -8 l 29 -8 l 29 689 l 133 689 l 133 403 l 197 403 l 197 565 q 235 666 197 635 q 314 697 272 697 l 314 697 l 336 697 q 415 666 378 697 q 453 565 453 635 l 453 565 l 453 122 q 415 22 453 53 q 336 -8 378 -8 l 336 -8 l 314 -8 q 235 22 272 -8 q 197 122 197 53 l 197 122 l 197 315 l 133 315 l 133 -8 z m 301 624 l 301 65 l 349 65 l 349 624 l 301 624 z "},"Ы":{"ha":475,"x_min":36,"x_max":439,"o":"m 332 0 l 332 851 l 439 851 l 439 0 l 332 0 z m 36 -14 l 36 851 l 139 851 l 139 482 l 182 482 q 260 456 229 482 q 292 371 292 431 l 292 371 l 292 117 q 257 19 292 53 q 175 -14 222 -14 l 175 -14 l 36 -14 z m 190 67 l 190 333 q 151 403 190 403 l 151 403 l 139 403 l 139 67 l 190 67 z "},"ы":{"ha":489,"x_min":29,"x_max":460,"o":"m 182 0 l 29 0 l 29 688 l 132 688 l 132 482 l 189 482 q 267 456 236 482 q 299 371 299 431 l 299 371 l 299 131 q 264 33 299 67 q 182 0 229 0 l 182 0 z m 132 403 l 132 81 l 192 81 l 192 333 q 154 403 192 403 l 154 403 l 132 403 z m 460 0 l 354 0 l 354 689 l 460 689 l 460 0 z "},"к":{"ha":353,"x_min":29,"x_max":354,"o":"m 129 0 l 29 0 l 29 690 l 129 690 l 129 439 l 131 439 l 231 688 l 340 688 l 244 453 q 199 400 232 421 q 121 381 167 379 l 121 381 l 121 367 q 197 359 168 368 q 236 321 226 350 l 236 321 l 354 0 l 247 0 l 135 303 l 129 303 l 129 0 z "},"г":{"ha":238,"x_min":29,"x_max":238,"o":"m 29 0 l 29 688 l 238 688 l 238 594 l 131 594 l 131 0 l 29 0 z "},"п":{"ha":325,"x_min":29,"x_max":296,"o":"m 29 0 l 29 688 l 296 688 l 296 0 l 192 0 l 192 607 l 133 607 l 133 0 l 29 0 z "},"ќ":{"ha":363,"x_min":29,"x_max":365,"o":"m 131 0 l 29 0 l 29 688 l 131 688 l 131 410 l 138 410 l 257 688 l 365 688 l 250 422 q 219 376 240 400 q 150 351 199 351 l 150 351 l 150 343 q 219 330 201 343 q 242 299 236 317 l 242 299 l 360 0 l 253 0 l 140 282 l 131 282 l 131 0 z m 211 857 l 132 738 l 69 738 l 100 857 l 211 857 z "},"Ч":{"ha":313,"x_min":21,"x_max":276,"o":"m 169 382 l 154 382 q 138 349 154 364 q 93 333 121 333 l 93 333 q 36 362 51 333 q 21 428 21 390 l 21 428 l 21 851 l 128 851 l 128 431 l 169 431 l 169 851 l 276 851 l 276 1 l 169 1 l 169 382 z "},"ч":{"ha":297,"x_min":15,"x_max":268,"o":"m 117 688 l 117 351 l 165 351 l 165 688 l 268 688 l 268 1 l 165 1 l 165 301 l 151 301 q 126 264 146 275 q 88 253 106 253 l 88 253 q 31 281 46 253 q 15 349 15 310 l 15 349 l 15 688 l 117 688 z "},"ґ":{"ha":264,"x_min":29,"x_max":264,"o":"m 29 0 l 29 688 l 182 688 l 182 778 l 264 778 l 264 600 l 133 600 l 133 0 l 29 0 z "},"Њ":{"ha":486,"x_min":36,"x_max":468,"o":"m 36 0 l 36 851 l 140 851 l 140 515 l 213 515 l 213 851 l 315 851 l 315 515 l 358 515 q 437 490 406 515 q 468 404 468 464 l 468 404 l 468 131 q 433 33 468 67 q 351 0 399 0 l 351 0 l 213 0 l 213 433 l 140 433 l 140 0 l 36 0 z m 372 81 l 372 367 q 319 436 372 436 l 319 436 l 315 436 l 315 81 l 372 81 z "},"њ":{"ha":472,"x_min":29,"x_max":461,"o":"m 29 0 l 29 689 l 133 689 l 133 438 l 206 438 l 206 689 l 308 689 l 308 438 l 351 438 q 430 412 399 438 q 461 326 461 386 l 461 326 l 461 131 q 426 33 461 67 q 344 0 392 0 l 344 0 l 206 0 l 206 356 l 133 356 l 133 0 l 29 0 z m 356 81 l 356 303 q 349 348 356 338 q 331 358 343 358 l 331 358 l 308 358 l 308 81 l 356 81 z "},"ш":{"ha":476,"x_min":29,"x_max":447,"o":"m 29 0 l 29 688 l 133 688 l 133 81 l 192 81 l 192 688 l 293 688 l 293 81 l 346 81 l 346 688 l 447 688 l 447 0 l 29 0 z "},"Ш":{"ha":488,"x_min":36,"x_max":451,"o":"m 36 0 l 36 851 l 143 851 l 143 88 l 193 88 l 193 851 l 297 851 l 297 88 l 347 88 l 347 851 l 451 851 l 451 0 l 36 0 z "},"Щ":{"ha":564,"x_min":36,"x_max":558,"o":"m 451 88 l 558 88 l 558 -54 l 475 -54 l 475 0 l 36 0 l 36 851 l 143 851 l 143 88 l 193 88 l 193 851 l 297 851 l 297 88 l 347 88 l 347 851 l 451 851 l 451 88 z "},"щ":{"ha":539,"x_min":29,"x_max":540,"o":"m 540 -47 l 460 -47 l 460 0 l 29 0 l 29 688 l 133 688 l 133 81 l 192 81 l 192 688 l 293 688 l 293 81 l 346 81 l 346 688 l 447 688 l 447 81 l 540 81 l 540 -47 z "},"Л":{"ha":482,"x_min":7,"x_max":446,"o":"m 114 174 l 114 136 q 118 96 114 114 q 143 78 122 78 l 143 78 q 165 94 161 78 q 169 136 168 110 l 169 136 l 197 851 l 446 851 l 446 0 l 343 0 l 343 765 l 301 765 l 276 124 q 243 28 275 64 q 138 -7 211 -7 l 138 -7 q 44 32 81 -7 q 7 124 7 71 l 7 124 l 7 174 l 114 174 z "},"Љ":{"ha":629,"x_min":7,"x_max":613,"o":"m 114 174 l 114 136 q 118 96 114 114 q 143 78 122 78 l 143 78 q 165 94 161 78 q 169 136 168 110 l 169 136 l 197 851 l 460 851 l 460 496 l 503 496 q 581 470 550 496 q 613 385 613 444 l 613 385 l 613 131 q 578 33 613 67 q 496 0 543 0 l 496 0 l 357 0 l 357 765 l 301 765 l 276 124 q 243 28 275 64 q 138 -7 211 -7 l 138 -7 q 44 32 81 -7 q 7 124 7 71 l 7 124 l 7 174 l 114 174 z m 460 417 l 460 81 l 506 81 l 506 347 q 468 417 506 417 l 468 417 l 460 417 z "},"љ":{"ha":621,"x_min":0,"x_max":607,"o":"m 94 174 l 94 136 q 100 99 94 118 q 125 79 106 79 l 125 79 q 158 100 153 79 q 164 136 163 121 l 164 136 l 192 689 l 453 689 l 453 496 l 497 496 q 576 470 544 496 q 607 385 607 444 l 607 385 l 607 131 q 572 33 607 67 q 490 0 538 0 l 490 0 l 351 0 l 351 618 l 294 618 l 271 124 q 232 28 268 64 q 122 -7 196 -7 l 122 -7 q 33 32 65 -7 q 0 124 0 71 l 0 124 l 0 174 l 94 174 z m 454 417 l 454 81 l 500 81 l 500 347 q 463 417 500 417 l 463 417 l 454 417 z "},"ѓ":{"ha":226,"x_min":19,"x_max":226,"o":"m 29 -1 l 29 688 l 226 688 l 226 593 l 133 593 l 133 -1 l 29 -1 z m 161 857 l 82 738 l 19 738 l 50 857 l 161 857 z "},"џ":{"ha":286,"x_min":19,"x_max":267,"o":"m 96 1 l 96 132 q 42 172 65 142 q 19 253 19 201 l 19 253 l 19 688 l 121 688 l 121 197 l 165 197 l 165 688 l 267 688 l 267 253 q 244 172 267 201 q 190 132 222 142 l 190 132 l 190 1 l 96 1 z "},"Џ":{"ha":294,"x_min":24,"x_max":271,"o":"m 100 1 l 100 229 q 49 269 74 239 q 24 350 24 299 l 24 350 l 24 851 l 125 851 l 125 319 l 169 319 l 169 851 l 271 851 l 271 350 q 246 269 271 299 q 194 229 221 239 l 194 229 l 194 1 l 100 1 z "},"У":{"ha":294,"x_min":13,"x_max":288,"o":"m 106 0 l 51 0 l 51 78 l 107 78 l 122 225 l 118 225 q 67 244 83 225 q 50 285 51 263 l 50 285 l 13 853 l 106 853 l 136 353 l 193 851 l 288 851 l 197 72 q 175 21 194 42 q 106 0 156 0 l 106 0 z "},"Ц":{"ha":439,"x_min":36,"x_max":433,"o":"m 433 -54 l 350 -54 l 350 0 l 36 0 l 36 851 l 144 851 l 144 88 l 222 88 l 222 851 l 329 851 l 329 88 l 433 88 l 433 -54 z "},"ц":{"ha":421,"x_min":29,"x_max":421,"o":"m 421 -68 l 351 -68 l 351 0 l 29 0 l 29 688 l 132 688 l 132 88 l 224 88 l 224 688 l 331 688 l 331 88 l 421 88 l 421 -68 z "},"Э":{"ha":313,"x_min":24,"x_max":279,"o":"m 172 129 l 172 129 l 172 414 l 86 414 l 86 490 l 172 490 l 172 772 l 131 772 l 131 515 l 24 515 l 24 728 q 54 820 24 781 q 142 860 85 860 l 142 860 q 243 828 207 860 q 279 728 279 797 l 279 728 l 279 122 q 246 25 279 58 q 156 -8 213 -8 l 156 -8 q 57 23 90 -8 q 24 122 24 54 l 24 122 l 24 329 l 131 329 l 131 129 q 133 90 131 107 q 149 72 136 72 l 149 72 q 168 86 164 72 q 172 129 172 100 z "},"л":{"ha":331,"x_min":-1,"x_max":301,"o":"m -1 -7 l -1 79 q 13 78 3 78 l 13 78 q 44 90 33 78 q 57 117 54 103 q 60 136 60 131 l 60 136 l 88 689 l 301 689 l 301 0 l 199 0 l 199 617 l 182 617 l 151 128 q 106 26 147 58 q -1 -7 65 -7 l -1 -7 z "},"є":{"ha":275,"x_min":24,"x_max":257,"o":"m 125 319 l 125 108 q 143 76 125 76 l 143 76 q 160 108 160 76 l 160 108 l 160 285 l 257 285 l 257 107 q 238 40 257 65 q 193 3 219 15 q 140 -8 167 -8 l 140 -8 q 88 3 115 -8 q 42 40 61 14 q 24 106 24 65 l 24 106 l 24 569 q 42 638 24 611 q 88 679 61 665 q 140 693 115 693 l 140 693 q 193 679 167 693 q 238 638 219 665 q 257 568 257 610 l 257 568 l 257 418 l 160 418 l 160 575 q 156 605 160 597 q 143 613 153 613 l 143 613 q 129 605 133 613 q 125 575 125 597 l 125 575 l 125 379 l 188 379 l 188 319 l 125 319 z "},"э":{"ha":275,"x_min":18,"x_max":251,"o":"m 150 383 l 150 575 q 147 605 150 597 q 132 613 143 613 l 132 613 q 119 605 122 613 q 115 575 115 597 l 115 575 l 115 418 l 18 418 l 18 568 q 37 638 18 610 q 83 679 56 665 q 135 693 110 693 l 135 693 q 188 679 161 693 q 233 638 214 665 q 251 569 251 611 l 251 569 l 251 106 q 233 40 251 65 q 188 3 214 14 q 135 -8 161 -8 l 135 -8 q 83 3 110 -8 q 37 40 56 15 q 18 107 18 65 l 18 107 l 18 285 l 115 285 l 115 108 q 132 76 115 76 l 132 76 q 150 108 150 76 l 150 108 l 150 319 l 88 319 l 88 383 l 150 383 z "},"ђ":{"ha":292,"x_min":-17,"x_max":264,"o":"m 160 -146 l 132 -146 l 132 -62 l 164 -62 l 164 569 q 161 590 164 579 q 147 601 158 601 l 147 601 q 133 590 136 601 q 129 567 129 578 l 129 567 l 129 0 l 29 0 l 29 764 l -17 764 l -17 814 l 29 814 l 29 907 l 126 907 l 126 814 l 179 814 l 179 764 l 126 764 l 126 635 l 135 635 q 147 672 136 653 q 194 692 158 692 l 194 692 q 240 673 225 692 q 259 626 254 654 q 264 568 264 597 l 264 568 l 264 0 q 240 -110 264 -75 q 160 -146 217 -146 l 160 -146 z "},"ћ":{"ha":290,"x_min":-1,"x_max":264,"o":"m 129 0 l 29 0 l 29 764 l -1 764 l -1 814 l 29 814 l 29 851 l 126 851 l 126 814 l 194 814 l 194 764 l 126 764 l 126 635 l 135 635 q 147 672 136 653 q 190 692 157 692 l 190 692 q 238 673 222 692 q 259 626 254 654 q 264 568 264 597 l 264 568 l 264 0 l 164 0 l 164 569 q 161 590 164 579 q 147 601 158 601 l 147 601 q 133 590 136 601 q 129 567 129 578 l 129 567 l 129 0 z "},"Ћ":{"ha":354,"x_min":19,"x_max":332,"o":"m 97 772 l 19 772 l 19 851 l 264 851 l 264 772 l 194 772 l 194 635 l 203 635 q 215 672 204 653 q 258 692 225 692 l 258 692 q 306 673 290 692 q 327 626 322 654 q 332 568 332 597 l 332 568 l 332 0 l 232 0 l 232 569 q 229 590 232 579 q 215 601 226 601 l 215 601 q 201 590 204 601 q 197 567 197 578 l 197 567 l 197 0 l 97 0 l 97 772 z "},"Ђ":{"ha":332,"x_min":6,"x_max":304,"o":"m 6 772 l 6 851 l 250 851 l 250 772 l 165 772 l 165 635 l 174 635 q 188 672 175 653 q 240 692 201 692 l 240 692 q 287 673 274 692 q 302 626 300 654 q 304 568 304 597 l 304 568 l 304 106 q 289 24 304 49 q 217 0 274 0 l 217 0 l 186 0 l 186 60 l 217 60 l 217 569 q 213 590 217 579 q 194 601 210 601 l 194 601 q 173 590 178 601 q 168 567 168 578 l 168 567 l 168 0 l 68 0 l 68 772 l 6 772 z "},"З":{"ha":304,"x_min":22,"x_max":278,"o":"m 129 301 l 129 124 q 134 91 129 101 q 153 81 139 81 l 153 81 q 170 91 167 81 q 174 124 174 101 l 174 124 l 174 333 q 162 383 174 371 q 118 394 150 394 l 118 394 l 118 482 q 162 494 150 482 q 174 544 174 507 l 174 544 l 174 778 l 129 778 l 129 550 l 22 550 l 22 738 q 57 831 22 803 q 147 860 92 860 l 147 860 q 247 824 215 860 q 278 738 278 788 l 278 738 l 278 551 q 260 476 278 508 q 192 444 243 444 l 192 444 l 192 433 q 260 405 242 433 q 278 332 278 376 l 278 332 l 278 114 q 244 24 278 57 q 150 -10 211 -10 l 150 -10 q 56 24 89 -10 q 22 114 22 57 l 22 114 l 22 301 l 129 301 z "},"з":{"ha":285,"x_min":10,"x_max":265,"o":"m 117 190 l 117 124 q 121 91 117 101 q 139 81 125 81 l 139 81 q 158 91 154 81 q 161 124 161 101 l 161 124 l 161 250 q 149 299 161 288 q 106 311 138 311 l 106 311 l 106 399 q 149 411 138 399 q 161 461 161 424 l 161 461 l 161 611 l 117 611 l 117 494 l 10 494 l 10 571 q 47 665 10 636 q 149 694 83 694 l 149 694 q 235 658 206 694 q 265 571 265 621 l 265 571 l 265 468 q 248 393 265 425 q 179 361 231 361 l 179 361 l 179 350 q 247 322 229 350 q 265 249 265 293 l 265 249 l 265 114 q 232 24 265 57 q 138 -10 199 -10 l 138 -10 q 43 24 76 -10 q 10 114 10 57 l 10 114 l 10 190 l 117 190 z "},"Д":{"ha":442,"x_min":11,"x_max":431,"o":"m 113 1 l 11 1 l 11 231 l 65 231 l 65 299 q 96 313 86 299 q 109 345 106 326 q 113 378 113 364 l 113 378 l 140 851 l 372 851 l 372 231 l 431 231 l 431 1 l 329 1 l 329 144 l 113 144 l 113 1 z m 143 231 l 269 231 l 269 769 l 242 769 l 218 364 q 198 279 215 314 q 143 231 181 244 l 143 231 z "},"д":{"ha":400,"x_min":6,"x_max":394,"o":"m 107 0 l 6 0 l 6 201 l 56 201 l 56 274 q 88 288 76 274 q 105 320 100 301 q 110 353 110 339 l 110 353 l 125 688 l 335 688 l 335 201 l 394 201 l 394 0 l 293 0 l 293 115 l 107 115 l 107 0 z m 122 201 l 232 201 l 232 611 l 221 611 l 208 339 q 122 201 204 221 l 122 201 z "},"б":{"ha":297,"x_min":24,"x_max":279,"o":"m 279 447 l 279 108 q 238 20 279 49 q 149 -8 197 -8 l 149 -8 q 63 20 101 -8 q 24 108 24 49 l 24 108 l 24 554 q 39 642 24 603 q 92 703 54 681 q 199 726 131 726 l 199 726 l 213 726 l 228 632 l 199 632 q 147 615 168 632 q 125 535 125 597 l 125 535 l 125 489 l 146 489 q 171 524 153 514 q 207 535 189 535 l 207 535 q 264 509 249 535 q 279 447 279 483 l 279 447 z m 175 121 l 175 426 q 170 458 175 447 q 150 468 165 468 l 150 468 q 125 426 125 468 l 125 426 l 125 121 q 129 85 125 99 q 149 72 133 72 l 149 72 q 170 85 165 72 q 175 121 175 99 l 175 121 z "},"Ў":{"ha":294,"x_min":11,"x_max":286,"o":"m 110 0 l 56 0 l 56 78 l 111 78 l 126 225 l 122 225 q 72 244 88 225 q 54 285 57 263 l 54 285 l 11 853 l 104 853 l 139 353 l 192 851 l 286 851 l 201 72 q 179 21 199 42 q 110 0 160 0 l 110 0 z m 49 971 l 49 1013 l 104 1013 l 104 976 q 113 949 104 960 q 136 939 122 939 l 136 939 q 169 976 169 939 l 169 976 l 169 1013 l 226 1013 l 226 971 q 202 908 226 933 q 136 882 178 882 l 136 882 q 72 909 96 882 q 49 971 49 936 l 49 971 z "},"ĺ":{"ha":158,"x_min":29,"x_max":196,"o":"m 129 0 l 29 0 l 29 851 l 129 851 l 129 0 z m 196 1021 l 117 901 l 54 901 l 85 1021 l 196 1021 z "},"ſ":{"ha":161,"x_min":29,"x_max":267,"o":"m 29 1 l 29 885 q 60 980 29 944 q 150 1015 90 1015 l 150 1015 q 237 982 207 1015 q 267 913 267 949 l 267 913 l 267 879 l 164 879 l 164 901 q 161 933 164 919 q 147 946 158 946 l 147 946 q 135 933 138 946 q 132 901 132 919 l 132 901 l 132 1 l 29 1 z "},"Ǳ":{"ha":604,"x_min":36,"x_max":596,"o":"m 292 722 l 292 126 q 254 28 292 57 q 175 0 217 0 l 175 0 l 36 0 l 36 850 l 175 850 q 254 821 217 850 q 292 722 292 792 l 292 722 z m 142 67 l 154 67 q 175 76 165 67 q 185 111 185 85 l 185 111 l 185 783 l 142 783 l 142 67 z m 596 0 l 332 0 l 332 85 l 475 764 l 357 764 l 357 851 l 583 851 l 583 767 l 439 88 l 596 88 l 596 0 z "},"ǲ":{"ha":563,"x_min":36,"x_max":556,"o":"m 292 722 l 292 126 q 254 28 292 57 q 175 0 217 0 l 175 0 l 36 0 l 36 850 l 175 850 q 254 821 217 850 q 292 722 292 792 l 292 722 z m 142 67 l 154 67 q 175 76 165 67 q 185 111 185 85 l 185 111 l 185 783 l 142 783 l 142 67 z m 556 0 l 326 0 l 326 88 l 456 604 l 342 604 l 342 688 l 553 688 l 553 600 l 425 83 l 556 83 l 556 0 z "},"ǳ":{"ha":540,"x_min":25,"x_max":533,"o":"m 106 -4 l 106 -4 q 55 15 72 -4 q 31 63 38 33 q 25 119 25 92 l 25 119 l 25 571 q 31 628 25 600 q 53 676 36 657 q 100 694 69 694 l 100 694 q 149 675 133 694 q 165 638 164 656 l 165 638 l 174 638 l 174 851 l 271 851 l 271 0 l 182 0 l 182 53 l 174 53 q 157 15 172 35 q 106 -4 142 -4 z m 153 86 l 153 86 q 167 97 164 86 q 171 122 171 107 l 171 122 l 171 568 q 151 604 171 604 l 151 604 q 136 594 139 604 q 133 568 133 583 l 133 568 l 133 122 q 138 97 133 107 q 153 86 142 86 z m 533 0 l 304 0 l 304 88 l 433 604 l 319 604 l 319 688 l 531 688 l 531 600 l 403 83 l 533 83 l 533 0 z "},"Ǵ":{"ha":333,"x_min":32,"x_max":307,"o":"m 139 785 l 139 118 q 150 85 139 96 q 175 75 161 75 l 175 75 q 199 85 190 75 q 208 122 208 96 l 208 122 l 208 389 l 168 389 l 168 475 l 307 475 l 307 0 l 210 0 l 210 54 l 199 54 q 173 6 189 19 q 131 -7 157 -7 l 131 -7 q 62 19 92 -7 q 32 108 32 44 l 32 108 l 32 726 q 69 827 32 796 q 149 858 107 858 l 149 858 l 171 858 q 226 844 199 858 q 273 802 254 831 q 292 726 292 774 l 292 726 l 292 565 l 185 565 l 185 785 l 139 785 z m 282 1028 l 203 908 l 140 908 l 171 1028 l 282 1028 z "},"ǵ":{"ha":281,"x_min":22,"x_max":257,"o":"m 22 197 l 22 568 q 26 626 22 597 q 44 673 29 654 q 90 692 58 692 l 90 692 q 142 672 124 692 q 161 635 160 653 l 161 635 l 169 635 l 169 688 l 257 688 l 257 197 q 236 108 257 136 q 171 72 215 79 l 171 72 l 171 39 q 233 12 213 35 q 254 -47 254 -11 l 254 -47 q 229 -111 254 -86 q 151 -136 204 -136 l 151 -136 l 133 -136 q 56 -111 82 -136 q 29 -46 29 -86 l 29 -46 q 111 39 29 28 l 111 39 l 111 71 q 44 108 67 78 q 22 197 22 138 l 22 197 z m 140 164 l 140 164 q 154 174 151 164 q 157 206 157 183 l 157 206 l 157 572 q 155 592 157 583 q 142 601 153 601 l 142 601 q 126 593 131 601 q 122 575 122 585 l 122 575 l 122 203 q 126 174 122 183 q 140 164 129 164 z m 143 -68 l 143 -68 q 162 -65 153 -68 q 171 -49 171 -61 l 171 -49 q 162 -32 171 -36 q 144 -28 153 -28 l 144 -28 l 142 -28 q 124 -32 133 -28 q 114 -49 114 -36 l 114 -49 q 124 -65 114 -61 q 143 -68 133 -68 z m 256 857 l 176 738 l 114 738 l 144 857 l 256 857 z "},"ǰ":{"ha":157,"x_min":-36,"x_max":194,"o":"m -18 -219 l -18 -118 l 29 -118 l 29 688 l 128 688 l 128 -97 q 97 -197 128 -174 q 10 -219 67 -219 l 10 -219 l -18 -219 z m 43 750 l -36 869 l 33 869 l 78 815 l 124 869 l 194 869 l 115 750 l 43 750 z "},"Ǔ":{"ha":322,"x_min":33,"x_max":289,"o":"m 140 851 l 140 128 q 144 89 140 101 q 163 76 149 76 l 163 76 q 180 89 176 76 q 183 128 183 101 l 183 128 l 183 851 l 289 851 l 289 135 q 260 29 289 67 q 161 -8 231 -8 l 161 -8 q 63 29 92 -8 q 33 135 33 67 l 33 135 l 33 851 l 140 851 z m 124 915 l 44 1035 l 114 1035 l 158 981 l 204 1035 l 275 1035 l 196 915 l 124 915 z "},"ǔ":{"ha":299,"x_min":26,"x_max":269,"o":"m 169 688 l 269 688 l 269 0 l 172 0 l 172 53 l 164 53 q 152 15 163 35 q 106 -4 142 -4 l 106 -4 q 55 15 72 -4 q 32 63 38 33 q 26 119 26 92 l 26 119 l 26 688 l 126 688 l 126 118 q 131 97 126 108 q 149 86 135 86 l 149 86 q 166 98 163 86 q 169 121 169 110 l 169 121 l 169 688 z m 106 750 l 26 869 l 96 869 l 140 815 l 186 869 l 257 869 l 178 750 l 106 750 z "},"ǅ":{"ha":563,"x_min":36,"x_max":557,"o":"m 292 722 l 292 126 q 254 28 292 57 q 175 0 217 0 l 175 0 l 36 0 l 36 850 l 175 850 q 254 821 217 850 q 292 722 292 792 l 292 722 z m 142 67 l 154 67 q 175 76 165 67 q 185 111 185 85 l 185 111 l 185 783 l 142 783 l 142 67 z m 556 0 l 326 0 l 326 88 l 456 604 l 342 604 l 342 688 l 553 688 l 553 600 l 425 83 l 556 83 l 556 0 z m 406 750 l 326 869 l 396 869 l 440 815 l 486 869 l 557 869 l 478 750 l 406 750 z "},"Ǉ":{"ha":554,"x_min":36,"x_max":521,"o":"m 247 0 l 36 0 l 36 851 l 140 851 l 140 94 l 247 94 l 247 0 z m 376 408 l 376 121 q 397 72 376 72 l 397 72 q 412 88 410 72 q 414 121 414 103 l 414 121 l 414 851 l 521 851 l 521 122 q 489 27 521 63 q 396 -8 457 -8 l 396 -8 q 301 31 333 -8 q 269 122 269 69 l 269 122 l 269 408 l 376 408 z "},"ǈ":{"ha":410,"x_min":36,"x_max":381,"o":"m 247 0 l 36 0 l 36 851 l 140 851 l 140 94 l 247 94 l 247 0 z m 378 735 l 276 735 l 276 851 l 378 851 l 378 735 z m 235 -221 l 235 -119 l 282 -119 l 282 688 l 381 688 l 381 -99 q 350 -198 381 -175 q 263 -221 319 -221 l 263 -221 l 235 -221 z "},"ǉ":{"ha":315,"x_min":29,"x_max":286,"o":"m 129 0 l 29 0 l 29 851 l 129 851 l 129 0 z m 283 735 l 182 735 l 182 851 l 283 851 l 283 735 z m 140 -221 l 140 -119 l 188 -119 l 188 688 l 286 688 l 286 -99 q 256 -198 286 -175 q 168 -221 225 -221 l 168 -221 l 140 -221 z "},"Ǌ":{"ha":701,"x_min":36,"x_max":668,"o":"m 138 0 l 36 0 l 36 850 l 156 850 l 258 299 l 261 299 l 261 850 l 364 850 l 364 0 l 250 0 l 142 564 l 138 564 l 138 0 z m 524 408 l 524 121 q 544 72 524 72 l 544 72 q 559 88 557 72 q 561 121 561 103 l 561 121 l 561 851 l 668 851 l 668 122 q 636 27 668 63 q 543 -8 604 -8 l 543 -8 q 449 31 481 -8 q 417 122 417 69 l 417 122 l 417 408 l 524 408 z "},"ǋ":{"ha":557,"x_min":36,"x_max":528,"o":"m 138 0 l 36 0 l 36 850 l 156 850 l 258 299 l 261 299 l 261 850 l 364 850 l 364 0 l 250 0 l 142 564 l 138 564 l 138 0 z m 525 735 l 424 735 l 424 851 l 525 851 l 525 735 z m 382 -221 l 382 -119 l 429 -119 l 429 688 l 528 688 l 528 -99 q 497 -198 528 -175 q 410 -221 467 -221 l 410 -221 l 382 -221 z "},"ǌ":{"ha":456,"x_min":29,"x_max":426,"o":"m 129 0 l 29 0 l 29 688 l 126 688 l 126 635 l 135 635 q 147 672 136 653 q 193 692 158 692 l 193 692 q 244 673 228 692 q 267 626 261 654 q 272 568 272 597 l 272 568 l 272 0 l 172 0 l 172 569 q 168 590 172 579 q 150 601 164 601 l 150 601 q 133 590 136 601 q 129 567 129 578 l 129 567 l 129 0 z m 424 735 l 322 735 l 322 851 l 424 851 l 424 735 z m 281 -221 l 281 -119 l 328 -119 l 328 688 l 426 688 l 426 -99 q 396 -198 426 -175 q 308 -221 365 -221 l 308 -221 l 281 -221 z "},"ǩ":{"ha":328,"x_min":29,"x_max":374,"o":"m 129 0 l 29 0 l 29 851 l 129 851 l 129 513 l 149 513 l 203 689 l 313 689 l 267 556 q 234 485 251 511 q 181 463 217 460 l 181 463 l 181 449 q 236 431 217 450 q 260 389 256 411 l 260 389 l 328 0 l 221 0 l 150 406 l 129 406 l 129 0 z m 222 788 l 143 907 l 213 907 l 257 853 l 303 907 l 374 907 l 294 788 l 222 788 z "},"Ǧ":{"ha":333,"x_min":32,"x_max":307,"o":"m 139 785 l 139 118 q 150 85 139 96 q 175 75 161 75 l 175 75 q 199 85 190 75 q 208 122 208 96 l 208 122 l 208 389 l 168 389 l 168 475 l 307 475 l 307 0 l 210 0 l 210 54 l 199 54 q 173 6 189 19 q 131 -7 157 -7 l 131 -7 q 62 19 92 -7 q 32 108 32 44 l 32 108 l 32 726 q 69 827 32 796 q 149 858 107 858 l 149 858 l 171 858 q 226 844 199 858 q 273 802 254 831 q 292 726 292 774 l 292 726 l 292 565 l 185 565 l 185 785 l 139 785 z m 132 921 l 53 1040 l 122 1040 l 167 986 l 213 1040 l 283 1040 l 204 921 l 132 921 z "},"ǧ":{"ha":281,"x_min":22,"x_max":257,"o":"m 22 197 l 22 568 q 26 626 22 597 q 44 673 29 654 q 90 692 58 692 l 90 692 q 142 672 124 692 q 161 635 160 653 l 161 635 l 169 635 l 169 688 l 257 688 l 257 197 q 236 108 257 136 q 171 72 215 79 l 171 72 l 171 39 q 233 12 213 35 q 254 -47 254 -11 l 254 -47 q 229 -111 254 -86 q 151 -136 204 -136 l 151 -136 l 133 -136 q 56 -111 82 -136 q 29 -46 29 -86 l 29 -46 q 111 39 29 28 l 111 39 l 111 71 q 44 108 67 78 q 22 197 22 138 l 22 197 z m 140 164 l 140 164 q 154 174 151 164 q 157 206 157 183 l 157 206 l 157 572 q 155 592 157 583 q 142 601 153 601 l 142 601 q 126 593 131 601 q 122 575 122 585 l 122 575 l 122 203 q 126 174 122 183 q 140 164 129 164 z m 143 -68 l 143 -68 q 162 -65 153 -68 q 171 -49 171 -61 l 171 -49 q 162 -32 171 -36 q 144 -28 153 -28 l 144 -28 l 142 -28 q 124 -32 133 -28 q 114 -49 114 -36 l 114 -49 q 124 -65 114 -61 q 143 -68 133 -68 z m 106 750 l 26 869 l 96 869 l 140 815 l 186 869 l 257 869 l 178 750 l 106 750 z "},"Ǩ":{"ha":353,"x_min":36,"x_max":347,"o":"m 136 0 l 36 0 l 36 851 l 136 851 l 136 557 l 142 557 l 224 851 l 333 851 l 242 568 q 210 499 229 529 q 144 471 190 468 l 144 471 l 144 456 q 207 442 189 457 q 235 394 225 428 l 235 394 l 347 0 l 240 0 l 142 358 l 136 358 l 136 0 z m 140 914 l 61 1033 l 131 1033 l 175 979 l 221 1033 l 292 1033 l 213 914 l 140 914 z "},"Ǣ":{"ha":410,"x_min":8,"x_max":401,"o":"m 104 0 l 8 0 l 89 851 l 394 851 l 394 775 l 296 775 l 296 454 l 367 454 l 367 385 l 296 385 l 296 76 l 401 76 l 401 0 l 189 0 l 189 224 l 125 224 l 104 0 z m 129 310 l 189 310 l 189 775 l 179 775 l 129 310 z m 326 938 l 151 938 l 151 1006 l 326 1006 l 326 938 z "},"ǣ":{"ha":432,"x_min":15,"x_max":413,"o":"m 15 118 l 15 339 q 22 397 15 368 q 46 444 28 425 q 99 463 64 463 l 99 463 q 151 443 135 463 q 168 406 167 424 l 168 406 l 176 406 l 176 594 l 133 594 l 133 501 l 36 501 l 36 568 q 65 660 36 628 q 142 692 94 692 l 142 692 q 215 664 185 692 l 215 664 q 293 693 249 693 l 293 693 q 375 662 338 693 q 413 568 413 631 l 413 568 l 413 349 l 278 349 l 278 115 q 283 95 278 100 q 294 90 289 90 l 294 90 q 306 95 300 90 q 311 115 311 100 l 311 115 l 311 285 l 413 285 l 413 121 q 375 27 413 58 q 293 -4 338 -4 l 293 -4 q 237 10 264 -4 q 193 51 210 24 l 193 51 l 182 51 q 163 14 181 33 q 108 -6 144 -6 l 108 -6 q 53 13 74 -6 q 24 61 32 32 q 15 118 15 90 l 15 118 z m 122 338 l 122 119 q 128 88 122 101 q 147 75 133 75 l 147 75 q 172 89 167 75 q 176 122 176 103 l 176 122 l 176 335 q 172 368 176 354 q 149 382 167 382 l 149 382 q 128 369 133 382 q 122 338 122 356 l 122 338 z m 279 421 l 311 421 l 311 596 l 279 596 l 279 421 z m 300 774 l 125 774 l 125 842 l 300 842 l 300 774 z "},"Ǫ":{"ha":326,"x_min":32,"x_max":294,"o":"m 294 728 l 294 122 q 257 22 294 53 q 179 -8 219 -8 l 179 -8 q 164 -82 164 -47 l 164 -82 q 170 -110 164 -100 q 194 -121 176 -121 l 194 -121 q 221 -115 210 -121 q 232 -110 232 -110 l 232 -110 l 232 -190 q 131 -183 171 -210 q 90 -103 90 -157 l 90 -103 q 121 -6 90 -56 l 121 -6 q 59 33 86 3 q 32 122 32 64 l 32 122 l 32 728 q 69 828 32 797 q 149 860 107 860 l 149 860 l 178 860 q 257 828 219 860 q 294 728 294 797 l 294 728 z m 136 772 l 136 79 l 190 79 l 190 772 l 136 772 z "},"Ǭ":{"ha":326,"x_min":32,"x_max":294,"o":"m 294 728 l 294 122 q 257 22 294 53 q 179 -8 219 -8 l 179 -8 q 164 -82 164 -47 l 164 -82 q 170 -110 164 -100 q 194 -121 176 -121 l 194 -121 q 221 -115 210 -121 q 232 -110 232 -110 l 232 -110 l 232 -190 q 131 -183 171 -210 q 90 -103 90 -157 l 90 -103 q 121 -6 90 -56 l 121 -6 q 59 33 86 3 q 32 122 32 64 l 32 122 l 32 728 q 69 828 32 797 q 149 860 107 860 l 149 860 l 178 860 q 257 828 219 860 q 294 728 294 797 l 294 728 z m 136 772 l 136 79 l 190 79 l 190 772 l 136 772 z m 254 946 l 79 946 l 79 1014 l 254 1014 l 254 946 z "},"ǭ":{"ha":289,"x_min":24,"x_max":265,"o":"m 24 119 l 24 569 q 61 662 24 631 q 144 693 99 693 l 144 693 q 228 662 190 693 q 265 568 265 631 l 265 568 l 265 121 q 238 35 265 67 q 169 -6 210 3 l 169 -6 q 154 -82 154 -44 l 154 -82 q 160 -110 154 -100 q 185 -121 167 -121 l 185 -121 q 211 -115 200 -121 q 222 -110 222 -110 l 222 -110 l 222 -190 q 121 -183 161 -210 q 81 -103 81 -157 l 81 -103 q 113 -4 81 -53 l 113 -4 q 49 38 75 7 q 24 119 24 69 l 24 119 z m 125 596 l 125 117 q 132 98 125 103 q 146 93 139 93 l 146 93 q 158 98 153 93 q 164 117 164 103 l 164 117 l 164 596 l 125 596 z m 231 774 l 56 774 l 56 842 l 231 842 l 231 774 z "},"ǹ":{"ha":299,"x_min":29,"x_max":272,"o":"m 129 0 l 29 0 l 29 688 l 126 688 l 126 635 l 135 635 q 147 672 136 653 q 193 692 158 692 l 193 692 q 244 673 228 692 q 267 626 261 654 q 272 568 272 597 l 272 568 l 272 0 l 172 0 l 172 569 q 168 590 172 579 q 150 601 164 601 l 150 601 q 133 590 136 601 q 129 567 129 578 l 129 567 l 129 0 z m 171 738 l 108 738 l 29 857 l 140 857 l 171 738 z "},"Ǹ":{"ha":400,"x_min":36,"x_max":364,"o":"m 138 0 l 36 0 l 36 850 l 156 850 l 258 299 l 261 299 l 261 850 l 364 850 l 364 0 l 250 0 l 142 564 l 138 564 l 138 0 z m 225 901 l 163 901 l 83 1021 l 194 1021 l 225 901 z "},"Ǻ":{"ha":308,"x_min":8,"x_max":300,"o":"m 108 0 l 8 0 l 93 851 l 215 851 l 300 0 l 210 0 l 190 231 l 125 231 l 108 0 z m 69 975 l 69 975 q 89 1030 69 1007 q 138 1058 108 1053 l 138 1058 l 160 1147 l 271 1147 l 201 1043 q 226 1015 217 1032 q 236 975 236 997 l 236 975 q 212 918 236 943 q 151 893 188 893 l 151 893 q 94 917 119 893 q 69 975 69 942 z m 121 976 l 121 976 q 153 944 121 944 l 153 944 q 186 976 186 944 l 186 976 q 177 1001 186 992 q 153 1010 168 1010 l 153 1010 q 121 976 121 1010 z m 151 611 l 131 308 l 183 308 l 157 611 l 151 611 z "},"ǻ":{"ha":300,"x_min":25,"x_max":271,"o":"m 106 -4 l 106 -4 q 55 15 72 -4 q 31 63 38 33 q 25 119 25 92 l 25 119 l 25 571 q 31 628 25 600 q 55 676 38 657 q 106 694 72 694 l 106 694 q 157 675 142 694 q 174 638 172 656 l 174 638 l 182 638 l 182 688 l 271 688 l 271 0 l 182 0 l 182 53 l 174 53 q 157 15 172 35 q 106 -4 142 -4 z m 153 86 l 153 86 q 167 97 164 86 q 171 124 171 107 l 171 124 l 171 567 q 151 604 171 604 l 151 604 q 136 594 139 604 q 133 569 133 585 l 133 569 l 133 121 q 153 86 133 86 z m 64 810 l 64 810 q 83 865 64 842 q 132 893 103 888 l 132 893 l 154 982 l 265 982 l 196 878 q 221 849 211 867 q 231 810 231 832 l 231 810 q 206 753 231 778 q 146 728 182 728 l 146 728 q 89 752 114 728 q 64 810 64 776 z m 115 811 l 115 811 q 147 779 115 779 l 147 779 q 181 811 181 779 l 181 811 q 172 835 181 826 q 147 844 163 844 l 147 844 q 115 811 115 844 z "},"Ǽ":{"ha":410,"x_min":8,"x_max":401,"o":"m 104 0 l 8 0 l 89 851 l 394 851 l 394 775 l 296 775 l 296 454 l 367 454 l 367 385 l 296 385 l 296 76 l 401 76 l 401 0 l 189 0 l 189 224 l 125 224 l 104 0 z m 129 310 l 189 310 l 189 775 l 179 775 l 129 310 z m 353 1021 l 274 901 l 211 901 l 242 1021 l 353 1021 z "},"ǽ":{"ha":432,"x_min":15,"x_max":413,"o":"m 15 118 l 15 339 q 22 397 15 368 q 46 444 28 425 q 99 463 64 463 l 99 463 q 151 443 135 463 q 168 406 167 424 l 168 406 l 176 406 l 176 594 l 133 594 l 133 501 l 36 501 l 36 568 q 65 660 36 628 q 142 692 94 692 l 142 692 q 215 664 185 692 l 215 664 q 293 693 249 693 l 293 693 q 375 662 338 693 q 413 568 413 631 l 413 568 l 413 349 l 278 349 l 278 115 q 283 95 278 100 q 294 90 289 90 l 294 90 q 306 95 300 90 q 311 115 311 100 l 311 115 l 311 285 l 413 285 l 413 121 q 375 27 413 58 q 293 -4 338 -4 l 293 -4 q 237 10 264 -4 q 193 51 210 24 l 193 51 l 182 51 q 163 14 181 33 q 108 -6 144 -6 l 108 -6 q 53 13 74 -6 q 24 61 32 32 q 15 118 15 90 l 15 118 z m 122 338 l 122 119 q 128 88 122 101 q 147 75 133 75 l 147 75 q 172 89 167 75 q 176 122 176 103 l 176 122 l 176 335 q 172 368 176 354 q 149 382 167 382 l 149 382 q 128 369 133 382 q 122 338 122 356 l 122 338 z m 279 421 l 311 421 l 311 596 l 279 596 l 279 421 z m 326 857 l 247 738 l 185 738 l 215 857 l 326 857 z "},"Ǿ":{"ha":326,"x_min":29,"x_max":296,"o":"m 294 728 l 294 122 q 257 22 294 53 q 178 -8 219 -8 l 178 -8 l 149 -8 q 83 11 111 -8 l 83 11 l 81 0 l 29 0 l 43 60 q 32 122 32 86 l 32 122 l 32 728 q 69 828 32 797 q 149 860 107 860 l 149 860 l 178 860 q 231 847 206 860 l 231 847 l 244 907 l 296 907 l 272 810 q 289 774 283 794 q 294 728 294 754 l 294 728 z m 136 235 l 136 79 l 190 79 l 190 463 l 136 235 z m 281 1029 l 201 910 l 139 910 l 169 1029 l 281 1029 z m 136 772 l 136 450 l 190 679 l 190 772 l 136 772 z "},"ǿ":{"ha":289,"x_min":6,"x_max":272,"o":"m 24 119 l 24 569 q 61 662 24 631 q 144 693 99 693 l 144 693 q 214 672 185 693 l 214 672 l 221 693 l 272 693 l 253 629 q 265 568 265 604 l 265 568 l 265 121 q 228 25 265 58 q 144 -8 190 -8 l 144 -8 q 64 22 99 -8 l 64 22 l 57 0 l 6 0 l 29 78 q 24 119 24 96 l 24 119 z m 125 219 l 125 117 q 132 98 125 103 q 146 93 139 93 l 146 93 q 158 98 153 93 q 164 117 164 103 l 164 117 l 164 344 l 125 219 z m 257 857 l 178 738 l 115 738 l 146 857 l 257 857 z m 125 596 l 125 385 l 164 510 l 164 596 l 125 596 z "},"ș":{"ha":269,"x_min":17,"x_max":253,"o":"m 151 83 l 151 183 q 131 258 151 225 q 85 324 111 292 q 40 396 60 357 q 19 485 19 435 l 19 485 l 19 568 q 56 662 19 631 q 136 693 93 693 l 136 693 q 217 662 181 693 q 253 568 253 631 l 253 568 l 253 418 l 156 418 l 156 613 l 121 613 l 121 508 q 141 427 121 461 q 187 362 161 393 q 233 293 213 331 q 253 201 253 256 l 253 201 l 253 118 q 215 24 251 57 q 135 -8 179 -8 l 135 -8 q 54 25 92 -8 q 17 121 17 58 l 17 121 l 17 285 l 114 285 l 114 83 l 151 83 z "},"ț":{"ha":186,"x_min":-1,"x_max":183,"o":"m 38 119 l 38 611 l -1 611 l -1 688 l 38 688 l 38 851 l 138 851 l 138 688 l 183 688 l 183 611 l 139 611 l 139 72 l 183 72 l 183 -3 l 156 -3 q 68 20 99 -3 q 38 119 38 43 l 38 119 z "},"̦":{"ha":0,"x_min":21,"x_max":101,"o":"m 69 -292 l 36 -292 l 57 -210 l 21 -210 l 21 -76 l 101 -76 l 101 -210 l 69 -292 z "},"Ȧ":{"ha":308,"x_min":8,"x_max":300,"o":"m 108 0 l 8 0 l 93 851 l 215 851 l 300 0 l 210 0 l 190 231 l 125 231 l 108 0 z m 190 904 l 115 904 l 115 1010 l 190 1010 l 190 904 z m 151 611 l 131 308 l 183 308 l 157 611 l 151 611 z "},"ȧ":{"ha":300,"x_min":25,"x_max":271,"o":"m 106 -4 l 106 -4 q 55 15 72 -4 q 31 63 38 33 q 25 119 25 92 l 25 119 l 25 571 q 31 628 25 600 q 55 676 38 657 q 106 694 72 694 l 106 694 q 157 675 142 694 q 174 638 172 656 l 174 638 l 182 638 l 182 688 l 271 688 l 271 0 l 182 0 l 182 53 l 174 53 q 157 15 172 35 q 106 -4 142 -4 z m 153 86 l 153 86 q 167 97 164 86 q 171 124 171 107 l 171 124 l 171 567 q 151 604 171 604 l 151 604 q 136 594 139 604 q 133 569 133 585 l 133 569 l 133 121 q 153 86 133 86 z m 185 739 l 110 739 l 110 844 l 185 844 l 185 739 z "},"Ȯ":{"ha":326,"x_min":32,"x_max":294,"o":"m 294 728 l 294 122 q 257 22 294 53 q 178 -8 219 -8 l 178 -8 l 149 -8 q 69 22 107 -8 q 32 122 32 53 l 32 122 l 32 728 q 69 828 32 797 q 149 860 107 860 l 149 860 l 178 860 q 257 828 219 860 q 294 728 294 797 l 294 728 z m 136 772 l 136 79 l 190 79 l 190 772 l 136 772 z m 204 911 l 129 911 l 129 1017 l 204 1017 l 204 911 z "},"ȯ":{"ha":289,"x_min":24,"x_max":265,"o":"m 24 119 l 24 569 q 61 662 24 631 q 144 693 99 693 l 144 693 q 228 662 190 693 q 265 568 265 631 l 265 568 l 265 121 q 228 25 265 58 q 144 -8 190 -8 l 144 -8 q 61 25 99 -8 q 24 119 24 58 l 24 119 z m 125 596 l 125 117 q 132 98 125 103 q 146 93 139 93 l 146 93 q 158 98 153 93 q 164 117 164 103 l 164 117 l 164 596 l 125 596 z m 181 739 l 106 739 l 106 844 l 181 844 l 181 739 z "},"Ȳ":{"ha":315,"x_min":6,"x_max":310,"o":"m 201 0 l 103 0 l 103 317 l 6 851 l 108 851 l 151 522 l 156 522 l 207 851 l 310 851 l 201 317 l 201 0 z m 242 938 l 67 938 l 67 1006 l 242 1006 l 242 938 z "},"ȳ":{"ha":282,"x_min":8,"x_max":279,"o":"m 96 -225 l 69 -225 l 69 -133 l 111 -133 l 125 0 l 108 0 q 69 24 90 0 q 44 107 49 47 l 44 107 l 8 688 l 99 688 l 132 114 l 136 114 l 188 688 l 279 688 l 194 -125 q 184 -167 193 -143 q 155 -208 175 -190 q 96 -225 135 -225 l 96 -225 z m 224 774 l 49 774 l 49 842 l 224 842 l 224 774 z "},"Ȟ":{"ha":336,"x_min":36,"x_max":300,"o":"m 142 0 l 36 0 l 36 851 l 142 851 l 142 514 l 193 514 l 193 851 l 300 851 l 300 0 l 193 0 l 193 428 l 142 428 l 142 0 z m 132 914 l 53 1033 l 122 1033 l 167 979 l 213 1033 l 283 1033 l 204 914 l 132 914 z "},"ȟ":{"ha":290,"x_min":29,"x_max":371,"o":"m 129 0 l 29 0 l 29 851 l 126 851 l 126 635 l 135 635 q 147 672 136 653 q 190 692 157 692 l 190 692 q 238 673 222 692 q 259 626 254 654 q 264 568 264 597 l 264 568 l 264 0 l 164 0 l 164 569 q 161 590 164 579 q 147 601 158 601 l 147 601 q 133 590 136 601 q 129 567 129 578 l 129 567 l 129 0 z m 219 789 l 140 908 l 210 908 l 254 854 l 300 908 l 371 908 l 292 789 l 219 789 z "},"Ẁ":{"ha":474,"x_min":10,"x_max":464,"o":"m 236 543 l 175 0 l 78 0 l 10 850 l 113 850 l 150 368 l 154 368 l 203 850 l 268 850 l 325 368 l 329 368 l 367 850 l 464 850 l 396 0 l 306 0 l 240 543 l 236 543 z m 264 901 l 201 901 l 122 1021 l 233 1021 l 264 901 z "},"ẁ":{"ha":444,"x_min":4,"x_max":442,"o":"m 164 0 l 69 0 l 4 688 l 100 688 l 132 228 l 138 228 l 185 688 l 261 688 l 308 228 l 314 228 l 346 688 l 442 688 l 376 0 l 282 0 l 225 403 l 221 403 l 164 0 z m 244 738 l 182 738 l 103 857 l 214 857 l 244 738 z "},"Ẃ":{"ha":474,"x_min":10,"x_max":464,"o":"m 236 543 l 175 0 l 78 0 l 10 850 l 113 850 l 150 368 l 154 368 l 203 850 l 268 850 l 325 368 l 329 368 l 367 850 l 464 850 l 396 0 l 306 0 l 240 543 l 236 543 z m 350 1021 l 271 901 l 208 901 l 239 1021 l 350 1021 z "},"ẃ":{"ha":444,"x_min":4,"x_max":442,"o":"m 164 0 l 69 0 l 4 688 l 100 688 l 132 228 l 138 228 l 185 688 l 261 688 l 308 228 l 314 228 l 346 688 l 442 688 l 376 0 l 282 0 l 225 403 l 221 403 l 164 0 z m 331 857 l 251 738 l 189 738 l 219 857 l 331 857 z "},"Ẅ":{"ha":474,"x_min":10,"x_max":464,"o":"m 236 543 l 175 0 l 78 0 l 10 850 l 113 850 l 150 368 l 154 368 l 203 850 l 268 850 l 325 368 l 329 368 l 367 850 l 464 850 l 396 0 l 306 0 l 240 543 l 236 543 z m 219 929 l 153 929 l 153 1036 l 219 1036 l 219 929 z m 318 929 l 251 929 l 251 1036 l 318 1036 l 318 929 z "},"ẅ":{"ha":444,"x_min":4,"x_max":442,"o":"m 164 0 l 69 0 l 4 688 l 100 688 l 132 228 l 138 228 l 185 688 l 261 688 l 308 228 l 314 228 l 346 688 l 442 688 l 376 0 l 282 0 l 225 403 l 221 403 l 164 0 z m 200 765 l 133 765 l 133 872 l 200 872 l 200 765 z m 299 765 l 232 765 l 232 872 l 299 872 l 299 765 z "},"̣":{"ha":0,"x_min":29,"x_max":110,"o":"m 110 -193 l 29 -193 l 29 -60 l 110 -60 l 110 -193 z "},"Ạ":{"ha":308,"x_min":8,"x_max":300,"o":"m 108 0 l 8 0 l 93 851 l 215 851 l 300 0 l 210 0 l 190 231 l 125 231 l 108 0 z m 190 -193 l 110 -193 l 110 -60 l 190 -60 l 190 -193 z m 151 611 l 131 308 l 183 308 l 157 611 l 151 611 z "},"Ỹ":{"ha":315,"x_min":6,"x_max":310,"o":"m 201 0 l 103 0 l 103 317 l 6 851 l 108 851 l 151 522 l 156 522 l 207 851 l 310 851 l 201 317 l 201 0 z m 106 983 l 106 917 l 46 917 l 46 982 q 66 1027 46 1013 q 108 1042 86 1042 l 108 1042 q 157 1027 136 1042 q 178 982 178 1013 l 178 982 l 178 967 q 180 960 178 964 q 188 956 182 956 l 188 956 q 196 967 196 956 l 196 967 l 196 1038 l 251 1038 l 251 972 q 233 928 251 943 q 190 913 214 913 l 190 913 q 142 928 161 913 q 122 972 122 943 l 122 972 l 122 983 l 106 983 z "},"ỹ":{"ha":282,"x_min":8,"x_max":279,"o":"m 96 -225 l 69 -225 l 69 -133 l 111 -133 l 125 0 l 108 0 q 69 24 90 0 q 44 107 49 47 l 44 107 l 8 688 l 99 688 l 132 114 l 136 114 l 188 688 l 279 688 l 194 -125 q 184 -167 193 -143 q 155 -208 175 -190 q 96 -225 135 -225 l 96 -225 z m 88 819 l 88 753 l 28 753 l 28 818 q 48 863 28 849 q 90 878 68 878 l 90 878 q 139 863 118 878 q 160 818 160 849 l 160 818 l 160 803 q 162 796 160 800 q 169 792 164 792 l 169 792 q 178 803 178 792 l 178 803 l 178 874 l 233 874 l 233 808 q 215 764 233 779 q 172 749 196 749 l 172 749 q 124 764 143 749 q 104 808 104 779 l 104 808 l 104 819 l 88 819 z "},"Ỳ":{"ha":315,"x_min":6,"x_max":310,"o":"m 201 0 l 103 0 l 103 317 l 6 851 l 108 851 l 151 522 l 156 522 l 207 851 l 310 851 l 201 317 l 201 0 z m 182 901 l 119 901 l 40 1021 l 151 1021 l 182 901 z "},"ỳ":{"ha":282,"x_min":8,"x_max":279,"o":"m 96 -225 l 69 -225 l 69 -133 l 111 -133 l 125 0 l 108 0 q 69 24 90 0 q 44 107 49 47 l 44 107 l 8 688 l 99 688 l 132 114 l 136 114 l 188 688 l 279 688 l 194 -125 q 184 -167 193 -143 q 155 -208 175 -190 q 96 -225 135 -225 l 96 -225 z m 164 738 l 101 738 l 22 857 l 133 857 l 164 738 z "},"ĳ":{"ha":314,"x_min":26,"x_max":285,"o":"m 125 739 l 26 739 l 26 851 l 125 851 l 125 739 z m 128 0 l 29 0 l 29 688 l 128 688 l 128 0 z m 282 735 l 181 735 l 181 851 l 282 851 l 282 735 z m 139 -221 l 139 -119 l 186 -119 l 186 688 l 285 688 l 285 -99 q 254 -198 285 -175 q 167 -221 224 -221 l 167 -221 l 139 -221 z "},"Ǆ":{"ha":604,"x_min":36,"x_max":596,"o":"m 292 722 l 292 126 q 254 28 292 57 q 175 0 217 0 l 175 0 l 36 0 l 36 850 l 175 850 q 254 821 217 850 q 292 722 292 792 l 292 722 z m 142 67 l 154 67 q 175 76 165 67 q 185 111 185 85 l 185 111 l 185 783 l 142 783 l 142 67 z m 596 0 l 332 0 l 332 85 l 475 764 l 357 764 l 357 851 l 583 851 l 583 767 l 439 88 l 596 88 l 596 0 z m 428 914 l 349 1033 l 418 1033 l 463 979 l 508 1033 l 579 1033 l 500 914 l 428 914 z "},"Ə":{"ha":314,"x_min":25,"x_max":281,"o":"m 174 129 l 174 129 l 174 293 l 132 293 l 132 129 q 135 90 132 107 q 150 72 138 72 l 150 72 q 169 86 165 72 q 174 129 174 100 z m 32 329 l 32 357 l 174 357 l 174 772 l 132 772 l 132 515 l 25 515 l 25 728 q 56 820 25 781 q 143 860 86 860 l 143 860 q 244 828 208 860 q 281 728 281 797 l 281 728 l 281 122 q 247 25 281 58 q 157 -8 214 -8 l 157 -8 q 58 23 92 -8 q 25 122 25 54 l 25 122 l 25 329 l 32 329 z "},"Ģ":{"ha":333,"x_min":32,"x_max":307,"o":"m 165 -276 l 132 -276 l 153 -194 l 117 -194 l 117 -61 l 211 -61 l 211 -194 l 165 -276 z m 139 785 l 139 118 q 150 85 139 96 q 175 75 161 75 l 175 75 q 199 85 190 75 q 208 122 208 96 l 208 122 l 208 389 l 168 389 l 168 475 l 307 475 l 307 0 l 210 0 l 210 54 l 199 54 q 173 6 189 19 q 131 -7 157 -7 l 131 -7 q 62 19 92 -7 q 32 108 32 44 l 32 108 l 32 726 q 69 827 32 796 q 149 858 107 858 l 149 858 l 171 858 q 226 844 199 858 q 273 802 254 831 q 292 726 292 774 l 292 726 l 292 565 l 185 565 l 185 785 l 139 785 z "},"Ḡ":{"ha":333,"x_min":32,"x_max":307,"o":"m 139 785 l 139 118 q 150 85 139 96 q 175 75 161 75 l 175 75 q 199 85 190 75 q 208 122 208 96 l 208 122 l 208 389 l 168 389 l 168 475 l 307 475 l 307 0 l 210 0 l 210 54 l 199 54 q 173 6 189 19 q 131 -7 157 -7 l 131 -7 q 62 19 92 -7 q 32 108 32 44 l 32 108 l 32 726 q 69 827 32 796 q 149 858 107 858 l 149 858 l 171 858 q 226 844 199 858 q 273 802 254 831 q 292 726 292 774 l 292 726 l 292 565 l 185 565 l 185 785 l 139 785 z m 256 944 l 81 944 l 81 1013 l 256 1013 l 256 944 z "},"Ķ":{"ha":351,"x_min":36,"x_max":347,"o":"m 181 -276 l 147 -276 l 168 -194 l 132 -194 l 132 -61 l 226 -61 l 226 -194 l 181 -276 z m 136 0 l 36 0 l 36 851 l 136 851 l 136 557 l 142 557 l 224 851 l 333 851 l 242 568 q 210 499 229 529 q 144 471 190 468 l 144 471 l 144 456 q 207 442 189 457 q 235 394 225 428 l 235 394 l 347 0 l 240 0 l 142 358 l 136 358 l 136 0 z "},"Ļ":{"ha":253,"x_min":36,"x_max":247,"o":"m 247 0 l 36 0 l 36 851 l 140 851 l 140 94 l 247 94 l 247 0 z m 146 -276 l 113 -276 l 133 -194 l 97 -194 l 97 -61 l 192 -61 l 192 -194 l 146 -276 z "},"Ņ":{"ha":400,"x_min":36,"x_max":364,"o":"m 138 0 l 36 0 l 36 851 l 142 851 l 261 317 l 261 851 l 364 851 l 364 0 l 264 0 l 138 522 l 138 0 z m 206 -276 l 172 -276 l 193 -194 l 157 -194 l 157 -61 l 251 -61 l 251 -194 l 206 -276 z "},"Ŗ":{"ha":322,"x_min":36,"x_max":292,"o":"m 160 -276 l 126 -276 l 147 -194 l 111 -194 l 111 -61 l 206 -61 l 206 -194 l 160 -276 z m 36 851 l 175 851 q 260 821 229 851 q 292 733 292 790 l 292 733 l 292 564 q 215 469 292 469 l 215 469 l 215 456 l 218 456 q 292 376 292 456 l 292 376 l 292 0 l 185 0 l 185 357 q 147 418 185 418 l 147 418 l 139 418 l 139 0 l 36 0 l 36 851 z m 139 493 l 147 493 q 185 556 185 493 l 185 556 l 185 771 l 139 771 l 139 493 z "},"Ș":{"ha":303,"x_min":29,"x_max":285,"o":"m 165 -276 l 132 -276 l 153 -194 l 117 -194 l 117 -61 l 211 -61 l 211 -194 l 165 -276 z m 135 324 l 135 107 q 139 81 135 93 q 157 68 143 68 l 157 68 q 174 81 171 68 q 178 107 178 93 l 178 107 l 178 247 q 163 328 178 294 q 126 390 147 363 q 82 444 104 417 q 44 507 60 472 q 29 590 29 542 l 29 590 l 29 735 q 63 826 29 794 q 151 858 96 858 l 151 858 q 247 821 217 858 q 278 735 278 783 l 278 735 l 278 525 l 175 525 l 175 776 l 136 776 l 136 601 q 151 520 136 554 q 189 458 167 486 q 233 403 211 431 q 269 341 254 375 q 285 260 285 307 l 285 260 l 285 114 q 253 21 285 50 q 160 -8 221 -8 l 160 -8 q 58 27 88 -8 q 29 114 29 63 l 29 114 l 29 324 l 135 324 z "},"Ț":{"ha":272,"x_min":6,"x_max":267,"o":"m 143 -276 l 110 -276 l 131 -194 l 94 -194 l 94 -61 l 189 -61 l 189 -194 l 143 -276 z m 190 0 l 83 0 l 83 761 l 6 761 l 6 851 l 267 851 l 267 761 l 190 761 l 190 0 z "},"ǆ":{"ha":540,"x_min":25,"x_max":535,"o":"m 106 -4 l 106 -4 q 55 15 72 -4 q 31 63 38 33 q 25 119 25 92 l 25 119 l 25 571 q 31 628 25 600 q 53 676 36 657 q 100 694 69 694 l 100 694 q 149 675 133 694 q 165 638 164 656 l 165 638 l 174 638 l 174 851 l 271 851 l 271 0 l 182 0 l 182 53 l 174 53 q 157 15 172 35 q 106 -4 142 -4 z m 153 86 l 153 86 q 167 97 164 86 q 171 122 171 107 l 171 122 l 171 568 q 151 604 171 604 l 151 604 q 136 594 139 604 q 133 568 133 583 l 133 568 l 133 122 q 138 97 133 107 q 153 86 142 86 z m 533 0 l 304 0 l 304 88 l 433 604 l 319 604 l 319 688 l 531 688 l 531 600 l 403 83 l 533 83 l 533 0 z m 383 750 l 304 869 l 374 869 l 418 815 l 464 869 l 535 869 l 456 750 l 383 750 z "},"ə":{"ha":281,"x_min":21,"x_max":257,"o":"m 122 572 l 122 403 l 21 403 l 21 567 q 59 660 21 629 q 140 692 97 692 l 140 692 q 221 660 185 692 q 257 568 257 629 l 257 568 l 257 118 q 221 26 257 57 q 140 -6 185 -6 l 140 -6 q 59 26 97 -6 q 21 119 21 57 l 21 119 l 21 339 l 156 339 l 156 572 q 151 592 156 588 q 139 597 146 597 l 139 597 q 128 592 133 597 q 122 572 122 588 l 122 572 z m 154 267 l 122 267 l 122 92 l 154 92 l 154 267 z "},"ḡ":{"ha":281,"x_min":22,"x_max":257,"o":"m 22 197 l 22 568 q 26 626 22 597 q 44 673 29 654 q 90 692 58 692 l 90 692 q 142 672 124 692 q 161 635 160 653 l 161 635 l 169 635 l 169 688 l 257 688 l 257 197 q 236 108 257 136 q 171 72 215 79 l 171 72 l 171 39 q 233 12 213 35 q 254 -47 254 -11 l 254 -47 q 229 -111 254 -86 q 151 -136 204 -136 l 151 -136 l 133 -136 q 56 -111 82 -136 q 29 -46 29 -86 l 29 -46 q 111 39 29 28 l 111 39 l 111 71 q 44 108 67 78 q 22 197 22 138 l 22 197 z m 140 164 l 140 164 q 154 174 151 164 q 157 206 157 183 l 157 206 l 157 572 q 155 592 157 583 q 142 601 153 601 l 142 601 q 126 593 131 601 q 122 575 122 585 l 122 575 l 122 203 q 126 174 122 183 q 140 164 129 164 z m 143 -68 l 143 -68 q 162 -65 153 -68 q 171 -49 171 -61 l 171 -49 q 162 -32 171 -36 q 144 -28 153 -28 l 144 -28 l 142 -28 q 124 -32 133 -28 q 114 -49 114 -36 l 114 -49 q 124 -65 114 -61 q 143 -68 133 -68 z m 229 774 l 54 774 l 54 842 l 229 842 l 229 774 z "},"ı":{"ha":151,"x_min":26,"x_max":128,"o":"m 26 0 l 26 688 l 128 688 l 128 0 l 26 0 z "},"ȷ":{"ha":157,"x_min":-18,"x_max":128,"o":"m -18 -219 l -18 -118 l 29 -118 l 29 688 l 128 688 l 128 -97 q 97 -197 128 -174 q 10 -219 67 -219 l 10 -219 l -18 -219 z "},"ǫ":{"ha":289,"x_min":24,"x_max":265,"o":"m 24 119 l 24 569 q 61 662 24 631 q 144 693 99 693 l 144 693 q 228 662 190 693 q 265 568 265 631 l 265 568 l 265 121 q 238 35 265 67 q 169 -6 210 3 l 169 -6 q 154 -82 154 -44 l 154 -82 q 160 -110 154 -100 q 185 -121 167 -121 l 185 -121 q 211 -115 200 -121 q 222 -110 222 -110 l 222 -110 l 222 -190 q 121 -183 161 -210 q 81 -103 81 -157 l 81 -103 q 113 -4 81 -53 l 113 -4 q 49 38 75 7 q 24 119 24 69 l 24 119 z m 125 596 l 125 117 q 132 98 125 103 q 146 93 139 93 l 146 93 q 158 98 153 93 q 164 117 164 103 l 164 117 l 164 596 l 125 596 z "},"̈":{"ha":0,"x_min":29,"x_max":194,"o":"m 96 765 l 29 765 l 29 872 l 96 872 l 96 765 z m 194 765 l 128 765 l 128 872 l 194 872 l 194 765 z "},"̇":{"ha":0,"x_min":29,"x_max":104,"o":"m 104 739 l 29 739 l 29 844 l 104 844 l 104 739 z "},"̀":{"ha":0,"x_min":3,"x_max":144,"o":"m 144 738 l 82 738 l 3 857 l 114 857 l 144 738 z "},"́":{"ha":0,"x_min":14,"x_max":156,"o":"m 156 857 l 76 738 l 14 738 l 44 857 l 156 857 z "},"̋":{"ha":0,"x_min":14,"x_max":267,"o":"m 142 872 l 63 753 l 14 753 l 44 872 l 142 872 z m 267 872 l 160 753 l 111 753 l 169 872 l 267 872 z "},"̂":{"ha":0,"x_min":1,"x_max":232,"o":"m 71 750 l 1 750 l 81 869 l 153 869 l 232 750 l 161 750 l 115 804 l 71 750 z "},"̌":{"ha":0,"x_min":3,"x_max":233,"o":"m 82 750 l 3 869 l 72 869 l 117 815 l 163 869 l 233 869 l 154 750 l 82 750 z "},"̆":{"ha":0,"x_min":18,"x_max":196,"o":"m 18 831 l 18 872 l 74 872 l 74 836 q 83 809 74 819 q 106 799 92 799 l 106 799 q 139 836 139 799 l 139 836 l 139 872 l 196 872 l 196 831 q 172 767 196 793 q 106 742 147 742 l 106 742 q 42 769 65 742 q 18 831 18 796 l 18 831 z "},"̊":{"ha":0,"x_min":14,"x_max":181,"o":"m 14 810 l 14 810 q 38 869 14 844 q 94 894 63 894 l 94 894 q 155 870 129 894 q 181 810 181 846 l 181 810 q 156 753 181 778 q 96 728 132 728 l 96 728 q 39 752 64 728 q 14 810 14 776 z m 65 811 l 65 811 q 97 779 65 779 l 97 779 q 131 811 131 779 l 131 811 q 122 835 131 826 q 97 844 113 844 l 97 844 q 65 811 65 844 z "},"̃":{"ha":0,"x_min":24,"x_max":229,"o":"m 83 819 l 83 753 l 24 753 l 24 818 q 44 863 24 849 q 86 878 64 878 l 86 878 q 135 863 114 878 q 156 818 156 849 l 156 818 l 156 803 q 158 796 156 800 q 165 792 160 792 l 165 792 q 174 803 174 792 l 174 803 l 174 874 l 229 874 l 229 808 q 210 764 229 779 q 168 749 192 749 l 168 749 q 119 764 139 749 q 100 808 100 779 l 100 808 l 100 819 l 83 819 z "},"̄":{"ha":0,"x_min":29,"x_max":204,"o":"m 204 774 l 29 774 l 29 842 l 204 842 l 204 774 z "},"̒":{"ha":0,"x_min":21,"x_max":115,"o":"m 67 886 l 100 886 l 79 804 l 115 804 l 115 671 l 21 671 l 21 804 l 67 886 z "},"̧":{"ha":0,"x_min":17,"x_max":143,"o":"m 17 -90 l 42 -90 q 80 -87 61 -90 q 96 -65 99 -83 l 96 -65 q 74 -51 94 -51 l 74 -51 q 53 -57 63 -51 l 53 -57 l 28 -53 l 42 11 l 72 11 l 63 -26 q 110 -29 90 -19 q 135 -62 129 -39 l 135 -62 q 122 -119 143 -94 q 56 -143 100 -143 l 56 -143 l 17 -143 l 17 -90 z "},"̨":{"ha":0,"x_min":14,"x_max":156,"o":"m 156 -124 l 156 -204 q 54 -197 94 -224 q 14 -117 14 -171 l 14 -117 q 26 -58 14 -89 q 58 0 38 -26 l 58 0 l 113 0 q 88 -96 88 -46 l 88 -96 q 94 -124 88 -114 q 118 -135 100 -135 l 118 -135 q 144 -129 133 -135 q 156 -124 156 -124 l 156 -124 z "},"̸":{"ha":0,"x_min":-3,"x_max":264,"o":"m 49 0 l -3 0 l 213 907 l 264 907 l 49 0 z "}}}
